<?xml version="1.0" standalone="no"?>
<!DOCTYPE svg PUBLIC "-//W3C//DTD SVG 1.1//EN" "http://www.w3.org/Graphics/SVG/1.1/DTD/svg11.dtd" >
<svg>
<metadata>
Created by FontForge 20090622 at Fri Aug 23 15:58:50 2019
 By deploy user
&#194;&#169;2010 Paul Barnes and Christian Schwartz, under exclusive license to Schwartzco Inc./Commercial Type. All rights reserved.
</metadata>
<defs>
<font id="ChubbPublicoText-Bold" horiz-adv-x="600" >
  <font-face 
    font-family="Chubb Publico Text"
    font-weight="700"
    font-stretch="normal"
    units-per-em="1000"
    panose-1="2 4 8 2 6 5 4 6 2 3"
    ascent="781"
    descent="-219"
    x-height="519"
    cap-height="693"
    bbox="-123 -284 1279 1128"
    underline-thickness="50"
    underline-position="-58"
    unicode-range="U+0020-U+FB04"
  />
<missing-glyph horiz-adv-x="516" 
 />
    <glyph glyph-name="f_f" unicode="ff" horiz-adv-x="694" 
d="M20 0v39l29 7q25 6 31 15.5t6 41.5v345h-73v37l73 34v9q0 106 76 166.5t193 60.5q84 0 128 -38q71 54 178 54q127 0 127 -83q0 -26 -16 -42.5t-45 -16.5q-72 0 -77 67q-1 19 -5 24t-15 5q-66 0 -66 -98v-108h121l-18 -71h-103v-343q0 -35 5.5 -44.5t28.5 -13.5l41 -8v-39
h-296v39l29 6q23 5 28.5 14.5t5.5 43.5v345h-162v-343q0 -36 5 -45.5t27 -14.5l27 -6v-39h-283zM406 558q0 30 8 60q-23 89 -82 89q-39 0 -63.5 -26.5t-24.5 -84.5v-77h162v39z" />
    <glyph glyph-name="f_i" unicode="fi" horiz-adv-x="647" 
d="M244 614v-95h187l123 13l15 -9q0 -5 -2.5 -44t-2.5 -67v-309q0 -33 6 -42t30 -15l29 -7v-39h-283v39l26 6q23 6 28.5 15t5.5 43v285q0 37 -9.5 48.5t-37.5 11.5h-115v-343q0 -36 5 -45t27 -15l27 -6v-39h-283v39l29 7q25 7 31 16t6 41v345h-73v37l73 34v26
q0 106 70.5 166t204.5 60q75 0 116 -24t41 -68q0 -66 -68 -66q-43 0 -63 16.5t-25 63.5q-3 31 -32 31q-86 0 -86 -110z" />
    <glyph glyph-name="f_l" unicode="fl" horiz-adv-x="649" 
d="M346 0v39l26 6q23 6 28.5 15t5.5 43v527q-37 13 -41 67q-1 17 -6.5 22.5t-18.5 5.5q-47 0 -71.5 -24t-24.5 -86v-96h109l-18 -71h-91v-343q0 -36 5 -45t27 -15l27 -6v-39h-283v39l29 7q25 7 31 16t6 41v345h-73v37l73 34v26q0 103 71.5 164.5t183.5 61.5q109 0 149 -38
l62 33l19 -10q-7 -48 -7 -115v-538q0 -33 6 -41.5t32 -15.5l29 -7v-39h-285z" />
    <glyph glyph-name="f_f_i" unicode="ffi" horiz-adv-x="966" 
d="M20 0v39l29 7q25 6 31 15.5t6 41.5v345h-73v37l73 34v9q0 106 76 166.5t193 60.5q87 0 131 -39q74 55 195 55q75 0 116.5 -24t41.5 -68q0 -29 -17.5 -45.5t-50.5 -16.5q-44 0 -63.5 16.5t-25.5 63.5q-1 15 -8.5 21t-23.5 6q-86 0 -86 -110v-95h187l123 13l17 -9
q-6 -87 -6 -111v-309q0 -33 6 -42.5t29 -14.5l29 -7v-39h-282v39l26 6q22 5 28 15t6 43v285q0 37 -9.5 48.5t-37.5 11.5h-116v-343q0 -36 5 -45.5t27 -14.5l27 -6v-39h-280v39l29 6q23 5 28.5 14.5t5.5 43.5v345h-162v-343q0 -36 5 -45.5t27 -14.5l27 -6v-39h-283zM406 545
q0 37 9 69q-23 93 -83 93q-39 0 -63.5 -26.5t-24.5 -84.5v-77h162v26z" />
    <glyph glyph-name="f_f_l" unicode="ffl" horiz-adv-x="969" 
d="M343 0v39l29 6q23 5 28.5 14.5t5.5 43.5v345h-162v-343q0 -36 5 -45t27 -15l27 -6v-39h-283v39l29 7q25 7 31 16t6 41v345h-73v37l73 34v9q0 106 76 166.5t193 60.5q86 0 130 -39q71 55 175 55q111 0 149 -38l63 33l19 -10q-7 -48 -7 -115v-538q0 -33 6 -41.5t32 -15.5
l29 -7v-39h-285v39l26 6q23 6 28.5 15t5.5 43v527q-35 13 -41 67q-1 17 -6 22.5t-18 5.5q-48 0 -72.5 -24t-24.5 -86v-96h109l-18 -71h-91v-343q0 -35 5 -45t27 -15l27 -6v-39h-280zM244 596v-77h162v26q0 37 9 68q-23 94 -83 94q-39 0 -63.5 -26.5t-24.5 -84.5z" />
    <glyph glyph-name="f_b" unicode="fb" horiz-adv-x="972" 
d="M636 -12q-141 0 -230 55v587q-37 13 -41 67q-1 17 -6.5 22.5t-18.5 5.5q-47 0 -71.5 -24t-24.5 -86v-96h109l-18 -71h-91v-343q0 -35 5.5 -44.5t28.5 -13.5l41 -8v-39h-299v39l29 7q25 7 31 16t6 41v345h-73v37l73 34v26q0 103 71.5 164.5t183.5 61.5q109 0 149 -38
l63 33l19 -10q-8 -44 -8 -115v-79q0 -24 -1.5 -48t-2.5 -36l-2 -12h5q82 66 176 66q83 0 142.5 -59t59.5 -186q0 -149 -83.5 -224t-221.5 -75zM648 40q68 0 99 45t31 168q0 189 -115 189q-58 0 -99 -23v-346q33 -33 84 -33z" />
    <glyph glyph-name="f_f_b" unicode="ffb" horiz-adv-x="1292" 
d="M343 0v39l29 6q23 4 28.5 14.5t5.5 43.5v345h-162v-343q0 -36 5 -45t27 -15l27 -6v-39h-283v39l29 7q25 7 31 16t6 41v345h-73v37l73 34v9q0 106 76 166.5t193 60.5q86 0 130 -39q71 55 176 55q109 0 149 -38l63 33l19 -10q-8 -44 -8 -115v-79q0 -24 -1.5 -48t-2.5 -36
l-2 -12h5q82 66 176 66q83 0 142.5 -59t59.5 -186q0 -149 -83.5 -224t-221.5 -75q-141 0 -230 55v587q-37 13 -41 67q-1 17 -6.5 22.5t-18.5 5.5q-47 0 -71.5 -24t-24.5 -86v-96h109l-18 -71h-91v-343q0 -35 5.5 -44.5t28.5 -13.5l41 -8v-39h-296zM968 40q68 0 99 45t31 168
q0 189 -115 189q-58 0 -99 -23v-346q33 -33 84 -33zM244 596v-77h162v26q0 37 9 68q-23 94 -83 94q-39 0 -63.5 -26.5t-24.5 -84.5z" />
    <glyph glyph-name="f_f_h" unicode="ffh" horiz-adv-x="1292" 
d="M343 0v39l29 6q23 5 28.5 15t5.5 43v345h-162v-343q0 -36 5 -45t27 -15l27 -6v-39h-283v39l29 7q25 7 31 16t6 41v345h-73v37l73 34v9q0 106 76 166.5t193 60.5q86 0 130 -39q71 55 176 55q109 0 149 -38l63 33l19 -10q-8 -48 -8 -115v-79l-6 -98h4q101 68 197 68
q136 0 136 -133v-296q0 -32 6.5 -41.5t30.5 -15.5l27 -7v-39h-282v39l27 6q22 6 27 14.5t5 43.5v251q0 46 -17 65t-56 19t-99 -19v-316q0 -35 5 -43.5t27 -14.5l27 -6v-39h-277v39l26 6q22 5 28 15t6 43v527q-37 13 -41 67q-1 17 -6.5 22.5t-18.5 5.5q-47 0 -71.5 -24
t-24.5 -86v-96h109l-18 -71h-91v-343q0 -36 5 -45t27 -15l27 -6v-39h-280zM244 596v-77h162v26q0 37 9 68q-23 94 -83 94q-39 0 -63.5 -26.5t-24.5 -84.5z" />
    <glyph glyph-name="f_f_j" unicode="ffj" horiz-adv-x="951" 
d="M664 -243q-64 0 -99.5 27t-35.5 67q0 30 18 46t50 16q35 0 51.5 -17.5t20.5 -63.5q2 -28 18 -28q19 0 29 15t10 38v531q0 37 -9.5 48.5t-37.5 11.5h-115v-343q0 -35 5.5 -44t28.5 -14l35 -8v-39h-290v39l29 6q23 5 28.5 15t5.5 43v345h-162v-343q0 -36 5 -45t27 -15
l27 -6v-39h-283v39l29 7q25 7 31 16t6 41v345h-73v37l73 34v9q0 106 76 166.5t193 60.5q85 0 129 -38q71 54 197 54q75 0 116 -24t41 -68q0 -66 -68 -66q-43 0 -63 16.5t-25 63.5q-3 31 -32 31q-86 0 -86 -110v-95h187l123 13l15 -9q0 -5 -2.5 -44t-2.5 -67v-437
q0 -104 -61 -161t-159 -57zM244 596v-77h162v26q0 39 9 70q-13 48 -32.5 70t-50.5 22q-39 0 -63.5 -26.5t-24.5 -84.5z" />
    <glyph glyph-name="f_f_k" unicode="ffk" horiz-adv-x="1261" 
d="M343 0v39l29 6q24 5 29 14.5t5 43.5v345h-162v-343q0 -36 5 -45t27 -15l27 -6v-39h-283v39l29 7q25 7 31 16t6 41v345h-73v37l73 34v9q0 106 76 166.5t193 60.5q86 0 130 -39q71 55 176 55q109 0 149 -38l63 33l19 -10q-8 -48 -8 -115v-538q0 -34 5 -43t26 -15l26 -6v-39
h-275v39l26 6q22 5 28 15t6 43v527q-37 13 -41 67q-1 17 -6.5 22.5t-18.5 5.5q-47 0 -71.5 -24t-24.5 -86v-96h109l-18 -71h-91v-343q0 -36 5 -45t27 -15l27 -6v-39h-280zM1061 0q-76 96 -162 246v24l101 102q50 54 50 74q0 23 -33 31l-16 4v38h228v-39l-23 -6
q-23 -6 -43.5 -18.5t-52.5 -43.5l-88 -87q107 -182 164 -250q15 -21 37 -28l25 -8v-39h-187zM244 596v-77h162v26q0 37 9 68q-23 94 -83 94q-39 0 -63.5 -26.5t-24.5 -84.5z" />
    <glyph glyph-name="f_h" unicode="fh" horiz-adv-x="972" 
d="M346 0v39l26 6q22 5 28 15t6 43v527q-37 13 -41 67q-1 17 -6.5 22.5t-18.5 5.5q-47 0 -71.5 -24t-24.5 -86v-96h109l-18 -71h-91v-343q0 -36 5 -45t27 -15l27 -6v-39h-283v39l29 7q25 7 31 16t6 41v345h-73v37l73 34v26q0 103 71.5 164.5t183.5 61.5q109 0 149 -38l63 33
l19 -10q-8 -48 -8 -115v-79l-6 -98h4q101 68 197 68q136 0 136 -133v-296q0 -32 6.5 -41.5t30.5 -15.5l27 -7v-39h-282v39l27 6q22 6 27 14.5t5 43.5v251q0 46 -17 65t-56 19t-99 -19v-316q0 -35 5 -43.5t27 -14.5l27 -6v-39h-277z" />
    <glyph glyph-name="f_j" unicode="fj" horiz-adv-x="631" 
d="M344 -243q-64 0 -99.5 27t-35.5 67q0 30 18 46t50 16q35 0 51.5 -17.5t20.5 -63.5q2 -28 18 -28q19 0 29 15t10 38v531q0 37 -9.5 48.5t-37.5 11.5h-115v-343q0 -35 5.5 -44t28.5 -14l35 -8v-39h-293v39l29 7q25 6 31 15.5t6 41.5v345h-73v37l73 34v26q0 106 70.5 166
t204.5 60q75 0 116 -24t41 -68q0 -66 -68 -66q-43 0 -63 16.5t-25 63.5q-3 31 -32 31q-86 0 -86 -110v-95h187l123 13l15 -9q0 -5 -2.5 -44t-2.5 -67v-437q0 -104 -61 -161t-159 -57z" />
    <glyph glyph-name="f_k" unicode="fk" horiz-adv-x="941" 
d="M346 0v39l26 6q22 5 28 15t6 43v527q-37 13 -41 67q-1 17 -6.5 22.5t-18.5 5.5q-47 0 -71.5 -24t-24.5 -86v-96h109l-18 -71h-91v-343q0 -36 5 -45t27 -15l27 -6v-39h-283v39l29 7q25 7 31 16t6 41v345h-73v37l73 34v26q0 103 71.5 164.5t183.5 61.5q109 0 149 -38l63 33
l19 -10q-8 -48 -8 -115v-538q0 -34 5 -43t26 -15l26 -6v-39h-275zM741 0q-76 96 -162 246v24l101 102q50 54 50 74q0 23 -33 31l-16 4v38h228v-39l-23 -6q-23 -6 -43.5 -18.5t-52.5 -43.5l-88 -87q107 -182 164 -250q15 -21 37 -28l25 -8v-39h-187z" />
    <glyph glyph-name=".notdef" horiz-adv-x="516" 
 />
    <glyph glyph-name=".null" horiz-adv-x="0" 
 />
    <glyph glyph-name="nonmarkingreturn" horiz-adv-x="333" 
 />
    <glyph glyph-name="space" unicode=" " horiz-adv-x="273" 
 />
    <glyph glyph-name="exclam" unicode="!" horiz-adv-x="317" 
d="M137 241l-69 332q-17 63 10.5 96.5t80.5 33.5q52 0 79.5 -33.5t10.5 -96.5l-69 -332h-43zM158 -8q-40 0 -67 27t-27 65q0 39 27.5 66.5t66.5 27.5q40 0 68 -27.5t28 -66.5q0 -38 -28 -65t-68 -27z" />
    <glyph glyph-name="quotedbl" unicode="&#x22;" horiz-adv-x="432" 
d="M298 387l-51 218q-13 52 9 77.5t61 25.5q38 0 60 -26t10 -77l-52 -218h-37zM99 387l-53 218q-13 51 9 77t61 26q37 0 59.5 -26.5t10.5 -76.5l-51 -218h-36z" />
    <glyph glyph-name="numbersign" unicode="#" horiz-adv-x="555" 
d="M92 0l36 181h-88l19 104h89l24 126h-85l18 104h90l35 178h65l-35 -178h108l35 178h66l-35 -178h87l-18 -104h-90l-26 -126h89l-19 -104h-90l-36 -181h-66l36 181h-109l-34 -181h-66zM214 285h107l26 126h-109z" />
    <glyph glyph-name="dollar" unicode="$" horiz-adv-x="553" 
d="M237 -158v147q-110 4 -165 39.5t-55 92.5q0 32 19.5 47.5t49.5 15.5q39 0 56 -16.5t23 -76.5q4 -29 18 -40.5t54 -13.5v245q-111 42 -156 94t-45 124q0 80 58.5 135t152.5 66v98h56v-96q104 -3 156 -39t52 -85q0 -29 -20.5 -48t-50.5 -19q-43 0 -58 20.5t-21 76.5
q-3 25 -16 34.5t-42 11.5v-226q122 -48 169.5 -99.5t47.5 -131.5q0 -81 -62.5 -141t-163.5 -68v-147h-57zM384 141q0 78 -90 119v-222q90 12 90 103zM160 564q0 -39 19 -64t68 -48v202q-42 -6 -64.5 -29.5t-22.5 -60.5z" />
    <glyph glyph-name="percent" unicode="%" horiz-adv-x="870" 
d="M214 344q-76 0 -129 45.5t-53 130.5q0 90 59 137t126 47q72 0 127.5 -46.5t55.5 -130.5q0 -88 -57.5 -135.5t-128.5 -47.5zM124 -50l528 764h75l-530 -764h-73zM652 -13q-75 0 -128 45.5t-53 129.5q0 90 58.5 137.5t125.5 47.5q72 0 127.5 -47t55.5 -131
q0 -88 -57.5 -135t-128.5 -47zM216 387q36 0 51.5 30.5t15.5 101.5q0 79 -16 110.5t-51 31.5q-33 0 -50 -30t-17 -103q0 -78 15.5 -109.5t51.5 -31.5zM654 30q37 0 51.5 30t14.5 102q0 80 -15.5 111t-50.5 31q-33 0 -49.5 -30.5t-16.5 -103.5q0 -77 15.5 -108.5t50.5 -31.5z
" />
    <glyph glyph-name="ampersand" unicode="&#x26;" horiz-adv-x="762" 
d="M283 -12q-131 0 -195.5 53.5t-64.5 135.5q0 129 176 198q-46 67 -46 139q0 81 61 136t148 55q82 0 133.5 -37.5t51.5 -97.5q0 -106 -172 -174q88 -119 161 -204q40 64 40 107q0 19 -7.5 28t-25.5 14l-30 7v39h228v-39l-26 -7q-26 -7 -45 -27.5t-48 -67.5q-44 -81 -51 -92
q11 -13 63 -67q31 -31 61 -37l39 -10v-40h-229q-9 8 -40 41q-73 -53 -182 -53zM350 430q42 27 64 58t22 79q0 88 -73 88q-74 0 -74 -82q0 -38 15 -69.5t46 -73.5zM327 48q61 0 101 31q-125 138 -204 258q-45 -48 -45 -127q0 -78 40 -120t108 -42z" />
    <glyph glyph-name="quotesingle" unicode="'" horiz-adv-x="227" 
d="M96 387l-54 218q-13 51 10 77t62 26q38 0 61 -26t11 -77l-54 -218h-36z" />
    <glyph glyph-name="parenleft" unicode="(" horiz-adv-x="345" 
d="M306 -141q-38 25 -72 54t-71 71.5t-63.5 88.5t-43.5 107t-17 125q0 73 25 143.5t66.5 126t85 97.5t90.5 73l27 -29q-72 -67 -112.5 -169t-40.5 -225q0 -154 38.5 -254t114.5 -180z" />
    <glyph glyph-name="parenright" unicode=")" horiz-adv-x="345" 
d="M39 745q47 -31 90.5 -72.5t85 -97.5t66.5 -128t25 -147q0 -77 -25 -148.5t-67 -126.5t-84.5 -94.5t-90.5 -71.5l-27 29q76 80 115 178.5t39 239.5q0 267 -154 410z" />
    <glyph glyph-name="asterisk" unicode="*" horiz-adv-x="450" 
d="M104 346q-23 16 -23.5 40.5t34.5 52.5l89 62l-110 5q-41 0 -56 20.5t-5 47.5q8 25 31 30.5t60 -18.5l85 -56l-29 99q-13 39 2 59t44 20q28 0 42 -20t1 -59l-29 -99l87 56q37 24 59.5 17.5t31.5 -32.5t-6.5 -46t-55.5 -19l-111 -5l90 -63q35 -26 34 -51.5t-25 -40.5
q-14 -10 -29 -10.5t-30 11.5t-23 38l-35 98l-39 -97q-13 -39 -39 -48.5t-45 8.5z" />
    <glyph glyph-name="plus" unicode="+" horiz-adv-x="502" 
d="M213 129v174h-167v68h167v174h77v-174h166v-68h-166v-174h-77z" />
    <glyph glyph-name="comma" unicode="," horiz-adv-x="322" 
d="M32 -171l-11 34q87 36 119 75t32 87q-14 -14 -43 -14q-35 0 -55 22.5t-20 60.5t28.5 64t71.5 26q51 0 83.5 -34.5t32.5 -95.5q0 -75 -58.5 -137.5t-179.5 -87.5z" />
    <glyph glyph-name="hyphen" unicode="-" horiz-adv-x="299" 
d="M31 240l12 98h226l-12 -98h-226z" />
    <glyph glyph-name="period" unicode="." horiz-adv-x="307" 
d="M153 -8q-40 0 -69 28t-29 67q0 40 28.5 68.5t69.5 28.5t70 -28.5t29 -68.5q0 -39 -29 -67t-70 -28z" />
    <glyph glyph-name="slash" unicode="/" horiz-adv-x="411" 
d="M6 -130l312 864h70l-313 -864h-69z" />
    <glyph glyph-name="zero" unicode="0" horiz-adv-x="706" 
d="M348 -12q-61 0 -116 21t-99 62t-70 109.5t-26 156.5q0 77 20.5 140.5t53.5 104.5t75.5 69.5t85 41t83.5 12.5q59 0 113.5 -21.5t100 -63.5t73 -111.5t27.5 -157.5q0 -92 -29 -164t-76 -114t-102.5 -63.5t-113.5 -21.5zM352 39q71 0 101 68t30 229q0 178 -31 248t-100 70
q-66 0 -98 -67t-32 -234q0 -172 30.5 -243t99.5 -71z" />
    <glyph glyph-name="one" unicode="1" horiz-adv-x="418" 
d="M32 0v40l45 7q28 6 35.5 17.5t7.5 54.5v406l-87 6v42q143 29 231 128l37 -6v-576q0 -43 7.5 -54.5t35.5 -17.5l42 -7v-40h-354z" />
    <glyph glyph-name="two" unicode="2" horiz-adv-x="561" 
d="M22 0v79q130 99 218 196q58 63 83.5 117t25.5 132q0 135 -97 135q-31 0 -42.5 -10.5t-13.5 -38.5q-2 -56 -22.5 -78t-64.5 -22q-74 0 -74 70q0 52 59.5 88.5t173.5 36.5q118 0 188.5 -51.5t70.5 -149.5q0 -51 -27.5 -101.5t-80.5 -97.5t-115.5 -88.5t-145.5 -86.5v-5h237
q38 0 52.5 12.5t39.5 66.5h38l-15 -204h-488z" />
    <glyph glyph-name="three" unicode="3" horiz-adv-x="575" 
d="M240 -12q-107 0 -163.5 30.5t-56.5 86.5q0 31 18.5 50t52.5 19q38 0 57 -17t26 -66q6 -37 16.5 -47t47.5 -10q112 0 112 162q0 78 -30.5 107.5t-100.5 29.5h-51v55h42q68 0 97 31.5t29 107.5q0 132 -94 132q-24 0 -34 -8t-12 -31q-5 -53 -21.5 -72t-58.5 -19
q-35 0 -52.5 17.5t-17.5 46.5q0 52 60.5 82t155.5 30q113 0 178.5 -44.5t65.5 -121.5q0 -60 -46.5 -105t-141.5 -63v-4q99 -7 157 -51t58 -125q0 -89 -75 -146t-218 -57z" />
    <glyph glyph-name="four" unicode="4" horiz-adv-x="618" 
d="M236 0v40l37 7q26 6 34 17.5t8 54.5v70h-294v59l358 445h108v-428h106l-11 -76h-95v-70q0 -44 7.5 -55.5t35.5 -16.5l40 -7v-40h-334zM105 265h210v258h-3l-207 -254v-4z" />
    <glyph glyph-name="five" unicode="5" horiz-adv-x="560" 
d="M233 -12q-95 0 -149 32t-54 84q0 28 19 47t53 19q40 0 59 -18.5t23 -71.5q3 -28 14 -37t44 -9q65 0 99 36t34 103q0 144 -172 144q-76 0 -115 -16l-11 8l42 384h284q23 0 33 9t29 44h39l-19 -176h-318l-16 -132q48 13 108 13q119 0 192 -57.5t73 -165.5q0 -104 -80 -172
t-211 -68z" />
    <glyph glyph-name="six" unicode="6" horiz-adv-x="630" 
d="M322 -12q-124 0 -205.5 81.5t-81.5 241.5q0 102 31.5 180.5t85 123.5t115.5 67.5t131 22.5q83 0 131 -25.5t48 -71.5q0 -30 -19.5 -47t-55.5 -17q-39 0 -57 17.5t-23 62.5q-2 19 -12 27t-38 8q-62 0 -106 -69.5t-48 -218.5q69 49 155 49q102 0 162.5 -53t60.5 -152
q0 -102 -74 -164.5t-200 -62.5zM325 39q56 0 74.5 35t18.5 131q0 84 -25.5 117t-82.5 33q-46 0 -93 -29v-18q0 -155 21 -212t87 -57z" />
    <glyph glyph-name="seven" unicode="7" horiz-adv-x="540" 
d="M115 0q37 171 117.5 307t201.5 262h-291q-32 0 -43.5 -12.5t-33.5 -67.5h-40l19 204h475v-79q-102 -137 -150.5 -280.5t-65.5 -333.5h-189z" />
    <glyph glyph-name="eight" unicode="8" horiz-adv-x="599" 
d="M294 -12q-116 0 -189.5 45t-73.5 127q0 53 42 97.5t112 72.5v3q-125 65 -125 171q0 88 73.5 144.5t173.5 56.5q96 0 163.5 -41t67.5 -119q0 -45 -38 -84.5t-96 -65.5v-4q85 -41 124 -84.5t39 -108.5q0 -87 -78.5 -148.5t-194.5 -61.5zM359 417q58 62 58 125
q0 110 -118 110q-51 0 -82.5 -25t-31.5 -64q0 -44 40 -75t134 -71zM303 41q59 0 96 26.5t37 72.5q0 50 -42.5 80.5t-170.5 88.5q-64 -68 -64 -137q0 -131 144 -131z" />
    <glyph glyph-name="nine" unicode="9" horiz-adv-x="630" 
d="M307 703q127 0 207.5 -81t80.5 -242q0 -100 -28 -177t-77 -123.5t-112 -70t-138 -23.5q-85 0 -134.5 26t-49.5 73q0 65 77 65q36 0 54.5 -18.5t25.5 -63.5q3 -19 13 -27.5t38 -8.5q70 0 105.5 67t42.5 219q-76 -50 -162 -50q-101 0 -158.5 55.5t-57.5 159.5
q0 98 74.5 159t198.5 61zM304 652q-54 0 -73 -34t-19 -125q0 -88 25 -123t80 -35q44 0 96 29v20q0 154 -21 211t-88 57z" />
    <glyph glyph-name="colon" unicode=":" horiz-adv-x="319" 
d="M160 305q-41 0 -70 28t-29 67q0 40 29 68t70 28t69.5 -28t28.5 -68q0 -39 -29 -67t-69 -28zM160 -8q-41 0 -70 28t-29 67q0 40 29 68.5t70 28.5t69.5 -28.5t28.5 -68.5q0 -39 -29 -67t-69 -28z" />
    <glyph glyph-name="semicolon" unicode=";" horiz-adv-x="325" 
d="M160 305q-41 0 -70 28t-29 67q0 40 29 68t70 28t69.5 -28t28.5 -68q0 -39 -29 -67t-69 -28zM37 -171l-11 34q87 36 119 75t32 87q-14 -14 -43 -14q-35 0 -55 22.5t-20 60.5t28.5 64t71.5 26q51 0 83.5 -34.5t32.5 -95.5q0 -75 -58.5 -137.5t-179.5 -87.5z" />
    <glyph glyph-name="less" unicode="&#x3c;" horiz-adv-x="503" 
d="M452 112l-402 176v79l402 176v-76l-332 -139l332 -139v-77z" />
    <glyph glyph-name="equal" unicode="=" horiz-adv-x="552" 
d="M46 390v68h460v-68h-460zM46 216v68h460v-68h-460z" />
    <glyph glyph-name="greater" unicode="&#x3e;" horiz-adv-x="503" 
d="M452 288l-402 -176v77l332 139l-332 139v76l402 -176v-79z" />
    <glyph glyph-name="question" unicode="?" horiz-adv-x="502" 
d="M156 238v162q68 18 111.5 53t43.5 102q0 45 -27 73.5t-63 28.5q-21 0 -28.5 -8t-11.5 -34q-6 -43 -25 -62.5t-57 -19.5q-33 0 -50.5 18t-17.5 45q0 51 53.5 80t142.5 29q111 0 171.5 -47.5t60.5 -133.5q0 -88 -68.5 -145.5t-171.5 -74.5v-66h-63zM192 -8q-40 0 -67.5 27
t-27.5 65t27.5 66t67.5 28t67.5 -27.5t27.5 -66.5q0 -38 -27.5 -65t-67.5 -27z" />
    <glyph glyph-name="at" unicode="@" horiz-adv-x="996" 
d="M477 -190q-197 0 -317 107.5t-120 289.5q0 135 72 249.5t190 179.5t253 65q187 0 294.5 -88.5t107.5 -241.5q0 -87 -28.5 -154.5t-74.5 -106t-96 -57.5t-100 -19q-69 0 -94 24t-27 68h-4q-55 -91 -152 -91q-52 0 -82 36t-30 103q0 133 87 227.5t190 94.5q73 0 123 -37h4
l49 33l21 -11q-15 -26 -32 -109l-37 -193q-10 -49 -2.5 -67.5t39.5 -18.5q64 0 111.5 68.5t47.5 178.5q0 149 -78 230.5t-238 81.5q-171 0 -291.5 -121t-120.5 -300q0 -177 87 -273t269 -96q143 0 269 57v-45q-124 -64 -290 -64zM451 117q23 0 41.5 18t42.5 55l44 229l-6 9
q-6 9 -14 14.5t-21 5.5q-48 0 -89.5 -82.5t-41.5 -181.5q0 -38 11 -52.5t33 -14.5z" />
    <glyph glyph-name="A" unicode="A" horiz-adv-x="726" 
d="M5 0v40l27 7q24 6 37 21.5t33 66.5l206 558h102l214 -562q19 -49 32 -64t36 -22l24 -5v-40h-327v40l28 7q21 5 29 12.5t8 21.5q0 13 -18 65l-23 63h-217l-22 -63q-16 -50 -16 -61q0 -17 9.5 -24t34.5 -14l29 -7v-40h-226zM301 511l-86 -247h179l-88 247h-5z" />
    <glyph glyph-name="B" unicode="B" horiz-adv-x="689" 
d="M27 0v40l35 7q25 6 32.5 17.5t7.5 54.5v455q0 43 -7.5 54.5t-32.5 17.5l-35 8v39h324q139 0 206.5 -39.5t67.5 -124.5q0 -128 -188 -156v-5q111 -12 166 -53t55 -120q0 -95 -71.5 -145t-206.5 -50h-353zM279 389h58q63 0 88.5 27.5t25.5 95.5q0 78 -24.5 103t-85.5 25
q-34 0 -62 -7v-244zM360 53q58 0 85 29t27 111t-28.5 112.5t-98.5 30.5h-66v-217q0 -43 14.5 -54.5t66.5 -11.5z" />
    <glyph glyph-name="C" unicode="C" horiz-adv-x="657" 
d="M396 -12q-165 0 -262.5 90t-97.5 263q0 94 30 165.5t82.5 114t118.5 63.5t143 21q110 0 194 -23l11 -207h-42q-54 108 -80 141q-20 25 -37.5 31.5t-58.5 6.5q-94 0 -133 -65.5t-39 -227.5q0 -187 39.5 -254.5t131.5 -67.5q45 0 68 13t48 46q39 56 69 130h41l-11 -199
q-100 -41 -215 -41z" />
    <glyph glyph-name="D" unicode="D" horiz-adv-x="763" 
d="M27 0v40l35 7q25 6 32.5 17.5t7.5 54.5v455q0 43 -7.5 54.5t-32.5 17.5l-35 8v39h344q167 0 262 -82t95 -253q0 -169 -97 -263.5t-265 -94.5h-339zM356 53q99 0 142 67.5t43 214.5q0 171 -44 238t-143 67q-51 0 -73 -9v-484q0 -59 14 -76.5t61 -17.5z" />
    <glyph glyph-name="E" unicode="E" horiz-adv-x="663" 
d="M27 0v40l35 7q25 6 32.5 17.5t7.5 54.5v455q0 43 -7.5 54.5t-32.5 17.5l-35 8v39h572l11 -200h-44q-29 67 -57 106q-22 29 -44.5 34.5t-83.5 5.5q-59 0 -100 -9v-243h19q55 0 74.5 5.5t30.5 23.5q23 39 30 68h44v-253h-44q-6 24 -30 72q-10 19 -28 24t-77 5h-19v-188
q0 -67 14 -78.5t95 -11.5q65 0 87 8t47 41q26 35 67 133h44l-15 -236h-593z" />
    <glyph glyph-name="F" unicode="F" horiz-adv-x="634" 
d="M27 0v40l35 7q25 6 32.5 17.5t7.5 54.5v455q0 43 -7.5 54.5t-32.5 17.5l-35 8v39h566l10 -206h-43q-31 74 -59 111q-23 28 -44.5 35t-81.5 7q-56 0 -94 -9v-255h9q58 0 78 6t30 23q21 31 34 76h41v-270h-41q-13 46 -34 80q-11 20 -28.5 25t-79.5 5h-9v-202q0 -44 7 -55
t35 -16l47 -8v-40h-343z" />
    <glyph glyph-name="G" unicode="G" horiz-adv-x="725" 
d="M403 -12q-179 0 -273 90.5t-94 264.5q0 95 31 166.5t85.5 113t123 62t149.5 20.5q115 0 195 -23l13 -209h-45q-28 62 -77 133q-19 28 -37.5 36.5t-66.5 8.5q-97 0 -140.5 -66.5t-43.5 -223.5q0 -181 38 -250t137 -69q49 0 84 19v139q0 43 -7 54t-33 17l-37 9v39h308v-39
l-27 -7q-22 -6 -27.5 -17.5t-5.5 -55.5v-171q-47 -17 -117.5 -29t-132.5 -12z" />
    <glyph glyph-name="H" unicode="H" horiz-adv-x="804" 
d="M27 0v40l35 7q25 6 32.5 17.5t7.5 54.5v455q0 43 -7.5 54.5t-32.5 17.5l-35 8v39h330v-39l-35 -8q-27 -7 -34 -18t-7 -54v-191h240v191q0 43 -6.5 54t-32.5 18l-35 8v39h330v-39l-36 -8q-26 -6 -33.5 -17.5t-7.5 -54.5v-455q0 -43 7.5 -54.5t33.5 -17.5l36 -7v-40h-330
v40l35 7q25 6 32 17.5t7 54.5v207h-240v-207q0 -43 7 -54.5t34 -17.5l35 -7v-40h-330z" />
    <glyph glyph-name="I" unicode="I" horiz-adv-x="390" 
d="M27 0v40l38 7q25 6 32.5 17.5t7.5 54.5v455q0 44 -7 55t-33 17l-38 8v39h338v-39l-40 -8q-26 -6 -33 -17t-7 -55v-455q0 -43 7 -55t33 -17l40 -7v-40h-338z" />
    <glyph glyph-name="J" unicode="J" horiz-adv-x="378" 
d="M31 -195q-74 0 -114 29t-40 73q0 32 19.5 50.5t53.5 18.5q40 0 58.5 -20.5t28.5 -76.5q3 -16 7.5 -21.5t14.5 -5.5q23 0 33 16t10 60v646q0 44 -7 55t-33 17l-38 8v39h334v-39l-36 -8q-27 -6 -34 -17.5t-7 -54.5v-522q0 -111 -66 -179t-184 -68z" />
    <glyph glyph-name="K" unicode="K" horiz-adv-x="749" 
d="M513 0q-121 157 -205 330v17l156 176q52 56 52 89q0 11 -10.5 20.5t-25.5 13.5l-31 8v39h258v-39l-12 -4q-28 -7 -48 -23t-65 -64l-137 -147q95 -184 217 -343q17 -19 34 -24l43 -9v-40h-226zM27 0v40l35 7q25 6 32.5 17.5t7.5 54.5v455q0 43 -7.5 54.5t-32.5 17.5l-35 8
v39h330v-39l-35 -8q-27 -7 -34 -17.5t-7 -54.5v-455q0 -43 7 -54.5t34 -17.5l35 -7v-40h-330z" />
    <glyph glyph-name="L" unicode="L" horiz-adv-x="640" 
d="M27 0v40l35 7q25 6 32.5 17.5t7.5 54.5v455q0 43 -7.5 54.5t-32.5 17.5l-35 8v39h337v-39l-42 -9q-27 -5 -34 -16t-7 -55v-429q0 -65 13.5 -78.5t79.5 -13.5q60 0 85 11.5t48 47.5q3 4 10.5 15.5t11 18l10.5 19l12.5 23t12.5 26.5t13 33h45l-17 -247h-578z" />
    <glyph glyph-name="M" unicode="M" horiz-adv-x="915" 
d="M27 0v40l31 7q27 6 35.5 19.5t8.5 62.5v445q0 43 -7.5 54.5t-32.5 17.5l-35 8v39h292l143 -437h3l144 437h279v-39l-36 -8q-25 -7 -32 -18t-7 -54v-455q0 -43 7 -54.5t32 -17.5l36 -7v-40h-322v40l35 7q25 6 32 17.5t7 54.5v494h-4l-188 -598h-74l-203 598h-4v-479
q0 -54 8 -67.5t39 -19.5l31 -7v-40h-218z" />
    <glyph glyph-name="N" unicode="N" horiz-adv-x="740" 
d="M558 -2l-387 577h-4v-441q0 -54 8 -67.5t41 -19.5l36 -7v-40h-225v40l31 7q27 6 35.5 19.5t8.5 62.5v445q0 43 -7.5 54.5t-32.5 17.5l-35 8v39h274l270 -407h4v274q0 53 -7.5 66t-40.5 20l-41 8v39h229v-39l-30 -7q-28 -7 -36.5 -20t-8.5 -63v-566h-82z" />
    <glyph glyph-name="O" unicode="O" horiz-adv-x="763" 
d="M378 -12q-93 0 -168.5 36.5t-124.5 117.5t-49 196q0 94 31 167.5t82 115.5t111 63t125 21q145 0 243.5 -89t98.5 -263q0 -95 -31 -168t-82.5 -114.5t-111 -62t-124.5 -20.5zM383 42q57 0 89.5 23.5t50 87.5t17.5 179q0 173 -36 246t-125 73q-55 0 -87.5 -23.5
t-50.5 -88.5t-18 -180q0 -172 35.5 -244.5t124.5 -72.5z" />
    <glyph glyph-name="P" unicode="P" horiz-adv-x="673" 
d="M27 0v40l35 7q25 6 32.5 17.5t7.5 54.5v455q0 43 -6.5 54.5t-28.5 16.5l-40 9v39h333q285 0 285 -210q0 -90 -61 -155.5t-156 -65.5q-48 0 -85 17v38q66 0 92.5 32.5t26.5 126.5q0 92 -25 128t-88 36q-48 0 -68 -8v-513q0 -43 7 -54t35 -16l46 -9v-40h-342z" />
    <glyph glyph-name="Q" unicode="Q" horiz-adv-x="763" 
d="M618 -173q-58 0 -102 14.5t-96 48.5q-58 38 -144 115q-109 28 -174.5 112.5t-65.5 220.5q0 94 31 167.5t82 115.5t111 63t125 21q145 0 243.5 -89t98.5 -263q0 -143 -65 -225t-173 -112v-3q48 -41 95 -71q67 -40 126 -40q32 0 85 21v-33q-65 -63 -177 -63zM383 40
q85 0 121 61.5t36 230.5q0 173 -36 246.5t-125 73.5q-55 0 -87.5 -24t-50.5 -89t-18 -180q0 -173 35.5 -246t124.5 -73z" />
    <glyph glyph-name="R" unicode="R" horiz-adv-x="735" 
d="M27 0v40l35 7q25 6 32.5 17.5t7.5 54.5v455q0 43 -7.5 54.5t-32.5 17.5l-35 8v39h333q148 0 216 -45.5t68 -137.5q0 -130 -140 -170v-4q76 -152 158 -266q3 -4 5.5 -6.5t4.5 -4t7.5 -3.5t7.5 -3t11 -4t14 -4l19 -5v-40h-218q-88 115 -165 295q-4 0 -36 0.5t-34 0.5v-177
q0 -42 8 -54t33 -18l37 -7v-40h-329zM330 348q70 0 101 33.5t31 115.5q0 85 -23.5 114t-86.5 29q-44 0 -74 -7v-281q20 -4 52 -4z" />
    <glyph glyph-name="S" unicode="S" horiz-adv-x="558" 
d="M256 -12q-114 0 -210 30l-12 194h43q42 -80 74 -120q41 -51 111 -51q54 0 89 29.5t35 70.5q0 43 -33 73.5t-122 64.5q-107 40 -149 90.5t-42 128.5q0 91 69.5 149t182.5 58q117 0 179 -20l12 -174h-43q-39 75 -68 107q-31 34 -91 34q-51 0 -83 -27t-32 -68
q0 -37 27.5 -61t112.5 -57q119 -45 168.5 -95t49.5 -124q0 -100 -71.5 -166t-196.5 -66z" />
    <glyph glyph-name="T" unicode="T" horiz-adv-x="668" 
d="M163 0v40l39 7q29 6 36 17t7 55v521q-50 0 -71 -8t-41 -36q-9 -12 -17.5 -28t-14 -28.5l-17 -40l-18.5 -44.5h-45l10 238h606l10 -238h-45q-4 9 -12.5 30.5l-11.5 29t-9.5 22.5t-10.5 23t-10 18t-12 18q-22 30 -41 37t-71 7v-521q0 -44 6.5 -55t35.5 -17l39 -7v-40h-342z
" />
    <glyph glyph-name="U" unicode="U" horiz-adv-x="739" 
d="M390 -12q-295 0 -295 235v351q0 43 -7.5 54.5t-32.5 17.5l-37 8v39h331v-39l-34 -8q-27 -6 -34 -17t-7 -55v-371q0 -77 35 -109t123 -32q149 0 149 155v343q0 53 -8 66t-41 20l-42 8v39h229v-39l-30 -7q-27 -7 -35.5 -20t-8.5 -63v-355q0 -98 -64 -159.5t-191 -61.5z" />
    <glyph glyph-name="V" unicode="V" horiz-adv-x="713" 
d="M315 0l-211 549q-22 55 -34 74t-36 25l-23 6v39h329v-39l-30 -7q-34 -10 -34 -39q0 -18 18 -74l124 -351h5l115 351q15 45 15 70q0 18 -8.5 28t-29.5 15l-33 7v39h223v-39l-27 -8q-21 -6 -32 -24.5t-32 -76.5l-194 -545h-105z" />
    <glyph glyph-name="W" unicode="W" horiz-adv-x="1059" 
d="M284 0l-181 558q-20 52 -31 68.5t-32 21.5l-26 6v39h324v-39l-28 -7q-33 -8 -33 -38q0 -22 17 -75l103 -344h5l107 298l-26 83q-14 39 -26 54.5t-35 21.5l-22 7v39h318v-39l-36 -8q-34 -5 -34 -40q0 -25 15 -72l112 -344h5l99 345q13 48 13 71q0 34 -36 41l-33 7v39h222
v-39l-25 -6q-24 -6 -38 -29t-33 -84l-169 -535h-111l-123 397h-6l-139 -397h-117z" />
    <glyph glyph-name="X" unicode="X" horiz-adv-x="750" 
d="M25 0v40l20 4q26 7 45 24t52 64l139 204l-154 239q-23 36 -36.5 49.5t-37.5 22.5l-23 7v39h355v-39l-37 -8q-31 -7 -31 -31q0 -17 30 -66l83 -131h3l79 135q24 40 24 63q0 24 -35 31l-32 7v39h234v-39l-26 -7q-21 -5 -36.5 -21.5t-50.5 -67.5l-120 -189l161 -248
q28 -43 41.5 -57t33.5 -19l19 -5v-40h-349v40l36 6q33 4 33 31q0 11 -31 66l-93 147h-3l-92 -143q-29 -50 -29 -69q0 -26 30 -32l32 -6v-40h-234z" />
    <glyph glyph-name="Y" unicode="Y" horiz-adv-x="685" 
d="M178 0v40l39 7q27 6 34 17t7 55v165l-151 277q-27 47 -42 63.5t-36 22.5l-21 7v39h342v-39l-28 -7q-40 -8 -40 -40q0 -11 22 -57l93 -192h5l95 185q19 42 19 65q0 28 -38 39l-29 7v39h229v-39l-20 -7q-24 -8 -43 -29t-43 -68l-135 -260v-171q0 -44 7 -55t35 -17l40 -7
v-40h-341z" />
    <glyph glyph-name="Z" unicode="Z" horiz-adv-x="611" 
d="M21 0v56l359 584v4h-41q-105 0 -136.5 -7.5t-53.5 -37.5q-38 -53 -74 -129h-40l12 223h520v-55l-357 -583v-4h34q111 0 145.5 8.5t60.5 42.5q39 52 77 141h41l-16 -243h-531z" />
    <glyph glyph-name="bracketleft" unicode="[" horiz-adv-x="384" 
d="M99 -130v864h253v-39l-72 -8q-38 -5 -48 -17t-10 -57v-622q0 -45 10 -57t48 -17l72 -8v-39h-253z" />
    <glyph glyph-name="backslash" unicode="\" horiz-adv-x="411" 
d="M335 -130l-312 864h69l313 -864h-70z" />
    <glyph glyph-name="bracketright" unicode="]" horiz-adv-x="384" 
d="M285 734v-864h-253v39l70 8q39 5 49.5 17t10.5 57v622q0 45 -10.5 57t-49.5 17l-70 8v39h253z" />
    <glyph glyph-name="asciicircum" unicode="^" horiz-adv-x="442" 
d="M67 441l-23 23l151 233h51l152 -233l-23 -23l-155 127z" />
    <glyph glyph-name="underscore" unicode="_" horiz-adv-x="362" 
d="M-3 -176v68h368v-68h-368z" />
    <glyph glyph-name="grave" unicode="`" horiz-adv-x="511" 
d="M364 590l-188 49q-23 6 -34.5 21.5t-11.5 33.5q0 23 15.5 41t37.5 18q24 0 54 -23l140 -112z" />
    <glyph glyph-name="a" unicode="a" horiz-adv-x="561" 
d="M180 -12q-72 0 -113.5 35.5t-41.5 98.5q0 66 46.5 105t164.5 67l81 18v75q0 60 -15.5 79t-61.5 19q-23 0 -30.5 -7t-9.5 -30q-4 -47 -23.5 -68t-59.5 -21q-68 0 -68 63q0 50 61 80.5t164 30.5q201 0 201 -137v-267q0 -28 5 -41t20 -20q13 -8 48 -10v-36q-49 -34 -118 -34
q-87 0 -105 61h-5q-48 -61 -140 -61zM251 65q48 0 66 30v157l-50 -5q-47 -3 -67.5 -26t-20.5 -76q0 -45 19 -62.5t53 -17.5z" />
    <glyph glyph-name="b" unicode="b" horiz-adv-x="635" 
d="M299 -12q-141 0 -230 55v584q0 34 -5 44.5t-26 21.5l-39 19v35l222 19l14 -10q-8 -44 -8 -115v-79q0 -24 -1.5 -48t-3.5 -36l-1 -12h5q82 66 176 66q39 0 73 -13t64 -40.5t47.5 -76.5t17.5 -115q0 -149 -83.5 -224t-221.5 -75zM311 40q68 0 99 45t31 168q0 189 -115 189
q-58 0 -99 -23v-346q33 -33 84 -33z" />
    <glyph glyph-name="c" unicode="c" horiz-adv-x="524" 
d="M285 -12q-122 0 -189 71.5t-67 195.5q0 75 28 131t74.5 87t99 45.5t108.5 14.5q77 0 119.5 -24t42.5 -69q0 -32 -20 -56t-51 -24q-65 0 -72 76q-4 29 -12.5 37t-33.5 8q-124 0 -124 -181q0 -223 169 -223q65 0 143 39v-45q-27 -32 -83.5 -57.5t-131.5 -25.5z" />
    <glyph glyph-name="d" unicode="d" horiz-adv-x="649" 
d="M235 -12q-84 0 -143 63t-59 191q0 146 83.5 218t213.5 72q49 0 84 -10q-5 36 -5 72v33q0 33 -5.5 42.5t-26.5 20.5l-42 22v35l225 19l14 -10q-7 -44 -7 -115v-510q0 -37 5 -47t28 -19l30 -13v-35l-208 -29l-10 8l4 56h-4q-78 -64 -177 -64zM319 78q43 0 89 23v338
q-35 41 -82 41q-63 0 -96.5 -47.5t-33.5 -159.5q0 -107 30 -151t93 -44z" />
    <glyph glyph-name="e" unicode="e" horiz-adv-x="556" 
d="M295 -12q-131 0 -198.5 72t-67.5 202q0 123 79.5 197t186.5 74q111 0 170.5 -62t61.5 -199h-341q5 -106 48.5 -150.5t124.5 -44.5q73 0 153 38v-45q-31 -33 -88.5 -57.5t-128.5 -24.5zM288 483q-95 0 -102 -161l182 9q0 90 -16 121t-64 31z" />
    <glyph glyph-name="f" unicode="f" horiz-adv-x="374" 
d="M20 0v39l29 7q25 7 31 16t6 41v345h-73v37l73 34v39q0 99 68.5 156t186.5 57q127 0 127 -83q0 -26 -16.5 -42.5t-44.5 -16.5q-72 0 -77 67q-1 19 -5 24t-15 5q-66 0 -66 -98v-108h121l-18 -71h-103v-343q0 -35 5.5 -44.5t28.5 -13.5l41 -8v-39h-299z" />
    <glyph glyph-name="g" unicode="g" horiz-adv-x="563" 
d="M229 -229q-112 0 -173.5 30t-61.5 85q0 73 122 114v4q-35 7 -58.5 31t-23.5 61q0 66 83 121v4q-37 17 -61.5 53t-24.5 80q0 82 64.5 130t158.5 48q69 0 126 -19q73 69 139 69q28 0 44.5 -14t16.5 -41q0 -26 -12.5 -44t-37.5 -18q-22 0 -33 8.5t-21 25.5q-7 9 -25.5 4.5
t-39.5 -18.5v-4q69 -35 69 -114q0 -83 -65 -130t-161 -47q-56 0 -94 17q-26 -18 -26 -48q0 -39 54 -39h174q169 0 169 -136q0 -88 -76.5 -150.5t-225.5 -62.5zM254 239q41 0 59.5 26.5t18.5 91.5q0 70 -19 98.5t-59 28.5q-39 0 -57 -27.5t-18 -92.5q0 -69 18.5 -97t56.5 -28
zM251 -177q86 0 130.5 29.5t44.5 72.5q0 34 -19.5 50.5t-67.5 16.5h-166q-20 -10 -39 -34t-19 -55q0 -80 136 -80z" />
    <glyph glyph-name="h" unicode="h" horiz-adv-x="652" 
d="M20 0v39l29 7q25 7 31 16t6 41v524q0 35 -5.5 45t-27.5 21l-38 19v35l223 19l14 -10q-8 -48 -8 -115v-79l-6 -98h4q101 68 197 68q136 0 136 -133v-296q0 -32 6.5 -41.5t30.5 -15.5l27 -7v-39h-282v39l27 6q22 6 27 14.5t5 43.5v251q0 46 -17 65t-56 19t-99 -19v-316
q0 -35 5 -43.5t27 -14.5l27 -6v-39h-283z" />
    <glyph glyph-name="i" unicode="i" horiz-adv-x="326" 
d="M161 594q-41 0 -68.5 25t-27.5 62q0 38 27.5 62.5t68.5 24.5q39 0 66 -24.5t27 -62.5q0 -37 -27.5 -62t-65.5 -25zM20 0v39l29 7q25 7 31 16t6 41v288q0 30 -5.5 39.5t-28.5 24.5l-35 22v32l221 23l14 -9q0 -1 -4 -48t-4 -95v-277q0 -33 6 -42t30 -15l29 -7v-39h-289z
" />
    <glyph glyph-name="j" unicode="j" horiz-adv-x="314" 
d="M160 594q-40 0 -67.5 25t-27.5 62q0 38 27 62.5t68 24.5q39 0 66 -24.5t27 -62.5q0 -37 -27 -62t-66 -25zM24 -226q-64 0 -100 27t-36 67q0 30 18 46t51 16q35 0 51 -17.5t20 -63.5q2 -17 6.5 -22.5t12.5 -5.5q19 0 29 15t10 38v517q0 30 -5.5 39.5t-28.5 24.5l-35 22v32
l221 23l14 -9q0 -9 -2.5 -30t-4 -52t-1.5 -69v-380q0 -104 -61 -161t-159 -57z" />
    <glyph glyph-name="k" unicode="k" horiz-adv-x="621" 
d="M20 0v39l29 7q25 7 31 16t6 41v524q0 35 -5.5 45t-27.5 21l-38 19v35l223 19l14 -10q-8 -48 -8 -115v-538q0 -34 5 -43t26 -15l26 -6v-39h-281zM421 0q-76 96 -162 246v24l101 102q50 54 50 74q0 23 -33 31l-16 4v38h228v-39l-23 -6q-23 -6 -43.5 -18.5t-52.5 -43.5
l-88 -87q107 -182 164 -250q15 -21 37 -28l25 -8v-39h-187z" />
    <glyph glyph-name="l" unicode="l" horiz-adv-x="330" 
d="M20 0v39l29 7q26 7 32.5 16t6.5 41v524q0 35 -5.5 45t-29.5 21l-38 19v35l224 19l15 -10q-8 -48 -8 -115v-538q0 -33 5.5 -41.5t31.5 -15.5l29 -7v-39h-292z" />
    <glyph glyph-name="m" unicode="m" horiz-adv-x="963" 
d="M20 0v39l29 7q25 7 31 16t6 41v288q0 30 -5.5 39.5t-28.5 24.5l-35 22v32l211 23l14 -10l-7 -60h5q102 70 191 70q91 0 123 -71h4q107 71 194 71q128 0 128 -134v-295q0 -32 6 -41.5t30 -15.5l29 -7v-39h-281v39l26 6q22 6 27 14.5t5 43.5v251q0 45 -15 64.5t-51 19.5
t-93 -20q0 -3 -0.5 -10.5t-0.5 -15.5v-289q0 -33 5 -42.5t25 -15.5l26 -6v-39h-272v39l26 6q22 6 27 15t5 43v251q0 45 -15 64.5t-51 19.5q-42 0 -94 -19v-316q0 -35 5 -43.5t25 -14.5l26 -6v-39h-280z" />
    <glyph glyph-name="n" unicode="n" horiz-adv-x="658" 
d="M20 0v39l29 7q25 7 31 16t6 41v288q0 30 -5.5 39.5t-28.5 24.5l-35 22v32l211 23l14 -9l-7 -61h5q102 70 199 70q136 0 136 -133v-296q0 -32 6.5 -41.5t30.5 -15.5l27 -7v-39h-282v39l27 6q22 6 27 14.5t5 43.5v251q0 46 -17 65t-56 19t-99 -19v-316q0 -35 5 -43.5
t27 -14.5l27 -6v-39h-283z" />
    <glyph glyph-name="o" unicode="o" horiz-adv-x="612" 
d="M307 -12q-120 0 -199 70t-79 201q0 91 41 154.5t102.5 91.5t134.5 28q118 0 197 -69.5t79 -200.5q0 -134 -80.5 -204.5t-195.5 -70.5zM310 39q53 0 79.5 46t26.5 174q0 90 -14 140t-37 66t-63 16q-54 0 -80 -45.5t-26 -166.5q0 -135 26 -182.5t88 -47.5z" />
    <glyph glyph-name="p" unicode="p" horiz-adv-x="652" 
d="M20 -219v38l29 8q25 6 31 15t6 42v507q0 30 -5.5 39.5t-28.5 24.5l-35 22v32l211 23l14 -9l-6 -59h4q85 68 177 68q84 0 143 -59t59 -186q0 -149 -81 -224t-217 -75q-44 0 -82 10q5 -26 5 -61v-53q0 -34 5.5 -43t28.5 -14l38 -8v-38h-296zM327 40q68 0 99 45t31 168
q0 189 -127 189q-37 0 -86 -23v-343q33 -36 83 -36z" />
    <glyph glyph-name="q" unicode="q" horiz-adv-x="640" 
d="M335 -219v33l38 8q24 5 29.5 14t5.5 43v95q0 20 2 39.5t4 28.5l2 10h-4q-78 -64 -177 -64q-84 0 -143 63t-59 191q0 146 83.5 218t213.5 72q90 0 160 -41h6l44 42l27 -7v-647q0 -33 5.5 -42t29.5 -15l29 -8v-33h-296zM319 73q12 0 24 2t22 5t17 6t15.5 7l10.5 5v346
q-36 36 -82 36q-63 0 -96.5 -47.5t-33.5 -159.5q0 -108 30 -154t93 -46z" />
    <glyph glyph-name="r" unicode="r" horiz-adv-x="487" 
d="M20 0v39l29 7q25 7 31 16t6 41v288q0 30 -5.5 39.5t-28.5 24.5l-35 22v32l211 23l14 -10l-7 -66h5q27 29 70 52.5t84 23.5q36 0 56.5 -19.5t20.5 -54.5t-18.5 -55.5t-50.5 -20.5q-34 0 -48.5 8t-30.5 33q-9 14 -27 14q-20 0 -52 -30v-304q0 -35 5.5 -44t27.5 -13l36 -7
v-39h-293z" />
    <glyph glyph-name="s" unicode="s" horiz-adv-x="459" 
d="M202 -12q-84 0 -162 19l-9 153h40q29 -54 58 -87q32 -34 92 -34q87 0 87 66q0 33 -26.5 52t-98.5 46q-74 27 -111.5 65t-37.5 97q0 74 57.5 121t158.5 47q90 0 141 -18l5 -136h-37q-24 39 -58 78q-25 25 -68 25q-83 0 -83 -66q0 -25 24 -43t88 -41q90 -32 130 -70t40 -96
q0 -80 -61 -129t-169 -49z" />
    <glyph glyph-name="t" unicode="t" horiz-adv-x="388" 
d="M215 -12q-142 0 -142 136v324h-65v36q109 37 155 171h69v-136h140l-17 -71h-123v-310q0 -37 15 -53t53 -16q24 0 74 11v-40q-48 -52 -159 -52z" />
    <glyph glyph-name="u" unicode="u" horiz-adv-x="656" 
d="M219 -12q-63 0 -99 34t-36 99v275q0 31 -4.5 40t-27.5 22l-37 20v32l210 22l17 -11v-360q0 -43 17 -62t54 -19t102 25v291q0 31 -5 40.5t-28 21.5l-35 20v32l210 22l16 -11v-390q0 -37 5.5 -47t28.5 -19l29 -13v-35l-205 -29l-14 10l6 65h-4q-106 -75 -200 -75z" />
    <glyph glyph-name="v" unicode="v" horiz-adv-x="580" 
d="M252 0l-167 396q-19 43 -30 57.5t-32 20.5l-19 6v39h298v-39l-27 -7q-18 -5 -25.5 -13.5t-7.5 -26.5q0 -10 15 -53l84 -228h5l79 228q12 36 12 55q0 31 -31 38l-28 7v39h201v-39l-20 -6q-20 -6 -31.5 -22t-31.5 -66l-152 -386h-92z" />
    <glyph glyph-name="w" unicode="w" horiz-adv-x="877" 
d="M233 0l-147 396q-16 43 -28 57.5t-33 20.5l-20 6v39h280v-39l-22 -6q-27 -6 -27 -31q0 -10 17 -63l73 -223h7l79 220l-6 19q-13 40 -25 56.5t-29 21.5l-20 6v39h278v-39l-29 -7q-28 -7 -28 -38q0 -21 12 -55l76 -223h6l71 223q12 37 12 56q0 30 -30 37l-29 7v39h201v-39
l-20 -6q-21 -6 -33 -23t-30 -65l-143 -386h-97l-105 302h-3l-111 -302h-97z" />
    <glyph glyph-name="x" unicode="x" horiz-adv-x="617" 
d="M22 0v39l24 5q26 6 45 22t45 53l94 138l-112 147q-29 40 -45 53t-37 19l-16 4v39h305v-39l-23 -4q-30 -7 -30 -28q0 -13 26 -48l60 -80h3l41 66q26 47 26 60q0 22 -30 29l-25 5v39h215v-39l-22 -5q-41 -11 -91 -80l-85 -116l124 -164q32 -42 45 -54.5t37 -18.5l14 -3v-39
h-304v39l23 4q28 6 28 27q0 5 -3 11t-6 11t-10.5 16l-11.5 17l-63 91h-3l-45 -81q-30 -49 -30 -63q0 -23 36 -29l19 -4v-39h-218z" />
    <glyph glyph-name="y" unicode="y" horiz-adv-x="589" 
d="M132 -222q-49 0 -76.5 22.5t-27.5 57.5q0 29 16 47t44 18q30 0 44.5 -11.5t24.5 -37.5q9 -23 17 -23q38 0 81 96l16 38l-190 411q-23 48 -32 60.5t-26 17.5l-19 6v39h296v-39l-27 -7q-33 -8 -33 -38q0 -23 16 -55l93 -215h4l83 215q11 29 11 59q0 27 -31 34l-29 7v39h205
v-39l-23 -7q-19 -6 -28.5 -20.5t-31.5 -66.5l-194 -449q-36 -83 -78.5 -121t-104.5 -38z" />
    <glyph glyph-name="z" unicode="z" horiz-adv-x="517" 
d="M21 0v51l299 413v4h-44q-58 0 -81 -6t-40 -25q-20 -24 -68 -107h-38l10 189h435v-49l-299 -415v-4h45q70 0 97 8.5t47 32.5q32 39 66 103h41l-17 -195h-453z" />
    <glyph glyph-name="braceleft" unicode="{" horiz-adv-x="395" 
d="M356 -129q-75 4 -124.5 14t-76 26.5t-36.5 36.5t-10 48t26.5 119.5t26.5 109.5q0 24 -25 37.5t-92 16.5v50q117 5 117 55q0 18 -26.5 108.5t-26.5 118.5q0 57 51 87t196 38v-42q-71 -10 -91.5 -24.5t-20.5 -52.5q0 -35 10.5 -105.5t10.5 -95.5q0 -45 -33.5 -71.5
t-111.5 -38.5v-4q76 -10 110.5 -37t34.5 -72q0 -25 -10.5 -97t-10.5 -107q0 -38 20.5 -52.5t91.5 -24.5v-41z" />
    <glyph glyph-name="bar" unicode="|" horiz-adv-x="259" 
d="M96 -130v864h67v-864h-67z" />
    <glyph glyph-name="braceright" unicode="}" horiz-adv-x="395" 
d="M46 736q145 -8 196 -38t51 -87q0 -28 -26.5 -118t-26.5 -108q0 -51 117 -56v-50q-68 -3 -92.5 -15.5t-24.5 -36.5q0 -18 26.5 -110.5t26.5 -120.5t-10 -48t-36.5 -36.5t-76 -26.5t-124.5 -14v41q71 10 91.5 24.5t20.5 52.5q0 35 -10 108t-10 98q0 47 31 72.5t113 34.5v4
q-144 28 -144 112q0 25 10 94.5t10 104.5q0 38 -20.5 52.5t-91.5 24.5v42z" />
    <glyph glyph-name="asciitilde" unicode="~" horiz-adv-x="413" 
d="M72 227l-34 16q25 62 46 90t53 28q25 0 79 -17.5t71 -17.5q29 0 57 46l35 -16q-18 -44 -28.5 -64.5t-29 -37t-42.5 -16.5q-25 0 -79 17.5t-72 17.5q-28 0 -56 -46z" />
    <glyph glyph-name="uni00A0" unicode="&#xa0;" horiz-adv-x="273" 
 />
    <glyph glyph-name="exclamdown" unicode="&#xa1;" horiz-adv-x="317" 
d="M180 369l69 -332q17 -63 -10.5 -96.5t-80.5 -33.5q-52 0 -79.5 33.5t-10.5 96.5l69 332h43zM159 618q40 0 67 -27t27 -65q0 -39 -27.5 -66.5t-66.5 -27.5q-40 0 -68 27.5t-28 66.5q0 38 28 65t68 27z" />
    <glyph glyph-name="cent" unicode="&#xa2;" horiz-adv-x="525" 
d="M286 -12q-120 0 -188.5 69t-68.5 189q0 125 73.5 195t184.5 87v80h56v-75h9q81 0 126.5 -24.5t45.5 -69.5q0 -33 -18 -57.5t-50 -24.5q-34 0 -46.5 16.5t-16.5 54.5q-3 26 -14 38t-36 14v-405h4q75 0 159 41v-45q-58 -62 -163 -78v-151h-56v146h-1zM186 290
q0 -175 101 -207v393q-101 -25 -101 -186z" />
    <glyph glyph-name="sterling" unicode="&#xa3;" horiz-adv-x="571" 
d="M43 331v57h60q-19 72 -19 111q0 92 70.5 149t193.5 57q94 0 144 -29.5t50 -79.5q0 -34 -20 -53t-51 -19q-39 0 -56.5 21.5t-27.5 68.5q-7 30 -14 37.5t-29 7.5q-42 0 -62.5 -26t-20.5 -92q0 -24 4 -83.5t5 -69.5h158v-57h-155v-11q0 -118 -136 -195v-5h282q32 0 47.5 14
t34.5 64h39l-21 -198h-493v91q59 36 85 68t26 83q0 27 -17 89h-77z" />
    <glyph glyph-name="yen" unicode="&#xa5;" horiz-adv-x="665" 
d="M69 298v57h161l-118 206q-27 46 -42 63t-35 23l-21 7v39h342v-39l-29 -6q-21 -5 -29 -14.5t-8 -26.5q0 -19 19 -57l83 -167h5l73 160q21 48 21 65q0 16 -9.5 24.5t-32.5 14.5l-21 7v39h218v-39l-20 -7q-24 -7 -39 -25.5t-41 -71.5l-99 -195h161v-57h-184v-89h184v-57
h-184v-33q0 -44 6.5 -55t33.5 -17l40 -7v-40h-327v40l39 7q29 6 36 17t7 55v33h-190v57h190v89h-190z" />
    <glyph glyph-name="brokenbar" unicode="&#xa6;" horiz-adv-x="259" 
d="M96 325v409h67v-409h-67zM96 -130v386h67v-386h-67z" />
    <glyph glyph-name="section" unicode="&#xa7;" horiz-adv-x="607" 
d="M275 -204q-81 0 -124.5 28t-43.5 72q0 62 62 62q33 0 49 -18t20 -57q3 -25 13.5 -34t40.5 -9q31 0 52.5 16.5t21.5 48.5q0 37 -27.5 64t-133.5 102q-98 69 -137 113t-39 102q0 57 32 97t91 72q-24 35 -24 78q0 74 55 121.5t147 47.5q81 0 124.5 -26t43.5 -69
q0 -25 -17.5 -42.5t-46.5 -17.5q-35 0 -50 17.5t-19 59.5q-2 19 -12 26.5t-38 7.5q-32 0 -53.5 -17.5t-21.5 -49.5q0 -36 26.5 -62.5t132.5 -101.5q106 -74 142 -117.5t36 -102.5q0 -53 -32 -96.5t-83 -72.5q16 -32 16 -68q0 -78 -57 -126t-146 -48zM435 72q38 24 38 68
q0 35 -28 64.5t-124 97.5q-114 82 -145 121q-40 -21 -40 -69q0 -35 28 -63t121 -95q116 -85 150 -124z" />
    <glyph glyph-name="dieresis" unicode="&#xa8;" horiz-adv-x="516" 
d="M144 598q-36 0 -61 23.5t-25 57.5t25 57.5t61 23.5t61 -23.5t25 -57.5t-25 -57.5t-61 -23.5zM373 598q-36 0 -61 23.5t-25 57.5t25 57.5t61 23.5q35 0 60 -23.5t25 -57.5t-25 -57.5t-60 -23.5z" />
    <glyph glyph-name="copyright" unicode="&#xa9;" horiz-adv-x="830" 
d="M414 -16q-156 0 -262 105t-106 255q0 149 106 253.5t262 104.5q155 0 262 -104.5t107 -253.5t-107 -254.5t-262 -105.5zM414 32q135 0 224 91t89 221t-89 220t-224 90q-136 0 -223.5 -90t-87.5 -220q0 -131 87.5 -221.5t223.5 -90.5zM417 151q-92 0 -145.5 50t-53.5 144
q0 101 58.5 152t150.5 51q63 0 119 -15l8 -117h-32q-27 49 -48 73q-17 21 -53 21q-83 0 -83 -151q0 -170 89 -170q35 0 58 25q16 19 43 81h32l-9 -122q-58 -22 -134 -22z" />
    <glyph glyph-name="ordfeminine" unicode="&#xaa;" horiz-adv-x="497" 
d="M164 234q-63 0 -97 30t-34 85q0 54 37.5 86t116.5 53l98 24v53q0 50 -16 72t-54 22q-31 0 -38 -34q-6 -40 -20 -56.5t-48 -16.5q-62 0 -62 55q0 42 53.5 68t140.5 26q177 0 177 -129v-215q0 -25 4 -35.5t16 -16.5q19 -8 45 -8v-33q-44 -28 -105 -28q-70 0 -84 54h-5
q-19 -22 -52.5 -39t-72.5 -17zM226 305q41 0 59 25v125l-50 -5q-37 -3 -55 -22t-18 -61q0 -62 64 -62z" />
    <glyph glyph-name="guillemotleft" unicode="&#xab;" horiz-adv-x="498" 
d="M407 45l-162 193v29l162 193h47l-83 -206l83 -209h-47zM195 45l-161 193v29l161 193h48l-83 -206l83 -209h-48z" />
    <glyph glyph-name="registered" unicode="&#xae;" horiz-adv-x="586" 
d="M291 187q-108 0 -181.5 74.5t-73.5 181.5q0 108 73.5 183t181.5 75q109 0 184 -75t75 -183q0 -106 -75 -181t-184 -75zM291 231q89 0 147 61.5t58 150.5q0 91 -57.5 152.5t-147.5 61.5q-89 0 -145 -61.5t-56 -152.5q0 -89 56 -150.5t145 -61.5zM170 323v28l15 3
q7 2 8.5 6t1.5 19v138q0 13 -1.5 16.5t-8.5 7.5l-14 4v28h123q108 0 108 -67q0 -47 -45 -63v-4q24 -48 38 -68q12 -13 23 -17l10 -3v-28h-82q-30 42 -54 98h-26v-42q0 -15 2 -19t11 -6l14 -3v-28h-123zM266 454q3 -1 21 -1q41 0 41 48q0 23 -8.5 31t-30.5 8q-17 0 -23 -2
v-84z" />
    <glyph glyph-name="macron" unicode="&#xaf;" horiz-adv-x="516" 
d="M110 622v79h296v-79h-296z" />
    <glyph glyph-name="degree" unicode="&#xb0;" horiz-adv-x="386" 
d="M193 412q-62 0 -105 44t-43 104q0 58 43 101.5t105 43.5t105 -43.5t43 -101.5q0 -60 -43 -104t-105 -44zM193 464q39 0 63.5 28t24.5 68q0 39 -24.5 66.5t-63.5 27.5t-63.5 -27.5t-24.5 -66.5q0 -40 24.5 -68t63.5 -28z" />
    <glyph glyph-name="plusminus" unicode="&#xb1;" horiz-adv-x="502" 
d="M46 0v68h410v-68h-410zM213 160v164h-167v68h167v164h77v-164h166v-68h-166v-164h-77z" />
    <glyph glyph-name="twosuperior" unicode="&#xb2;" horiz-adv-x="391" 
d="M23 261v59q84 60 141 121q72 70 72 148q0 42 -16 57t-46 15q-18 0 -24 -6.5t-9 -25.5q-5 -34 -18 -48.5t-43 -14.5q-24 0 -38.5 14t-14.5 35q0 36 44 61t116 25q81 0 126.5 -32t45.5 -94q0 -109 -231 -222v-3h139q23 0 32.5 9.5t23.5 44.5h34l-9 -143h-325z" />
    <glyph glyph-name="threesuperior" unicode="&#xb3;" horiz-adv-x="399" 
d="M173 253q-75 0 -113.5 21t-38.5 59q0 22 14 36.5t35 14.5q52 0 62 -61q5 -20 11.5 -25.5t28.5 -5.5q69 0 69 87q0 51 -21.5 67t-66.5 16h-31v48h27q43 0 62 17t19 62q0 73 -54 73q-18 0 -24.5 -5.5t-8.5 -22.5q-4 -28 -16 -41t-40 -13q-22 0 -35.5 12t-13.5 33
q0 35 41.5 55.5t109.5 20.5q75 0 117 -26.5t42 -76.5q0 -37 -30 -65.5t-89 -38.5v-2q137 -11 137 -112q0 -59 -46.5 -93t-146.5 -34z" />
    <glyph glyph-name="acute" unicode="&#xb4;" horiz-adv-x="516" 
d="M149 590l-12 28l140 112q30 23 53 23t38 -18t15 -41q0 -44 -45 -55z" />
    <glyph glyph-name="paragraph" unicode="&#xb6;" horiz-adv-x="603" 
d="M264 -100v433q-16 -2 -43 -2q-95 0 -144 51t-49 134q0 79 52.5 128t149.5 49h348v-39l-36 -8q-25 -6 -33 -17.5t-8 -54.5v-674h-65v740h-105v-740h-67z" />
    <glyph glyph-name="periodcentered" unicode="&#xb7;" horiz-adv-x="367" 
d="M181 246q-41 0 -69.5 28t-28.5 68q0 39 29 67.5t69 28.5q41 0 69.5 -28t28.5 -68t-28 -68t-70 -28z" />
    <glyph glyph-name="cedilla" unicode="&#xb8;" horiz-adv-x="516" 
d="M145 -260v33q118 27 118 73q0 34 -74 38l-9 10l53 106h55l-41 -55q56 -4 84 -25.5t28 -53.5q0 -45 -55.5 -80t-158.5 -46z" />
    <glyph glyph-name="onesuperior" unicode="&#xb9;" horiz-adv-x="299" 
d="M25 261v35l27 5q22 5 27 12t5 37v225l-59 6v37q103 18 164 87l27 -8v-347q0 -29 6.5 -38t26.5 -11l25 -5v-35h-249z" />
    <glyph glyph-name="ordmasculine" unicode="&#xba;" horiz-adv-x="547" 
d="M271 237q-100 0 -168 59.5t-68 170.5q0 114 70.5 174t167.5 60q102 0 170.5 -57.5t68.5 -170.5q0 -112 -71.5 -174t-169.5 -62zM272 286q50 0 74.5 39.5t24.5 138.5q0 107 -23.5 148t-74.5 41q-50 0 -73.5 -40t-23.5 -133q0 -112 21 -153t75 -41z" />
    <glyph glyph-name="guillemotright" unicode="&#xbb;" horiz-adv-x="506" 
d="M91 461l162 -193v-29l-162 -193h-47l83 208l-83 207h47zM311 461l160 -193v-29l-160 -193h-48l82 208l-82 207h48z" />
    <glyph glyph-name="onequarter" unicode="&#xbc;" horiz-adv-x="856" 
d="M601 -104v35l23 5q15 4 20.5 7.5t8.5 12.5t3 29v8h-210v46l256 289h64v-278h69l-7 -57h-62v-8q0 -29 5.5 -37t24.5 -12l23 -5v-35h-218zM516 50h140v161h-5l-135 -157v-4zM25 261v35l27 5q22 5 27 12t5 37v225l-59 6v37q103 18 164 87l27 -8v-347q0 -29 6.5 -38t26.5 -11
l25 -5v-35h-249zM168 -50l503 764h76l-504 -764h-75z" />
    <glyph glyph-name="onehalf" unicode="&#xbd;" horiz-adv-x="864" 
d="M488 -104v59q88 64 141 121q72 70 72 148q0 42 -16 57.5t-46 15.5q-18 0 -24 -7t-9 -26q-5 -34 -18 -48.5t-43 -14.5q-24 0 -38.5 14t-14.5 35q0 36 44 61t116 25q80 0 126 -32t46 -93q0 -110 -231 -223v-3h139q23 0 32.5 9.5t23.5 45.5h34l-9 -144h-325zM25 261v35l27 5
q22 5 27 12t5 37v225l-59 6v37q103 18 164 87l27 -8v-347q0 -29 6.5 -38t26.5 -11l25 -5v-35h-249zM144 -50l503 764h76l-504 -764h-75z" />
    <glyph glyph-name="threequarters" unicode="&#xbe;" horiz-adv-x="874" 
d="M173 253q-75 0 -113.5 21t-38.5 59q0 22 14 36.5t35 14.5q52 0 62 -61q5 -20 11.5 -25.5t28.5 -5.5q69 0 69 87q0 51 -21.5 67t-66.5 16h-31v48h27q43 0 62 17t19 62q0 73 -54 73q-18 0 -24.5 -5.5t-8.5 -22.5q-4 -28 -16 -41t-40 -13q-22 0 -35.5 12t-13.5 33
q0 35 41.5 55.5t109.5 20.5q75 0 117 -26.5t42 -76.5q0 -37 -30 -65.5t-89 -38.5v-2q137 -11 137 -112q0 -59 -46.5 -93t-146.5 -34zM619 -104v35l23 5q15 4 20.5 7.5t8.5 12.5t3 29v8h-210v46l256 289h64v-278h69l-7 -57h-62v-8q0 -29 5.5 -37t24.5 -12l23 -5v-35h-218z
M534 50h140v161h-5l-135 -157v-4zM200 -50l503 764h76l-504 -764h-75z" />
    <glyph glyph-name="questiondown" unicode="&#xbf;" horiz-adv-x="502" 
d="M338 377v-162q-155 -38 -155 -155q0 -45 27 -73.5t63 -28.5q21 0 28.5 8t11.5 35q6 43 25 62.5t57 19.5q33 0 50.5 -18.5t17.5 -45.5q0 -51 -53.5 -80t-142.5 -29q-111 0 -171.5 47.5t-60.5 133.5q0 88 68.5 145.5t171.5 74.5v66h63zM302 624q40 0 67.5 -27.5t27.5 -65.5
q0 -39 -27.5 -66.5t-67.5 -27.5t-67.5 27.5t-27.5 66.5t27.5 66t67.5 27z" />
    <glyph glyph-name="Agrave" unicode="&#xc0;" horiz-adv-x="726" 
d="M5 0v40l27 7q24 6 37 21.5t33 66.5l206 558h102l214 -562q19 -49 32 -64t36 -22l24 -5v-40h-327v40l28 7q21 5 29 12.5t8 21.5q0 13 -18 65l-23 63h-217l-22 -63q-16 -50 -16 -61q0 -17 9.5 -24t34.5 -14l29 -7v-40h-226zM301 511l-86 -247h179l-88 247h-5zM453 745
l-188 49q-23 6 -34.5 21.5t-11.5 33.5q0 23 15.5 41t37.5 18q24 0 54 -23l140 -112z" />
    <glyph glyph-name="Aacute" unicode="&#xc1;" horiz-adv-x="726" 
d="M5 0v40l27 7q24 6 37 21.5t33 66.5l206 558h102l214 -562q19 -49 32 -64t36 -22l24 -5v-40h-327v40l28 7q21 5 29 12.5t8 21.5q0 13 -18 65l-23 63h-217l-22 -63q-16 -50 -16 -61q0 -17 9.5 -24t34.5 -14l29 -7v-40h-226zM301 511l-86 -247h179l-88 247h-5zM274 745
l-12 28l140 112q30 23 53 23t38 -18t15 -41q0 -44 -45 -55z" />
    <glyph glyph-name="Acircumflex" unicode="&#xc2;" horiz-adv-x="726" 
d="M5 0v40l27 7q24 6 37 21.5t33 66.5l206 558h102l214 -562q19 -49 32 -64t36 -22l24 -5v-40h-327v40l28 7q21 5 29 12.5t8 21.5q0 13 -18 65l-23 63h-217l-22 -63q-16 -50 -16 -61q0 -17 9.5 -24t34.5 -14l29 -7v-40h-226zM301 511l-86 -247h179l-88 247h-5zM393 901
l133 -127l-19 -31l-148 54l-148 -54l-19 31l132 127h69z" />
    <glyph glyph-name="Atilde" unicode="&#xc3;" horiz-adv-x="726" 
d="M5 0v40l27 7q24 6 37 21.5t33 66.5l206 558h102l214 -562q19 -49 32 -64t36 -22l24 -5v-40h-327v40l28 7q21 5 29 12.5t8 21.5q0 13 -18 65l-23 63h-217l-22 -63q-16 -50 -16 -61q0 -17 9.5 -24t34.5 -14l29 -7v-40h-226zM301 511l-86 -247h179l-88 247h-5zM213 759
l-39 18q23 71 48.5 106t59.5 35q29 0 88 -24.5t75 -24.5q10 0 17.5 3.5t16 15.5t12 17.5t15.5 26.5l38 -17q-24 -73 -47 -107t-58 -34q-29 0 -89 24.5t-76 24.5q-23 0 -46 -37q-1 -3 -15 -27z" />
    <glyph glyph-name="Adieresis" unicode="&#xc4;" horiz-adv-x="726" 
d="M5 0v40l27 7q24 6 37 21.5t33 66.5l206 558h102l214 -562q19 -49 32 -64t36 -22l24 -5v-40h-327v40l28 7q21 5 29 12.5t8 21.5q0 13 -18 65l-23 63h-217l-22 -63q-16 -50 -16 -61q0 -17 9.5 -24t34.5 -14l29 -7v-40h-226zM301 511l-86 -247h179l-88 247h-5zM241 748
q-36 0 -61 23.5t-25 57.5t25 57.5t61 23.5t61 -23.5t25 -57.5t-25 -57.5t-61 -23.5zM478 748q-36 0 -61 23.5t-25 57.5t25 57.5t61 23.5q35 0 60 -23.5t25 -57.5t-25 -57.5t-60 -23.5z" />
    <glyph glyph-name="Aring" unicode="&#xc5;" horiz-adv-x="726" 
d="M5 0v40l27 7q24 6 37 21.5t33 66.5l206 558h102l214 -562q19 -49 32 -64t36 -22l24 -5v-40h-327v40l28 7q21 5 29 12.5t8 21.5q0 13 -18 65l-23 63h-217l-22 -63q-16 -50 -16 -61q0 -17 9.5 -24t34.5 -14l29 -7v-40h-226zM301 511l-86 -247h179l-88 247h-5zM359 736
q-51 0 -83 30.5t-32 76.5t33.5 77.5t81.5 31.5q49 0 82 -30.5t33 -78.5q0 -46 -33 -76.5t-82 -30.5zM359 781q26 0 41.5 17.5t15.5 44.5t-15.5 45t-41.5 18t-41.5 -18t-15.5 -45t15.5 -44.5t41.5 -17.5z" />
    <glyph glyph-name="AE" unicode="&#xc6;" horiz-adv-x="988" 
d="M367 0v40l35 7q25 6 34 18t9 54v79h-225l-22 -39q-34 -60 -34 -79q0 -23 33 -33l32 -7v-40h-225v40l19 7q26 6 44 24t53 77l292 494l-16 3l-47 9v39h576l11 -200h-43q-28 64 -56 106q-22 28 -44.5 34t-79.5 6q-62 0 -96 -8v-244h7q55 0 74.5 5.5t30.5 23.5q21 36 30 68
h43v-253h-43q-8 27 -30 72q-10 19 -28.5 24t-76.5 5h-7v-188q0 -24 0.5 -38t6.5 -25.5t9.5 -16t19.5 -7.5t27 -3h40q63 0 85 8t46 41q23 32 66 133h43l-15 -236h-578zM442 583l-191 -331h194v313q0 12 -1 18h-2z" />
    <glyph glyph-name="Ccedilla" unicode="&#xc7;" horiz-adv-x="657" 
d="M223 -260v33q118 27 118 73q0 34 -74 38l-9 10l50 102q-127 22 -199.5 109t-72.5 236q0 94 30 165.5t82.5 114t118.5 63.5t143 21q110 0 194 -23l11 -207h-42q-54 108 -80 141q-20 25 -37.5 31.5t-58.5 6.5q-94 0 -133 -65.5t-39 -227.5q0 -187 39.5 -254.5t131.5 -67.5
q45 0 68 13t48 46q39 56 69 130h41l-11 -199q-100 -41 -215 -41q-14 0 -38 2l-33 -45q56 -4 84 -25.5t28 -53.5q0 -45 -55.5 -80t-158.5 -46z" />
    <glyph glyph-name="Egrave" unicode="&#xc8;" horiz-adv-x="663" 
d="M27 0v40l35 7q25 6 32.5 17.5t7.5 54.5v455q0 43 -7.5 54.5t-32.5 17.5l-35 8v39h572l11 -200h-44q-29 67 -57 106q-22 29 -44.5 34.5t-83.5 5.5q-59 0 -100 -9v-243h19q55 0 74.5 5.5t30.5 23.5q23 39 30 68h44v-253h-44q-6 24 -30 72q-10 19 -28 24t-77 5h-19v-188
q0 -67 14 -78.5t95 -11.5q65 0 87 8t47 41q26 35 67 133h44l-15 -236h-593zM435 745l-188 49q-23 6 -34.5 21.5t-11.5 33.5q0 23 15.5 41t37.5 18q24 0 54 -23l140 -112z" />
    <glyph glyph-name="Eacute" unicode="&#xc9;" horiz-adv-x="663" 
d="M27 0v40l35 7q25 6 32.5 17.5t7.5 54.5v455q0 43 -7.5 54.5t-32.5 17.5l-35 8v39h572l11 -200h-44q-29 67 -57 106q-22 29 -44.5 34.5t-83.5 5.5q-59 0 -100 -9v-243h19q55 0 74.5 5.5t30.5 23.5q23 39 30 68h44v-253h-44q-6 24 -30 72q-10 19 -28 24t-77 5h-19v-188
q0 -67 14 -78.5t95 -11.5q65 0 87 8t47 41q26 35 67 133h44l-15 -236h-593zM256 745l-12 28l140 112q30 23 53 23t38 -18t15 -41q0 -44 -45 -55z" />
    <glyph glyph-name="Ecircumflex" unicode="&#xca;" horiz-adv-x="663" 
d="M27 0v40l35 7q25 6 32.5 17.5t7.5 54.5v455q0 43 -7.5 54.5t-32.5 17.5l-35 8v39h572l11 -200h-44q-29 67 -57 106q-22 29 -44.5 34.5t-83.5 5.5q-59 0 -100 -9v-243h19q55 0 74.5 5.5t30.5 23.5q23 39 30 68h44v-253h-44q-6 24 -30 72q-10 19 -28 24t-77 5h-19v-188
q0 -67 14 -78.5t95 -11.5q65 0 87 8t47 41q26 35 67 133h44l-15 -236h-593zM375 901l133 -127l-19 -31l-148 54l-148 -54l-19 31l132 127h69z" />
    <glyph glyph-name="Edieresis" unicode="&#xcb;" horiz-adv-x="663" 
d="M27 0v40l35 7q25 6 32.5 17.5t7.5 54.5v455q0 43 -7.5 54.5t-32.5 17.5l-35 8v39h572l11 -200h-44q-29 67 -57 106q-22 29 -44.5 34.5t-83.5 5.5q-59 0 -100 -9v-243h19q55 0 74.5 5.5t30.5 23.5q23 39 30 68h44v-253h-44q-6 24 -30 72q-10 19 -28 24t-77 5h-19v-188
q0 -67 14 -78.5t95 -11.5q65 0 87 8t47 41q26 35 67 133h44l-15 -236h-593zM223 748q-36 0 -61 23.5t-25 57.5t25 57.5t61 23.5t61 -23.5t25 -57.5t-25 -57.5t-61 -23.5zM460 748q-36 0 -61 23.5t-25 57.5t25 57.5t61 23.5q35 0 60 -23.5t25 -57.5t-25 -57.5t-60 -23.5z" />
    <glyph glyph-name="Igrave" unicode="&#xcc;" horiz-adv-x="390" 
d="M27 0v40l38 7q25 6 32.5 17.5t7.5 54.5v455q0 44 -7 55t-33 17l-38 8v39h338v-39l-40 -8q-26 -6 -33 -17t-7 -55v-455q0 -43 7 -55t33 -17l40 -7v-40h-338zM290 745l-188 49q-23 6 -34.5 21.5t-11.5 33.5q0 23 15.5 41t37.5 18q24 0 54 -23l140 -112z" />
    <glyph glyph-name="Iacute" unicode="&#xcd;" horiz-adv-x="390" 
d="M27 0v40l38 7q25 6 32.5 17.5t7.5 54.5v455q0 44 -7 55t-33 17l-38 8v39h338v-39l-40 -8q-26 -6 -33 -17t-7 -55v-455q0 -43 7 -55t33 -17l40 -7v-40h-338zM111 745l-12 28l140 112q30 23 53 23t38 -18t15 -41q0 -44 -45 -55z" />
    <glyph glyph-name="Icircumflex" unicode="&#xce;" horiz-adv-x="390" 
d="M27 0v40l38 7q25 6 32.5 17.5t7.5 54.5v455q0 44 -7 55t-33 17l-38 8v39h338v-39l-40 -8q-26 -6 -33 -17t-7 -55v-455q0 -43 7 -55t33 -17l40 -7v-40h-338zM230 901l133 -127l-19 -31l-148 54l-148 -54l-19 31l132 127h69z" />
    <glyph glyph-name="Idieresis" unicode="&#xcf;" horiz-adv-x="390" 
d="M27 0v40l38 7q25 6 32.5 17.5t7.5 54.5v455q0 44 -7 55t-33 17l-38 8v39h338v-39l-40 -8q-26 -6 -33 -17t-7 -55v-455q0 -43 7 -55t33 -17l40 -7v-40h-338zM78 748q-36 0 -61 23.5t-25 57.5t25 57.5t61 23.5t61 -23.5t25 -57.5t-25 -57.5t-61 -23.5zM315 748
q-36 0 -61 23.5t-25 57.5t25 57.5t61 23.5q35 0 60 -23.5t25 -57.5t-25 -57.5t-60 -23.5z" />
    <glyph glyph-name="Eth" unicode="&#xd0;" horiz-adv-x="763" 
d="M36 321v54h66v199q0 43 -7.5 54.5t-32.5 17.5l-35 8v39h344q167 0 262 -82t95 -253q0 -169 -97 -263.5t-265 -94.5h-339v40l35 7q25 6 32.5 17.5t7.5 54.5v202h-66zM356 53q99 0 142 67.5t43 214.5q0 171 -44 238t-143 67q-51 0 -73 -9v-256h142v-54h-142v-174
q0 -59 14 -76.5t61 -17.5z" />
    <glyph glyph-name="Ntilde" unicode="&#xd1;" horiz-adv-x="740" 
d="M558 -2l-387 577h-4v-441q0 -54 8 -67.5t41 -19.5l36 -7v-40h-225v40l31 7q27 6 35.5 19.5t8.5 62.5v445q0 43 -7.5 54.5t-32.5 17.5l-35 8v39h274l270 -407h4v274q0 53 -7.5 66t-40.5 20l-41 8v39h229v-39l-30 -7q-28 -7 -36.5 -20t-8.5 -63v-566h-82zM262 759l-39 18
q23 71 48.5 106t59.5 35q29 0 88 -24.5t75 -24.5q10 0 17.5 3.5t16 15.5t12 17.5t15.5 26.5l38 -17q-24 -73 -47 -107t-58 -34q-29 0 -89 24.5t-76 24.5q-23 0 -46 -37q-1 -3 -15 -27z" />
    <glyph glyph-name="Ograve" unicode="&#xd2;" horiz-adv-x="763" 
d="M378 -12q-93 0 -168.5 36.5t-124.5 117.5t-49 196q0 94 31 167.5t82 115.5t111 63t125 21q145 0 243.5 -89t98.5 -263q0 -95 -31 -168t-82.5 -114.5t-111 -62t-124.5 -20.5zM383 42q57 0 89.5 23.5t50 87.5t17.5 179q0 173 -36 246t-125 73q-55 0 -87.5 -23.5
t-50.5 -88.5t-18 -180q0 -172 35.5 -244.5t124.5 -72.5zM492 745l-188 49q-23 6 -34.5 21.5t-11.5 33.5q0 23 15.5 41t37.5 18q24 0 54 -23l140 -112z" />
    <glyph glyph-name="Oacute" unicode="&#xd3;" horiz-adv-x="763" 
d="M378 -12q-93 0 -168.5 36.5t-124.5 117.5t-49 196q0 94 31 167.5t82 115.5t111 63t125 21q145 0 243.5 -89t98.5 -263q0 -95 -31 -168t-82.5 -114.5t-111 -62t-124.5 -20.5zM383 42q57 0 89.5 23.5t50 87.5t17.5 179q0 173 -36 246t-125 73q-55 0 -87.5 -23.5
t-50.5 -88.5t-18 -180q0 -172 35.5 -244.5t124.5 -72.5zM296 745l-12 28l140 112q30 23 53 23t38 -18t15 -41q0 -44 -45 -55z" />
    <glyph glyph-name="Ocircumflex" unicode="&#xd4;" horiz-adv-x="763" 
d="M378 -12q-93 0 -168.5 36.5t-124.5 117.5t-49 196q0 94 31 167.5t82 115.5t111 63t125 21q145 0 243.5 -89t98.5 -263q0 -95 -31 -168t-82.5 -114.5t-111 -62t-124.5 -20.5zM383 42q57 0 89.5 23.5t50 87.5t17.5 179q0 173 -36 246t-125 73q-55 0 -87.5 -23.5
t-50.5 -88.5t-18 -180q0 -172 35.5 -244.5t124.5 -72.5zM415 901l133 -127l-19 -31l-148 54l-148 -54l-19 31l132 127h69z" />
    <glyph glyph-name="Otilde" unicode="&#xd5;" horiz-adv-x="763" 
d="M378 -12q-93 0 -168.5 36.5t-124.5 117.5t-49 196q0 94 31 167.5t82 115.5t111 63t125 21q145 0 243.5 -89t98.5 -263q0 -95 -31 -168t-82.5 -114.5t-111 -62t-124.5 -20.5zM383 42q57 0 89.5 23.5t50 87.5t17.5 179q0 173 -36 246t-125 73q-55 0 -87.5 -23.5
t-50.5 -88.5t-18 -180q0 -172 35.5 -244.5t124.5 -72.5zM235 759l-39 18q23 71 48.5 106t59.5 35q29 0 88 -24.5t75 -24.5q10 0 17.5 3.5t16 15.5t12 17.5t15.5 26.5l38 -17q-24 -73 -47 -107t-58 -34q-29 0 -89 24.5t-76 24.5q-23 0 -46 -37q-1 -3 -15 -27z" />
    <glyph glyph-name="Odieresis" unicode="&#xd6;" horiz-adv-x="763" 
d="M378 -12q-93 0 -168.5 36.5t-124.5 117.5t-49 196q0 94 31 167.5t82 115.5t111 63t125 21q145 0 243.5 -89t98.5 -263q0 -95 -31 -168t-82.5 -114.5t-111 -62t-124.5 -20.5zM383 42q57 0 89.5 23.5t50 87.5t17.5 179q0 173 -36 246t-125 73q-55 0 -87.5 -23.5
t-50.5 -88.5t-18 -180q0 -172 35.5 -244.5t124.5 -72.5zM263 748q-36 0 -61 23.5t-25 57.5t25 57.5t61 23.5t61 -23.5t25 -57.5t-25 -57.5t-61 -23.5zM500 748q-36 0 -61 23.5t-25 57.5t25 57.5t61 23.5q35 0 60 -23.5t25 -57.5t-25 -57.5t-60 -23.5z" />
    <glyph glyph-name="multiply" unicode="&#xd7;" horiz-adv-x="470" 
d="M94 144l-50 46l143 146l-138 142l52 48l134 -141l138 141l49 -46l-139 -143l143 -146l-51 -47l-142 144z" />
    <glyph glyph-name="Oslash" unicode="&#xd8;" horiz-adv-x="763" 
d="M73 -64l84 124q-121 96 -121 278q0 94 31 167.5t82 115.5t111 63t125 21q99 0 177 -42l45 67h66l-66 -98q120 -95 120 -279q0 -95 -31 -168t-82.5 -114.5t-111 -62t-124.5 -20.5q-98 0 -176 42l-64 -94h-65zM222 359q0 -122 12 -183l272 404q-36 71 -127 71
q-83 0 -120 -62t-37 -230zM383 42q57 0 90 23.5t50.5 87.5t17.5 179q0 116 -13 182l-272 -404q33 -68 127 -68z" />
    <glyph glyph-name="Ugrave" unicode="&#xd9;" horiz-adv-x="739" 
d="M390 -12q-295 0 -295 235v351q0 43 -7.5 54.5t-32.5 17.5l-37 8v39h331v-39l-34 -8q-27 -6 -34 -17t-7 -55v-371q0 -77 35 -109t123 -32q149 0 149 155v343q0 53 -8 66t-41 20l-42 8v39h229v-39l-30 -7q-27 -7 -35.5 -20t-8.5 -63v-355q0 -98 -64 -159.5t-191 -61.5z
M480 745l-188 49q-23 6 -34.5 21.5t-11.5 33.5q0 23 15.5 41t37.5 18q24 0 54 -23l140 -112z" />
    <glyph glyph-name="Uacute" unicode="&#xda;" horiz-adv-x="739" 
d="M390 -12q-295 0 -295 235v351q0 43 -7.5 54.5t-32.5 17.5l-37 8v39h331v-39l-34 -8q-27 -6 -34 -17t-7 -55v-371q0 -77 35 -109t123 -32q149 0 149 155v343q0 53 -8 66t-41 20l-42 8v39h229v-39l-30 -7q-27 -7 -35.5 -20t-8.5 -63v-355q0 -98 -64 -159.5t-191 -61.5z
M258 745l-12 28l140 112q30 23 53 23t38 -18t15 -41q0 -44 -45 -55z" />
    <glyph glyph-name="Ucircumflex" unicode="&#xdb;" horiz-adv-x="739" 
d="M390 -12q-295 0 -295 235v351q0 43 -7.5 54.5t-32.5 17.5l-37 8v39h331v-39l-34 -8q-27 -6 -34 -17t-7 -55v-371q0 -77 35 -109t123 -32q149 0 149 155v343q0 53 -8 66t-41 20l-42 8v39h229v-39l-30 -7q-27 -7 -35.5 -20t-8.5 -63v-355q0 -98 -64 -159.5t-191 -61.5z
M402 901l133 -127l-19 -31l-148 54l-148 -54l-19 31l132 127h69z" />
    <glyph glyph-name="Udieresis" unicode="&#xdc;" horiz-adv-x="739" 
d="M390 -12q-295 0 -295 235v351q0 43 -7.5 54.5t-32.5 17.5l-37 8v39h331v-39l-34 -8q-27 -6 -34 -17t-7 -55v-371q0 -77 35 -109t123 -32q149 0 149 155v343q0 53 -8 66t-41 20l-42 8v39h229v-39l-30 -7q-27 -7 -35.5 -20t-8.5 -63v-355q0 -98 -64 -159.5t-191 -61.5z
M297 748q-36 0 -61 23.5t-25 57.5t25 57.5t61 23.5t61 -23.5t25 -57.5t-25 -57.5t-61 -23.5zM534 748q-36 0 -61 23.5t-25 57.5t25 57.5t61 23.5q35 0 60 -23.5t25 -57.5t-25 -57.5t-60 -23.5z" />
    <glyph glyph-name="Yacute" unicode="&#xdd;" horiz-adv-x="685" 
d="M178 0v40l39 7q27 6 34 17t7 55v165l-151 277q-27 47 -42 63.5t-36 22.5l-21 7v39h342v-39l-28 -7q-40 -8 -40 -40q0 -11 22 -57l93 -192h5l95 185q19 42 19 65q0 28 -38 39l-29 7v39h229v-39l-20 -7q-24 -8 -43 -29t-43 -68l-135 -260v-171q0 -44 7 -55t35 -17l40 -7
v-40h-341zM304 745l-12 28l140 112q30 23 53 23t38 -18t15 -41q0 -44 -45 -55z" />
    <glyph glyph-name="Thorn" unicode="&#xde;" horiz-adv-x="675" 
d="M27 0v40l36 7q24 6 31.5 17.5t7.5 54.5v455q0 43 -7.5 54.5t-31.5 17.5l-36 8v39h327v-39l-37 -8q-25 -6 -32 -17t-7 -55v-19h74q136 0 207 -50.5t71 -148.5q0 -90 -58.5 -146t-158.5 -56q-45 0 -75 12v39q61 0 87.5 29.5t26.5 114.5q0 87 -26 121t-83 34q-42 0 -65 -7
v-378q0 -42 7.5 -53.5t33.5 -16.5l50 -9v-40h-342z" />
    <glyph glyph-name="germandbls" unicode="&#xdf;" horiz-adv-x="691" 
d="M491 37q31 0 53 16.5t22 41.5q0 30 -22.5 51t-92.5 65q-65 41 -90.5 71t-25.5 64q0 28 17.5 63.5t39 65.5t39 71t17.5 78q0 101 -93 101q-49 0 -80 -31t-31 -100v-497q0 -35 3 -43t19 -12l15 -3v-39h-261v39l29 7q25 7 31 16t6 41v345h-73v37l73 34v24q0 110 83.5 169
t199.5 59q113 0 172.5 -36t59.5 -95q0 -41 -26 -77.5t-57.5 -57.5t-57.5 -42.5t-26 -36.5q0 -16 22 -33t96 -60q70 -40 100.5 -79t30.5 -92q0 -76 -58 -123.5t-143 -47.5q-79 0 -124.5 28t-45.5 72q0 27 16.5 43.5t45.5 16.5q33 0 46.5 -14.5t17.5 -51.5q4 -29 13.5 -38.5
t39.5 -9.5z" />
    <glyph glyph-name="agrave" unicode="&#xe0;" horiz-adv-x="561" 
d="M180 -12q-72 0 -113.5 35.5t-41.5 98.5q0 66 46.5 105t164.5 67l81 18v75q0 60 -15.5 79t-61.5 19q-23 0 -30.5 -7t-9.5 -30q-4 -47 -23.5 -68t-59.5 -21q-68 0 -68 63q0 50 61 80.5t164 30.5q201 0 201 -137v-267q0 -28 5 -41t20 -20q13 -8 48 -10v-36q-49 -34 -118 -34
q-87 0 -105 61h-5q-48 -61 -140 -61zM251 65q48 0 66 30v157l-50 -5q-47 -3 -67.5 -26t-20.5 -76q0 -45 19 -62.5t53 -17.5zM363 590l-188 49q-23 6 -34.5 21.5t-11.5 33.5q0 23 15.5 41t37.5 18q24 0 54 -23l140 -112z" />
    <glyph glyph-name="aacute" unicode="&#xe1;" horiz-adv-x="561" 
d="M180 -12q-72 0 -113.5 35.5t-41.5 98.5q0 66 46.5 105t164.5 67l81 18v75q0 60 -15.5 79t-61.5 19q-23 0 -30.5 -7t-9.5 -30q-4 -47 -23.5 -68t-59.5 -21q-68 0 -68 63q0 50 61 80.5t164 30.5q201 0 201 -137v-267q0 -28 5 -41t20 -20q13 -8 48 -10v-36q-49 -34 -118 -34
q-87 0 -105 61h-5q-48 -61 -140 -61zM251 65q48 0 66 30v157l-50 -5q-47 -3 -67.5 -26t-20.5 -76q0 -45 19 -62.5t53 -17.5zM187 590l-12 28l140 112q30 23 53 23t38 -18t15 -41q0 -44 -45 -55z" />
    <glyph glyph-name="acircumflex" unicode="&#xe2;" horiz-adv-x="561" 
d="M180 -12q-72 0 -113.5 35.5t-41.5 98.5q0 66 46.5 105t164.5 67l81 18v75q0 60 -15.5 79t-61.5 19q-23 0 -30.5 -7t-9.5 -30q-4 -47 -23.5 -68t-59.5 -21q-68 0 -68 63q0 50 61 80.5t164 30.5q201 0 201 -137v-267q0 -28 5 -41t20 -20q13 -8 48 -10v-36q-49 -34 -118 -34
q-87 0 -105 61h-5q-48 -61 -140 -61zM251 65q48 0 66 30v157l-50 -5q-47 -3 -67.5 -26t-20.5 -76q0 -45 19 -62.5t53 -17.5zM305 766l131 -152l-22 -31l-143 79l-143 -79l-22 31l130 152h69z" />
    <glyph glyph-name="atilde" unicode="&#xe3;" horiz-adv-x="561" 
d="M180 -12q-72 0 -113.5 35.5t-41.5 98.5q0 66 46.5 105t164.5 67l81 18v75q0 60 -15.5 79t-61.5 19q-23 0 -30.5 -7t-9.5 -30q-4 -47 -23.5 -68t-59.5 -21q-68 0 -68 63q0 50 61 80.5t164 30.5q201 0 201 -137v-267q0 -28 5 -41t20 -20q13 -8 48 -10v-36q-49 -34 -118 -34
q-87 0 -105 61h-5q-48 -61 -140 -61zM251 65q48 0 66 30v157l-50 -5q-47 -3 -67.5 -26t-20.5 -76q0 -45 19 -62.5t53 -17.5zM133 584l-39 18q23 71 48.5 106t59.5 35q29 0 80.5 -19.5t67.5 -19.5q10 0 17.5 3.5t16 15.5t12 17.5t15.5 26.5l38 -17q-24 -73 -47 -107t-58 -34
q-29 0 -81.5 19.5t-68.5 19.5q-23 0 -46 -37q-1 -3 -15 -27z" />
    <glyph glyph-name="adieresis" unicode="&#xe4;" horiz-adv-x="561" 
d="M180 -12q-72 0 -113.5 35.5t-41.5 98.5q0 66 46.5 105t164.5 67l81 18v75q0 60 -15.5 79t-61.5 19q-23 0 -30.5 -7t-9.5 -30q-4 -47 -23.5 -68t-59.5 -21q-68 0 -68 63q0 50 61 80.5t164 30.5q201 0 201 -137v-267q0 -28 5 -41t20 -20q13 -8 48 -10v-36q-49 -34 -118 -34
q-87 0 -105 61h-5q-48 -61 -140 -61zM251 65q48 0 66 30v157l-50 -5q-47 -3 -67.5 -26t-20.5 -76q0 -45 19 -62.5t53 -17.5zM157 598q-36 0 -61 23.5t-25 57.5t25 57.5t61 23.5t61 -23.5t25 -57.5t-25 -57.5t-61 -23.5zM386 598q-36 0 -61 23.5t-25 57.5t25 57.5t61 23.5
q35 0 60 -23.5t25 -57.5t-25 -57.5t-60 -23.5z" />
    <glyph glyph-name="aring" unicode="&#xe5;" horiz-adv-x="561" 
d="M180 -12q-72 0 -113.5 35.5t-41.5 98.5q0 66 46.5 105t164.5 67l81 18v75q0 60 -15.5 79t-61.5 19q-23 0 -30.5 -7t-9.5 -30q-4 -47 -23.5 -68t-59.5 -21q-68 0 -68 63q0 50 61 80.5t164 30.5q201 0 201 -137v-267q0 -28 5 -41t20 -20q13 -8 48 -10v-36q-49 -34 -118 -34
q-87 0 -105 61h-5q-48 -61 -140 -61zM251 65q48 0 66 30v157l-50 -5q-47 -3 -67.5 -26t-20.5 -76q0 -45 19 -62.5t53 -17.5zM271 585q-51 0 -83 30.5t-32 76.5t33.5 77.5t81.5 31.5q49 0 82 -30.5t33 -78.5q0 -46 -33 -76.5t-82 -30.5zM271 630q26 0 41.5 17.5t15.5 44.5
t-15.5 45t-41.5 18t-41.5 -18t-15.5 -45t15.5 -44.5t41.5 -17.5z" />
    <glyph glyph-name="ae" unicode="&#xe6;" horiz-adv-x="825" 
d="M569 -12q-143 0 -207 88q-32 -48 -74.5 -68t-102.5 -20q-76 0 -118 35t-42 102q0 64 46 100.5t136 58.5l108 24v79q0 57 -15 77.5t-58 20.5q-24 0 -32.5 -7.5t-10.5 -29.5q-4 -47 -23.5 -68t-59.5 -21q-67 0 -67 64q0 49 61 79.5t156 30.5q116 0 155 -62q64 62 153 62
q105 0 164 -66.5t59 -201.5h-332q6 -101 48.5 -144.5t116.5 -43.5q76 0 152 38v-45q-30 -32 -87 -57t-126 -25zM564 483q-41 0 -69 -41t-31 -127l179 10q0 88 -16.5 123t-62.5 35zM254 65q52 0 83 59q-21 54 -22 123l-48 -5q-46 -3 -66 -21.5t-20 -72.5q0 -49 18.5 -66
t54.5 -17z" />
    <glyph glyph-name="ccedilla" unicode="&#xe7;" horiz-adv-x="524" 
d="M137 -260v33q118 27 118 73q0 34 -74 38l-9 10l50 100q-93 17 -143 85.5t-50 175.5q0 75 28 131t74.5 87t99 45.5t108.5 14.5q77 0 119.5 -24t42.5 -69q0 -32 -20 -56t-51 -24q-65 0 -72 76q-4 29 -12.5 37t-33.5 8q-124 0 -124 -181q0 -223 169 -223q65 0 143 39v-45
q-27 -32 -83.5 -57.5t-131.5 -25.5h-14l-32 -43q56 -4 84 -25.5t28 -53.5q0 -45 -55.5 -80t-158.5 -46z" />
    <glyph glyph-name="egrave" unicode="&#xe8;" horiz-adv-x="556" 
d="M295 -12q-131 0 -198.5 72t-67.5 202q0 123 79.5 197t186.5 74q111 0 170.5 -62t61.5 -199h-341q5 -106 48.5 -150.5t124.5 -44.5q73 0 153 38v-45q-31 -33 -88.5 -57.5t-128.5 -24.5zM288 483q-95 0 -102 -161l182 9q0 90 -16 121t-64 31zM381 590l-188 49
q-23 6 -34.5 21.5t-11.5 33.5q0 23 15.5 41t37.5 18q24 0 54 -23l140 -112z" />
    <glyph glyph-name="eacute" unicode="&#xe9;" horiz-adv-x="556" 
d="M295 -12q-131 0 -198.5 72t-67.5 202q0 123 79.5 197t186.5 74q111 0 170.5 -62t61.5 -199h-341q5 -106 48.5 -150.5t124.5 -44.5q73 0 153 38v-45q-31 -33 -88.5 -57.5t-128.5 -24.5zM288 483q-95 0 -102 -161l182 9q0 90 -16 121t-64 31zM205 590l-12 28l140 112
q30 23 53 23t38 -18t15 -41q0 -44 -45 -55z" />
    <glyph glyph-name="ecircumflex" unicode="&#xea;" horiz-adv-x="556" 
d="M295 -12q-131 0 -198.5 72t-67.5 202q0 123 79.5 197t186.5 74q111 0 170.5 -62t61.5 -199h-341q5 -106 48.5 -150.5t124.5 -44.5q73 0 153 38v-45q-31 -33 -88.5 -57.5t-128.5 -24.5zM288 483q-95 0 -102 -161l182 9q0 90 -16 121t-64 31zM323 766l131 -152l-22 -31
l-143 79l-143 -79l-22 31l130 152h69z" />
    <glyph glyph-name="edieresis" unicode="&#xeb;" horiz-adv-x="556" 
d="M295 -12q-131 0 -198.5 72t-67.5 202q0 123 79.5 197t186.5 74q111 0 170.5 -62t61.5 -199h-341q5 -106 48.5 -150.5t124.5 -44.5q73 0 153 38v-45q-31 -33 -88.5 -57.5t-128.5 -24.5zM288 483q-95 0 -102 -161l182 9q0 90 -16 121t-64 31zM175 598q-36 0 -61 23.5
t-25 57.5t25 57.5t61 23.5t61 -23.5t25 -57.5t-25 -57.5t-61 -23.5zM404 598q-36 0 -61 23.5t-25 57.5t25 57.5t61 23.5q35 0 60 -23.5t25 -57.5t-25 -57.5t-60 -23.5z" />
    <glyph glyph-name="igrave" unicode="&#xec;" horiz-adv-x="326" 
d="M20 0v33l29 10q27 7 32 19t5 62v250q0 42 -5 52.5t-29 26.5l-35 24v32l220 23l15 -8l-6 -62q-2 -34 -2 -75v-263q0 -50 5.5 -62.5t30.5 -18.5l29 -10v-33h-289zM255 590l-188 49q-23 6 -34.5 21.5t-11.5 33.5q0 23 15.5 41t37.5 18q24 0 54 -23l140 -112z" />
    <glyph glyph-name="iacute" unicode="&#xed;" horiz-adv-x="326" 
d="M20 0v33l29 10q27 7 32 19t5 62v250q0 42 -5 52.5t-29 26.5l-35 24v32l220 23l15 -8l-6 -62q-2 -34 -2 -75v-263q0 -50 5.5 -62.5t30.5 -18.5l29 -10v-33h-289zM79 590l-12 28l140 112q30 23 53 23t38 -18t15 -41q0 -44 -45 -55z" />
    <glyph glyph-name="icircumflex" unicode="&#xee;" horiz-adv-x="326" 
d="M20 0v33l29 10q27 7 32 19t5 62v250q0 42 -5 52.5t-29 26.5l-35 24v32l220 23l15 -8l-6 -62q-2 -34 -2 -75v-263q0 -50 5.5 -62.5t30.5 -18.5l29 -10v-33h-289zM197 766l131 -152l-22 -31l-143 79l-143 -79l-22 31l130 152h69z" />
    <glyph glyph-name="idieresis" unicode="&#xef;" horiz-adv-x="326" 
d="M20 0v33l29 10q27 7 32 19t5 62v250q0 42 -5 52.5t-29 26.5l-35 24v32l220 23l15 -8l-6 -62q-2 -34 -2 -75v-263q0 -50 5.5 -62.5t30.5 -18.5l29 -10v-33h-289zM49 598q-36 0 -61 23.5t-25 57.5t25 57.5t61 23.5t61 -23.5t25 -57.5t-25 -57.5t-61 -23.5zM278 598
q-36 0 -61 23.5t-25 57.5t25 57.5t61 23.5q35 0 60 -23.5t25 -57.5t-25 -57.5t-60 -23.5z" />
    <glyph glyph-name="eth" unicode="&#xf0;" horiz-adv-x="614" 
d="M178 574l-21 45l100 45q-54 44 -127 77l18 40q118 -30 199 -76l112 50l22 -44l-84 -38q187 -132 187 -372q0 -86 -23.5 -149t-64.5 -97.5t-88 -50.5t-102 -16q-119 0 -198 68.5t-79 198.5q0 68 24.5 122t63.5 85t84 47t91 16q64 0 110 -46q-33 80 -103 149zM308 39
q56 0 84 42.5t28 167.5q0 94 -15 144.5t-38.5 65.5t-64.5 15q-54 0 -80 -44.5t-26 -158.5q0 -138 26 -185t86 -47z" />
    <glyph glyph-name="ntilde" unicode="&#xf1;" horiz-adv-x="658" 
d="M20 0v39l29 7q25 7 31 16t6 41v288q0 30 -5.5 39.5t-28.5 24.5l-35 22v32l211 23l14 -9l-7 -61h5q102 70 199 70q136 0 136 -133v-296q0 -32 6.5 -41.5t30.5 -15.5l27 -7v-39h-282v39l27 6q22 6 27 14.5t5 43.5v251q0 46 -17 65t-56 19t-99 -19v-316q0 -35 5 -43.5
t27 -14.5l27 -6v-39h-283zM196 584l-39 18q23 71 48.5 106t59.5 35q29 0 80.5 -19.5t67.5 -19.5q10 0 17.5 3.5t16 15.5t12 17.5t15.5 26.5l38 -17q-24 -73 -47 -107t-58 -34q-29 0 -81.5 19.5t-68.5 19.5q-23 0 -46 -37q-1 -3 -15 -27z" />
    <glyph glyph-name="ograve" unicode="&#xf2;" horiz-adv-x="612" 
d="M307 -12q-120 0 -199 70t-79 201q0 91 41 154.5t102.5 91.5t134.5 28q118 0 197 -69.5t79 -200.5q0 -134 -80.5 -204.5t-195.5 -70.5zM310 39q53 0 79.5 46t26.5 174q0 90 -14 140t-37 66t-63 16q-54 0 -80 -45.5t-26 -166.5q0 -135 26 -182.5t88 -47.5zM398 590l-188 49
q-23 6 -34.5 21.5t-11.5 33.5q0 23 15.5 41t37.5 18q24 0 54 -23l140 -112z" />
    <glyph glyph-name="oacute" unicode="&#xf3;" horiz-adv-x="612" 
d="M307 -12q-120 0 -199 70t-79 201q0 91 41 154.5t102.5 91.5t134.5 28q118 0 197 -69.5t79 -200.5q0 -134 -80.5 -204.5t-195.5 -70.5zM310 39q53 0 79.5 46t26.5 174q0 90 -14 140t-37 66t-63 16q-54 0 -80 -45.5t-26 -166.5q0 -135 26 -182.5t88 -47.5zM222 590l-12 28
l140 112q30 23 53 23t38 -18t15 -41q0 -44 -45 -55z" />
    <glyph glyph-name="ocircumflex" unicode="&#xf4;" horiz-adv-x="612" 
d="M307 -12q-120 0 -199 70t-79 201q0 91 41 154.5t102.5 91.5t134.5 28q118 0 197 -69.5t79 -200.5q0 -134 -80.5 -204.5t-195.5 -70.5zM310 39q53 0 79.5 46t26.5 174q0 90 -14 140t-37 66t-63 16q-54 0 -80 -45.5t-26 -166.5q0 -135 26 -182.5t88 -47.5zM340 766
l131 -152l-22 -31l-143 79l-143 -79l-22 31l130 152h69z" />
    <glyph glyph-name="otilde" unicode="&#xf5;" horiz-adv-x="612" 
d="M307 -12q-120 0 -199 70t-79 201q0 91 41 154.5t102.5 91.5t134.5 28q118 0 197 -69.5t79 -200.5q0 -134 -80.5 -204.5t-195.5 -70.5zM310 39q53 0 79.5 46t26.5 174q0 90 -14 140t-37 66t-63 16q-54 0 -80 -45.5t-26 -166.5q0 -135 26 -182.5t88 -47.5zM168 584l-39 18
q23 71 48.5 106t59.5 35q29 0 80.5 -19.5t67.5 -19.5q10 0 17.5 3.5t16 15.5t12 17.5t15.5 26.5l38 -17q-24 -73 -47 -107t-58 -34q-29 0 -81.5 19.5t-68.5 19.5q-23 0 -46 -37q-1 -3 -15 -27z" />
    <glyph glyph-name="odieresis" unicode="&#xf6;" horiz-adv-x="612" 
d="M307 -12q-120 0 -199 70t-79 201q0 91 41 154.5t102.5 91.5t134.5 28q118 0 197 -69.5t79 -200.5q0 -134 -80.5 -204.5t-195.5 -70.5zM310 39q53 0 79.5 46t26.5 174q0 90 -14 140t-37 66t-63 16q-54 0 -80 -45.5t-26 -166.5q0 -135 26 -182.5t88 -47.5zM192 598
q-36 0 -61 23.5t-25 57.5t25 57.5t61 23.5t61 -23.5t25 -57.5t-25 -57.5t-61 -23.5zM421 598q-36 0 -61 23.5t-25 57.5t25 57.5t61 23.5q35 0 60 -23.5t25 -57.5t-25 -57.5t-60 -23.5z" />
    <glyph glyph-name="divide" unicode="&#xf7;" horiz-adv-x="503" 
d="M252 446q-31 0 -54 22.5t-23 53.5t22.5 53.5t54.5 22.5t55 -22.5t23 -53.5t-23 -53.5t-55 -22.5zM46 303v68h411v-68h-411zM252 75q-31 0 -54 23t-23 54t22.5 53.5t54.5 22.5t55 -22.5t23 -53.5t-23 -54t-55 -23z" />
    <glyph glyph-name="oslash" unicode="&#xf8;" horiz-adv-x="612" 
d="M52 -64l74 107q-97 72 -97 216q0 91 41 154.5t102.5 91.5t134.5 28q78 0 139 -31l55 79h60l-73 -105q95 -72 95 -213q0 -134 -80.5 -204.5t-195.5 -70.5q-76 0 -139 29l-56 -81h-60zM191 249q0 -60 5 -105l204 292q-13 27 -35 36t-63 9q-54 0 -83 -52t-28 -180zM310 39
q54 0 83 52.5t28 185.5q0 53 -5 96l-203 -291q13 -25 35.5 -34t61.5 -9z" />
    <glyph glyph-name="ugrave" unicode="&#xf9;" horiz-adv-x="656" 
d="M219 -12q-63 0 -99 34t-36 99v275q0 31 -4.5 40t-27.5 22l-37 20v32l210 22l17 -11v-360q0 -43 17 -62t54 -19t102 25v291q0 31 -5 40.5t-28 21.5l-35 20v32l210 22l16 -11v-390q0 -37 5.5 -47t28.5 -19l29 -13v-35l-205 -29l-14 10l6 65h-4q-106 -75 -200 -75zM423 590
l-188 49q-23 6 -34.5 21.5t-11.5 33.5q0 23 15.5 41t37.5 18q24 0 54 -23l140 -112z" />
    <glyph glyph-name="uacute" unicode="&#xfa;" horiz-adv-x="656" 
d="M219 -12q-63 0 -99 34t-36 99v275q0 31 -4.5 40t-27.5 22l-37 20v32l210 22l17 -11v-360q0 -43 17 -62t54 -19t102 25v291q0 31 -5 40.5t-28 21.5l-35 20v32l210 22l16 -11v-390q0 -37 5.5 -47t28.5 -19l29 -13v-35l-205 -29l-14 10l6 65h-4q-106 -75 -200 -75zM247 590
l-12 28l140 112q30 23 53 23t38 -18t15 -41q0 -44 -45 -55z" />
    <glyph glyph-name="ucircumflex" unicode="&#xfb;" horiz-adv-x="656" 
d="M219 -12q-63 0 -99 34t-36 99v275q0 31 -4.5 40t-27.5 22l-37 20v32l210 22l17 -11v-360q0 -43 17 -62t54 -19t102 25v291q0 31 -5 40.5t-28 21.5l-35 20v32l210 22l16 -11v-390q0 -37 5.5 -47t28.5 -19l29 -13v-35l-205 -29l-14 10l6 65h-4q-106 -75 -200 -75zM365 766
l131 -152l-22 -31l-143 79l-143 -79l-22 31l130 152h69z" />
    <glyph glyph-name="udieresis" unicode="&#xfc;" horiz-adv-x="656" 
d="M219 -12q-63 0 -99 34t-36 99v275q0 31 -4.5 40t-27.5 22l-37 20v32l210 22l17 -11v-360q0 -43 17 -62t54 -19t102 25v291q0 31 -5 40.5t-28 21.5l-35 20v32l210 22l16 -11v-390q0 -37 5.5 -47t28.5 -19l29 -13v-35l-205 -29l-14 10l6 65h-4q-106 -75 -200 -75zM217 598
q-36 0 -61 23.5t-25 57.5t25 57.5t61 23.5t61 -23.5t25 -57.5t-25 -57.5t-61 -23.5zM446 598q-36 0 -61 23.5t-25 57.5t25 57.5t61 23.5q35 0 60 -23.5t25 -57.5t-25 -57.5t-60 -23.5z" />
    <glyph glyph-name="yacute" unicode="&#xfd;" horiz-adv-x="589" 
d="M132 -222q-49 0 -76.5 22.5t-27.5 57.5q0 29 16 47t44 18q30 0 44.5 -11.5t24.5 -37.5q9 -23 17 -23q38 0 81 96l16 38l-190 411q-23 48 -32 60.5t-26 17.5l-19 6v39h296v-39l-27 -7q-33 -8 -33 -38q0 -23 16 -55l93 -215h4l83 215q11 29 11 59q0 27 -31 34l-29 7v39h205
v-39l-23 -7q-19 -6 -28.5 -20.5t-31.5 -66.5l-194 -449q-36 -83 -78.5 -121t-104.5 -38zM251 590l-12 28l140 112q30 23 53 23t38 -18t15 -41q0 -44 -45 -55z" />
    <glyph glyph-name="thorn" unicode="&#xfe;" horiz-adv-x="636" 
d="M75 -134v767q0 36 -5 46t-25 20l-39 19v35l221 19l14 -10q-7 -44 -7 -115v-87q0 -24 -1.5 -47.5t-2.5 -34.5l-2 -12h4q83 66 175 66q84 0 143.5 -59.5t59.5 -185.5q0 -149 -81.5 -224t-217.5 -75q-44 0 -82 10q5 -26 5 -61v-71q0 -34 5 -43t28 -14l39 -8v-38h-297v38
l29 8q25 6 31 15t6 42zM317 40q68 0 98.5 44.5t30.5 168.5q0 99 -31.5 144t-94.5 45q-33 0 -86 -23v-343q31 -36 83 -36z" />
    <glyph glyph-name="ydieresis" unicode="&#xff;" horiz-adv-x="589" 
d="M132 -222q-49 0 -76.5 22.5t-27.5 57.5q0 29 16 47t44 18q30 0 44.5 -11.5t24.5 -37.5q9 -23 17 -23q38 0 81 96l16 38l-190 411q-23 48 -32 60.5t-26 17.5l-19 6v39h296v-39l-27 -7q-33 -8 -33 -38q0 -23 16 -55l93 -215h4l83 215q11 29 11 59q0 27 -31 34l-29 7v39h205
v-39l-23 -7q-19 -6 -28.5 -20.5t-31.5 -66.5l-194 -449q-36 -83 -78.5 -121t-104.5 -38zM221 598q-36 0 -61 23.5t-25 57.5t25 57.5t61 23.5t61 -23.5t25 -57.5t-25 -57.5t-61 -23.5zM450 598q-36 0 -61 23.5t-25 57.5t25 57.5t61 23.5q35 0 60 -23.5t25 -57.5t-25 -57.5
t-60 -23.5z" />
    <glyph glyph-name="Amacron" unicode="&#x100;" horiz-adv-x="726" 
d="M5 0v40l27 7q24 6 37 21.5t33 66.5l206 558h102l214 -562q19 -49 32 -64t36 -22l24 -5v-40h-327v40l28 7q21 5 29 12.5t8 21.5q0 13 -18 65l-23 63h-217l-22 -63q-16 -50 -16 -61q0 -17 9.5 -24t34.5 -14l29 -7v-40h-226zM301 511l-86 -247h179l-88 247h-5zM206 777v79
h306v-79h-306z" />
    <glyph glyph-name="amacron" unicode="&#x101;" horiz-adv-x="561" 
d="M180 -12q-72 0 -113.5 35.5t-41.5 98.5q0 66 46.5 105t164.5 67l81 18v75q0 60 -15.5 79t-61.5 19q-23 0 -30.5 -7t-9.5 -30q-4 -47 -23.5 -68t-59.5 -21q-68 0 -68 63q0 50 61 80.5t164 30.5q201 0 201 -137v-267q0 -28 5 -41t20 -20q13 -8 48 -10v-36q-49 -34 -118 -34
q-87 0 -105 61h-5q-48 -61 -140 -61zM251 65q48 0 66 30v157l-50 -5q-47 -3 -67.5 -26t-20.5 -76q0 -45 19 -62.5t53 -17.5zM123 622v79h296v-79h-296z" />
    <glyph glyph-name="Abreve" unicode="&#x102;" horiz-adv-x="726" 
d="M5 0v40l27 7q24 6 37 21.5t33 66.5l206 558h102l214 -562q19 -49 32 -64t36 -22l24 -5v-40h-327v40l28 7q21 5 29 12.5t8 21.5q0 13 -18 65l-23 63h-217l-22 -63q-16 -50 -16 -61q0 -17 9.5 -24t34.5 -14l29 -7v-40h-226zM301 511l-86 -247h179l-88 247h-5zM360 754
q-64 0 -107.5 41t-54.5 107l43 12q15 -33 42 -48t77 -15q89 0 118 63l42 -12q-10 -67 -52.5 -107.5t-107.5 -40.5z" />
    <glyph glyph-name="abreve" unicode="&#x103;" horiz-adv-x="561" 
d="M180 -12q-72 0 -113.5 35.5t-41.5 98.5q0 66 46.5 105t164.5 67l81 18v75q0 60 -15.5 79t-61.5 19q-23 0 -30.5 -7t-9.5 -30q-4 -47 -23.5 -68t-59.5 -21q-68 0 -68 63q0 50 61 80.5t164 30.5q201 0 201 -137v-267q0 -28 5 -41t20 -20q13 -8 48 -10v-36q-49 -34 -118 -34
q-87 0 -105 61h-5q-48 -61 -140 -61zM251 65q48 0 66 30v157l-50 -5q-47 -3 -67.5 -26t-20.5 -76q0 -45 19 -62.5t53 -17.5zM272 593q-61 0 -101 45t-51 119l43 12q16 -39 40.5 -59.5t68.5 -20.5q75 0 108 80l42 -12q-10 -74 -49.5 -119t-100.5 -45z" />
    <glyph glyph-name="Aogonek" unicode="&#x104;" horiz-adv-x="726" 
d="M482 14l-69 195h-217l-22 -63q-16 -50 -16 -61q0 -17 9.5 -24t34.5 -14l29 -7v-40h-226v40l27 7q24 6 37 21.5t33 66.5l206 558h102l214 -562q19 -49 32 -64t36 -22l24 -5v-40h-101q-71 0 -116.5 -32t-45.5 -78q0 -34 29 -43q19 -6 69 -4v-39q-43 -30 -97 -30
q-56 0 -89 24.5t-33 65.5q0 47 36 83t114 67zM301 511l-86 -247h178l-87 247h-5z" />
    <glyph glyph-name="aogonek" unicode="&#x105;" horiz-adv-x="561" 
d="M432 -226q-56 0 -89 24.5t-33 65.5q0 73 106 125q-75 5 -91 60h-5q-48 -61 -140 -61q-72 0 -113.5 35.5t-41.5 98.5q0 66 46.5 105t164.5 67l81 18v75q0 60 -15.5 79t-61.5 19q-23 0 -30.5 -7t-9.5 -30q-4 -47 -23.5 -68t-59.5 -21q-68 0 -68 63q0 50 61 80.5t164 30.5
q201 0 201 -137v-267q0 -28 5 -41t20 -20q13 -8 48 -10v-36q-57 -31 -87 -62t-30 -70q0 -34 29 -43q19 -6 69 -4v-39q-43 -30 -97 -30zM251 65q48 0 66 30v157l-50 -5q-47 -3 -67.5 -26t-20.5 -76q0 -45 19 -62.5t53 -17.5z" />
    <glyph glyph-name="Cacute" unicode="&#x106;" horiz-adv-x="657" 
d="M396 -12q-165 0 -262.5 90t-97.5 263q0 94 30 165.5t82.5 114t118.5 63.5t143 21q110 0 194 -23l11 -207h-42q-54 108 -80 141q-20 25 -37.5 31.5t-58.5 6.5q-94 0 -133 -65.5t-39 -227.5q0 -187 39.5 -254.5t131.5 -67.5q45 0 68 13t48 46q39 56 69 130h41l-11 -199
q-100 -41 -215 -41zM304 745l-12 28l140 112q30 23 53 23t38 -18t15 -41q0 -44 -45 -55z" />
    <glyph glyph-name="cacute" unicode="&#x107;" horiz-adv-x="524" 
d="M285 -12q-122 0 -189 71.5t-67 195.5q0 75 28 131t74.5 87t99 45.5t108.5 14.5q77 0 119.5 -24t42.5 -69q0 -32 -20 -56t-51 -24q-65 0 -72 76q-4 29 -12.5 37t-33.5 8q-124 0 -124 -181q0 -223 169 -223q65 0 143 39v-45q-27 -32 -83.5 -57.5t-131.5 -25.5zM224 590
l-12 28l140 112q30 23 53 23t38 -18t15 -41q0 -44 -45 -55z" />
    <glyph glyph-name="Ccircumflex" unicode="&#x108;" horiz-adv-x="657" 
d="M396 -12q-165 0 -262.5 90t-97.5 263q0 94 30 165.5t82.5 114t118.5 63.5t143 21q110 0 194 -23l11 -207h-42q-54 108 -80 141q-20 25 -37.5 31.5t-58.5 6.5q-94 0 -133 -65.5t-39 -227.5q0 -187 39.5 -254.5t131.5 -67.5q45 0 68 13t48 46q39 56 69 130h41l-11 -199
q-100 -41 -215 -41zM423 901l133 -127l-19 -31l-148 54l-148 -54l-19 31l132 127h69z" />
    <glyph glyph-name="ccircumflex" unicode="&#x109;" horiz-adv-x="524" 
d="M285 -12q-122 0 -189 71.5t-67 195.5q0 75 28 131t74.5 87t99 45.5t108.5 14.5q77 0 119.5 -24t42.5 -69q0 -32 -20 -56t-51 -24q-65 0 -72 76q-4 29 -12.5 37t-33.5 8q-124 0 -124 -181q0 -223 169 -223q65 0 143 39v-45q-27 -32 -83.5 -57.5t-131.5 -25.5zM342 766
l131 -152l-22 -31l-143 79l-143 -79l-22 31l130 152h69z" />
    <glyph glyph-name="Cdotaccent" unicode="&#x10a;" horiz-adv-x="657" 
d="M396 -12q-165 0 -262.5 90t-97.5 263q0 94 30 165.5t82.5 114t118.5 63.5t143 21q110 0 194 -23l11 -207h-42q-54 108 -80 141q-20 25 -37.5 31.5t-58.5 6.5q-94 0 -133 -65.5t-39 -227.5q0 -187 39.5 -254.5t131.5 -67.5q45 0 68 13t48 46q39 56 69 130h41l-11 -199
q-100 -41 -215 -41zM390 744q-40 0 -67.5 25t-27.5 62q0 38 27.5 62.5t67.5 24.5t67 -24.5t27 -62.5q0 -37 -27.5 -62t-66.5 -25z" />
    <glyph glyph-name="cdotaccent" unicode="&#x10b;" horiz-adv-x="524" 
d="M285 -12q-122 0 -189 71.5t-67 195.5q0 75 28 131t74.5 87t99 45.5t108.5 14.5q77 0 119.5 -24t42.5 -69q0 -32 -20 -56t-51 -24q-65 0 -72 76q-4 29 -12.5 37t-33.5 8q-124 0 -124 -181q0 -223 169 -223q65 0 143 39v-45q-27 -32 -83.5 -57.5t-131.5 -25.5zM309 594
q-40 0 -67.5 25t-27.5 62q0 38 27.5 62.5t67.5 24.5t67 -24.5t27 -62.5q0 -37 -27.5 -62t-66.5 -25z" />
    <glyph glyph-name="Ccaron" unicode="&#x10c;" horiz-adv-x="657" 
d="M396 -12q-165 0 -262.5 90t-97.5 263q0 94 30 165.5t82.5 114t118.5 63.5t143 21q110 0 194 -23l11 -207h-42q-54 108 -80 141q-20 25 -37.5 31.5t-58.5 6.5q-94 0 -133 -65.5t-39 -227.5q0 -187 39.5 -254.5t131.5 -67.5q45 0 68 13t48 46q39 56 69 130h41l-11 -199
q-100 -41 -215 -41zM355 756l-133 127l19 31l148 -54l148 54l19 -31l-132 -127h-69z" />
    <glyph glyph-name="ccaron" unicode="&#x10d;" horiz-adv-x="524" 
d="M285 -12q-122 0 -189 71.5t-67 195.5q0 75 28 131t74.5 87t99 45.5t108.5 14.5q77 0 119.5 -24t42.5 -69q0 -32 -20 -56t-51 -24q-65 0 -72 76q-4 29 -12.5 37t-33.5 8q-124 0 -124 -181q0 -223 169 -223q65 0 143 39v-45q-27 -32 -83.5 -57.5t-131.5 -25.5zM274 591
l-131 151l22 32l143 -80l143 80l22 -32l-130 -151h-69z" />
    <glyph glyph-name="Dcaron" unicode="&#x10e;" horiz-adv-x="763" 
d="M27 0v40l35 7q25 6 32.5 17.5t7.5 54.5v455q0 43 -7.5 54.5t-32.5 17.5l-35 8v39h344q167 0 262 -82t95 -253q0 -169 -97 -263.5t-265 -94.5h-339zM356 53q99 0 142 67.5t43 214.5q0 171 -44 238t-143 67q-51 0 -73 -9v-484q0 -59 14 -76.5t61 -17.5zM322 756l-133 127
l19 31l148 -54l148 54l19 -31l-132 -127h-69z" />
    <glyph glyph-name="dcaron" unicode="&#x10f;" horiz-adv-x="649" 
d="M235 -12q-84 0 -143 63t-59 191q0 146 83.5 218t213.5 72q49 0 84 -10q-5 36 -5 72v33q0 33 -5.5 42.5t-26.5 20.5l-42 22v35l225 19l14 -10q-7 -44 -7 -115v-510q0 -37 5 -47t28 -19l30 -13v-35l-208 -29l-10 8l4 56h-4q-78 -64 -177 -64zM319 78q43 0 89 23v338
q-35 41 -82 41q-63 0 -96.5 -47.5t-33.5 -159.5q0 -107 30 -151t93 -44zM654 569l-25 6l7 137q3 53 50 53q24 0 40.5 -14t16.5 -35q0 -18 -15 -40z" />
    <glyph glyph-name="Dcroat" unicode="&#x110;" horiz-adv-x="763" 
d="M36 321v54h66v199q0 43 -7.5 54.5t-32.5 17.5l-35 8v39h344q167 0 262 -82t95 -253q0 -169 -97 -263.5t-265 -94.5h-339v40l35 7q25 6 32.5 17.5t7.5 54.5v202h-66zM356 53q99 0 142 67.5t43 214.5q0 171 -44 238t-143 67q-51 0 -73 -9v-256h142v-54h-142v-174
q0 -59 14 -76.5t61 -17.5z" />
    <glyph glyph-name="dcroat" unicode="&#x111;" horiz-adv-x="649" 
d="M236 593v51h172q-1 21 -6.5 28.5t-24.5 17.5l-42 22v35l225 19l14 -10q-7 -43 -7 -112h76v-51h-76v-462q0 -37 5 -47t28 -19l30 -13v-35l-208 -29l-10 8l4 56h-4q-78 -64 -177 -64q-84 0 -143 63t-59 191q0 146 83.5 218t213.5 72q49 0 84 -10q-5 35 -5 71h-173zM319 78
q43 0 89 23v338q-35 41 -82 41q-63 0 -96.5 -47.5t-33.5 -159.5q0 -107 30 -151t93 -44z" />
    <glyph glyph-name="Emacron" unicode="&#x112;" horiz-adv-x="663" 
d="M27 0v40l35 7q25 6 32.5 17.5t7.5 54.5v455q0 43 -7.5 54.5t-32.5 17.5l-35 8v39h572l11 -200h-44q-29 67 -57 106q-22 29 -44.5 34.5t-83.5 5.5q-59 0 -100 -9v-243h19q55 0 74.5 5.5t30.5 23.5q23 39 30 68h44v-253h-44q-6 24 -30 72q-10 19 -28 24t-77 5h-19v-188
q0 -67 14 -78.5t95 -11.5q65 0 87 8t47 41q26 35 67 133h44l-15 -236h-593zM188 777v79h306v-79h-306z" />
    <glyph glyph-name="emacron" unicode="&#x113;" horiz-adv-x="556" 
d="M295 -12q-131 0 -198.5 72t-67.5 202q0 123 79.5 197t186.5 74q111 0 170.5 -62t61.5 -199h-341q5 -106 48.5 -150.5t124.5 -44.5q73 0 153 38v-45q-31 -33 -88.5 -57.5t-128.5 -24.5zM288 483q-95 0 -102 -161l182 9q0 90 -16 121t-64 31zM141 622v79h296v-79h-296z" />
    <glyph glyph-name="Ebreve" unicode="&#x114;" horiz-adv-x="663" 
d="M27 0v40l35 7q25 6 32.5 17.5t7.5 54.5v455q0 43 -7.5 54.5t-32.5 17.5l-35 8v39h572l11 -200h-44q-29 67 -57 106q-22 29 -44.5 34.5t-83.5 5.5q-59 0 -100 -9v-243h19q55 0 74.5 5.5t30.5 23.5q23 39 30 68h44v-253h-44q-6 24 -30 72q-10 19 -28 24t-77 5h-19v-188
q0 -67 14 -78.5t95 -11.5q65 0 87 8t47 41q26 35 67 133h44l-15 -236h-593zM342 754q-64 0 -107.5 41t-54.5 107l43 12q15 -33 42 -48t77 -15q89 0 118 63l42 -12q-10 -67 -52.5 -107.5t-107.5 -40.5z" />
    <glyph glyph-name="ebreve" unicode="&#x115;" horiz-adv-x="556" 
d="M295 -12q-131 0 -198.5 72t-67.5 202q0 123 79.5 197t186.5 74q111 0 170.5 -62t61.5 -199h-341q5 -106 48.5 -150.5t124.5 -44.5q73 0 153 38v-45q-31 -33 -88.5 -57.5t-128.5 -24.5zM288 483q-95 0 -102 -161l182 9q0 90 -16 121t-64 31zM290 593q-61 0 -101 45
t-51 119l43 12q16 -39 40.5 -59.5t68.5 -20.5q75 0 108 80l42 -12q-10 -74 -49.5 -119t-100.5 -45z" />
    <glyph glyph-name="Edotaccent" unicode="&#x116;" horiz-adv-x="663" 
d="M27 0v40l35 7q25 6 32.5 17.5t7.5 54.5v455q0 43 -7.5 54.5t-32.5 17.5l-35 8v39h572l11 -200h-44q-29 67 -57 106q-22 29 -44.5 34.5t-83.5 5.5q-59 0 -100 -9v-243h19q55 0 74.5 5.5t30.5 23.5q23 39 30 68h44v-253h-44q-6 24 -30 72q-10 19 -28 24t-77 5h-19v-188
q0 -67 14 -78.5t95 -11.5q65 0 87 8t47 41q26 35 67 133h44l-15 -236h-593zM342 744q-40 0 -67.5 25t-27.5 62q0 38 27.5 62.5t67.5 24.5t67 -24.5t27 -62.5q0 -37 -27.5 -62t-66.5 -25z" />
    <glyph glyph-name="edotaccent" unicode="&#x117;" horiz-adv-x="556" 
d="M295 -12q-131 0 -198.5 72t-67.5 202q0 123 79.5 197t186.5 74q111 0 170.5 -62t61.5 -199h-341q5 -106 48.5 -150.5t124.5 -44.5q73 0 153 38v-45q-31 -33 -88.5 -57.5t-128.5 -24.5zM288 483q-95 0 -102 -161l182 9q0 90 -16 121t-64 31zM290 594q-40 0 -67.5 25
t-27.5 62q0 38 27.5 62.5t67.5 24.5t67 -24.5t27 -62.5q0 -37 -27.5 -62t-66.5 -25z" />
    <glyph glyph-name="Eogonek" unicode="&#x118;" horiz-adv-x="663" 
d="M27 0v40l35 7q25 6 32.5 17.5t7.5 54.5v455q0 43 -7.5 54.5t-32.5 17.5l-35 8v39h572l11 -200h-44q-29 67 -57 106q-22 29 -44.5 34.5t-83.5 5.5q-59 0 -100 -9v-243h19q55 0 74.5 5.5t30.5 23.5q23 39 30 68h44v-253h-44q-6 24 -30 72q-10 19 -28 24t-77 5h-19v-188
q0 -67 14 -78.5t95 -11.5q65 0 87 8t47 41q26 35 67 133h44l-15 -236h-96q-35 -30 -52 -55.5t-17 -54.5q0 -34 29 -43q19 -6 69 -4v-39q-43 -30 -97 -30q-56 0 -89 24.5t-33 65.5q0 72 120 136h-427z" />
    <glyph glyph-name="eogonek" unicode="&#x119;" horiz-adv-x="556" 
d="M359 77q73 0 153 38v-45q-11 -11 -27.5 -23t-39 -26.5l-30.5 -19.5q-71 -49 -71 -111q0 -34 29 -43q19 -6 69 -4v-39q-42 -30 -97 -30q-56 0 -89 24.5t-33 65.5q0 73 109 126q-24 -2 -37 -2q-131 0 -198.5 72t-67.5 202q0 123 79.5 197t186.5 74q111 0 170.5 -62
t61.5 -199h-341q5 -106 48.5 -150.5t124.5 -44.5zM288 483q-95 0 -102 -161l182 9q0 90 -16 121t-64 31z" />
    <glyph glyph-name="Ecaron" unicode="&#x11a;" horiz-adv-x="663" 
d="M27 0v40l35 7q25 6 32.5 17.5t7.5 54.5v455q0 43 -7.5 54.5t-32.5 17.5l-35 8v39h572l11 -200h-44q-29 67 -57 106q-22 29 -44.5 34.5t-83.5 5.5q-59 0 -100 -9v-243h19q55 0 74.5 5.5t30.5 23.5q23 39 30 68h44v-253h-44q-6 24 -30 72q-10 19 -28 24t-77 5h-19v-188
q0 -67 14 -78.5t95 -11.5q65 0 87 8t47 41q26 35 67 133h44l-15 -236h-593zM307 756l-133 127l19 31l148 -54l148 54l19 -31l-132 -127h-69z" />
    <glyph glyph-name="ecaron" unicode="&#x11b;" horiz-adv-x="556" 
d="M295 -12q-131 0 -198.5 72t-67.5 202q0 123 79.5 197t186.5 74q111 0 170.5 -62t61.5 -199h-341q5 -106 48.5 -150.5t124.5 -44.5q73 0 153 38v-45q-31 -33 -88.5 -57.5t-128.5 -24.5zM288 483q-95 0 -102 -161l182 9q0 90 -16 121t-64 31zM255 591l-131 151l22 32
l143 -80l143 80l22 -32l-130 -151h-69z" />
    <glyph glyph-name="Gcircumflex" unicode="&#x11c;" horiz-adv-x="725" 
d="M403 -12q-179 0 -273 90.5t-94 264.5q0 95 31 166.5t85.5 113t123 62t149.5 20.5q115 0 195 -23l13 -209h-45q-28 62 -77 133q-19 28 -37.5 36.5t-66.5 8.5q-97 0 -140.5 -66.5t-43.5 -223.5q0 -181 38 -250t137 -69q49 0 84 19v139q0 43 -7 54t-33 17l-37 9v39h308v-39
l-27 -7q-22 -6 -27.5 -17.5t-5.5 -55.5v-171q-47 -17 -117.5 -29t-132.5 -12zM433 901l133 -127l-19 -31l-148 54l-148 -54l-19 31l132 127h69z" />
    <glyph glyph-name="gcircumflex" unicode="&#x11d;" horiz-adv-x="563" 
d="M229 -229q-112 0 -173.5 30t-61.5 85q0 73 122 114v4q-35 7 -58.5 31t-23.5 61q0 66 83 121v4q-37 17 -61.5 53t-24.5 80q0 82 64.5 130t158.5 48q69 0 126 -19q73 69 139 69q28 0 44.5 -14t16.5 -41q0 -26 -12.5 -44t-37.5 -18q-22 0 -33 8.5t-21 25.5q-7 9 -25.5 4.5
t-39.5 -18.5v-4q69 -35 69 -114q0 -83 -65 -130t-161 -47q-56 0 -94 17q-26 -18 -26 -48q0 -39 54 -39h174q169 0 169 -136q0 -88 -76.5 -150.5t-225.5 -62.5zM254 239q41 0 59.5 26.5t18.5 91.5q0 70 -19 98.5t-59 28.5q-39 0 -57 -27.5t-18 -92.5q0 -69 18.5 -97t56.5 -28
zM251 -177q86 0 130.5 29.5t44.5 72.5q0 34 -19.5 50.5t-67.5 16.5h-166q-20 -10 -39 -34t-19 -55q0 -80 136 -80zM290 766l131 -152l-22 -31l-143 79l-143 -79l-22 31l130 152h69z" />
    <glyph glyph-name="Gbreve" unicode="&#x11e;" horiz-adv-x="725" 
d="M403 -12q-179 0 -273 90.5t-94 264.5q0 95 31 166.5t85.5 113t123 62t149.5 20.5q115 0 195 -23l13 -209h-45q-28 62 -77 133q-19 28 -37.5 36.5t-66.5 8.5q-97 0 -140.5 -66.5t-43.5 -223.5q0 -181 38 -250t137 -69q49 0 84 19v139q0 43 -7 54t-33 17l-37 9v39h308v-39
l-27 -7q-22 -6 -27.5 -17.5t-5.5 -55.5v-171q-47 -17 -117.5 -29t-132.5 -12zM400 754q-64 0 -107.5 41t-54.5 107l43 12q15 -33 42 -48t77 -15q89 0 118 63l42 -12q-10 -67 -52.5 -107.5t-107.5 -40.5z" />
    <glyph glyph-name="gbreve" unicode="&#x11f;" horiz-adv-x="563" 
d="M229 -229q-112 0 -173.5 30t-61.5 85q0 73 122 114v4q-35 7 -58.5 31t-23.5 61q0 66 83 121v4q-37 17 -61.5 53t-24.5 80q0 82 64.5 130t158.5 48q69 0 126 -19q73 69 139 69q28 0 44.5 -14t16.5 -41q0 -26 -12.5 -44t-37.5 -18q-22 0 -33 8.5t-21 25.5q-7 9 -25.5 4.5
t-39.5 -18.5v-4q69 -35 69 -114q0 -83 -65 -130t-161 -47q-56 0 -94 17q-26 -18 -26 -48q0 -39 54 -39h174q169 0 169 -136q0 -88 -76.5 -150.5t-225.5 -62.5zM254 239q41 0 59.5 26.5t18.5 91.5q0 70 -19 98.5t-59 28.5q-39 0 -57 -27.5t-18 -92.5q0 -69 18.5 -97t56.5 -28
zM251 -177q86 0 130.5 29.5t44.5 72.5q0 34 -19.5 50.5t-67.5 16.5h-166q-20 -10 -39 -34t-19 -55q0 -80 136 -80zM257 593q-61 0 -101 45t-51 119l43 12q16 -39 40.5 -59.5t68.5 -20.5q75 0 108 80l42 -12q-10 -74 -49.5 -119t-100.5 -45z" />
    <glyph glyph-name="Gdotaccent" unicode="&#x120;" horiz-adv-x="725" 
d="M403 -12q-179 0 -273 90.5t-94 264.5q0 95 31 166.5t85.5 113t123 62t149.5 20.5q115 0 195 -23l13 -209h-45q-28 62 -77 133q-19 28 -37.5 36.5t-66.5 8.5q-97 0 -140.5 -66.5t-43.5 -223.5q0 -181 38 -250t137 -69q49 0 84 19v139q0 43 -7 54t-33 17l-37 9v39h308v-39
l-27 -7q-22 -6 -27.5 -17.5t-5.5 -55.5v-171q-47 -17 -117.5 -29t-132.5 -12zM400 744q-40 0 -67.5 25t-27.5 62q0 38 27.5 62.5t67.5 24.5t67 -24.5t27 -62.5q0 -37 -27.5 -62t-66.5 -25z" />
    <glyph glyph-name="gdotaccent" unicode="&#x121;" horiz-adv-x="563" 
d="M229 -229q-112 0 -173.5 30t-61.5 85q0 73 122 114v4q-35 7 -58.5 31t-23.5 61q0 66 83 121v4q-37 17 -61.5 53t-24.5 80q0 82 64.5 130t158.5 48q69 0 126 -19q73 69 139 69q28 0 44.5 -14t16.5 -41q0 -26 -12.5 -44t-37.5 -18q-22 0 -33 8.5t-21 25.5q-7 9 -25.5 4.5
t-39.5 -18.5v-4q69 -35 69 -114q0 -83 -65 -130t-161 -47q-56 0 -94 17q-26 -18 -26 -48q0 -39 54 -39h174q169 0 169 -136q0 -88 -76.5 -150.5t-225.5 -62.5zM254 239q41 0 59.5 26.5t18.5 91.5q0 70 -19 98.5t-59 28.5q-39 0 -57 -27.5t-18 -92.5q0 -69 18.5 -97t56.5 -28
zM251 -177q86 0 130.5 29.5t44.5 72.5q0 34 -19.5 50.5t-67.5 16.5h-166q-20 -10 -39 -34t-19 -55q0 -80 136 -80zM257 594q-40 0 -67.5 25t-27.5 62q0 38 27.5 62.5t67.5 24.5t67 -24.5t27 -62.5q0 -37 -27.5 -62t-66.5 -25z" />
    <glyph glyph-name="Gcommaaccent" unicode="&#x122;" horiz-adv-x="725" 
d="M403 -12q-179 0 -273 90.5t-94 264.5q0 95 31 166.5t85.5 113t123 62t149.5 20.5q115 0 195 -23l13 -209h-45q-28 62 -77 133q-19 28 -37.5 36.5t-66.5 8.5q-97 0 -140.5 -66.5t-43.5 -223.5q0 -181 38 -250t137 -69q49 0 84 19v139q0 43 -7 54t-33 17l-37 9v39h308v-39
l-27 -7q-22 -6 -27.5 -17.5t-5.5 -55.5v-171q-47 -17 -117.5 -29t-132.5 -12zM317 -284l-7 28q55 12 76.5 33t19.5 50q-14 -7 -28 -7q-28 0 -45 16t-17 42q0 27 22.5 46t56.5 19q38 0 64 -24t26 -65q0 -53 -41.5 -92.5t-126.5 -45.5z" />
    <glyph glyph-name="gcommaaccent" unicode="&#x123;" horiz-adv-x="563" 
d="M229 -229q-112 0 -173.5 30t-61.5 85q0 73 122 114v4q-35 7 -58.5 31t-23.5 61q0 66 83 121v4q-37 17 -61.5 53t-24.5 80q0 82 64.5 130t158.5 48q69 0 126 -19q73 69 139 69q28 0 44.5 -14t16.5 -41q0 -26 -12.5 -44t-37.5 -18q-22 0 -33 8.5t-21 25.5q-7 9 -25.5 4.5
t-39.5 -18.5v-4q69 -35 69 -114q0 -83 -65 -130t-161 -47q-56 0 -94 17q-26 -18 -26 -48q0 -39 54 -39h174q169 0 169 -136q0 -88 -76.5 -150.5t-225.5 -62.5zM254 239q41 0 59.5 26.5t18.5 91.5q0 70 -19 98.5t-59 28.5q-39 0 -57 -27.5t-18 -92.5q0 -69 18.5 -97t56.5 -28
zM251 -177q86 0 130.5 29.5t44.5 72.5q0 34 -19.5 50.5t-67.5 16.5h-166q-20 -10 -39 -34t-19 -55q0 -80 136 -80zM332 822l7 -28q-55 -12 -76.5 -33t-19.5 -50q14 7 28 7q28 0 45 -16t17 -42q0 -27 -22.5 -46t-56.5 -19q-38 0 -64 24t-26 65q0 53 41.5 92.5t126.5 45.5z
" />
    <glyph glyph-name="Hcircumflex" unicode="&#x124;" horiz-adv-x="804" 
d="M27 0v40l35 7q25 6 32.5 17.5t7.5 54.5v455q0 43 -7.5 54.5t-32.5 17.5l-35 8v39h330v-39l-35 -8q-27 -7 -34 -18t-7 -54v-191h240v191q0 43 -6.5 54t-32.5 18l-35 8v39h330v-39l-36 -8q-26 -6 -33.5 -17.5t-7.5 -54.5v-455q0 -43 7.5 -54.5t33.5 -17.5l36 -7v-40h-330
v40l35 7q25 6 32 17.5t7 54.5v207h-240v-207q0 -43 7 -54.5t34 -17.5l35 -7v-40h-330zM436 901l133 -127l-19 -31l-148 54l-148 -54l-19 31l132 127h69z" />
    <glyph glyph-name="hcircumflex" unicode="&#x125;" horiz-adv-x="652" 
d="M20 0v39l29 7q25 7 31 16t6 41v524q0 35 -5.5 45t-27.5 21l-38 19v35l223 19l14 -10q-8 -48 -8 -115v-79l-6 -98h4q101 68 197 68q136 0 136 -133v-296q0 -32 6.5 -41.5t30.5 -15.5l27 -7v-39h-282v39l27 6q22 6 27 14.5t5 43.5v251q0 46 -17 65t-56 19t-99 -19v-316
q0 -35 5 -43.5t27 -14.5l27 -6v-39h-283zM373 961l133 -127l-19 -31l-148 54l-148 -54l-19 31l132 127h69z" />
    <glyph glyph-name="Hbar" unicode="&#x126;" horiz-adv-x="804" 
d="M20 488v53h82v33q0 43 -7.5 54.5t-32.5 17.5l-35 8v39h330v-39l-35 -8q-27 -7 -34 -18t-7 -54v-33h240v33q0 43 -6.5 54t-32.5 18l-35 8v39h330v-39l-36 -8q-26 -6 -33.5 -17.5t-7.5 -54.5v-33h84v-53h-84v-369q0 -43 7.5 -54.5t33.5 -17.5l36 -7v-40h-330v40l35 7
q25 6 32 17.5t7 54.5v207h-240v-207q0 -43 7 -54.5t34 -17.5l35 -7v-40h-330v40l35 7q25 6 32.5 17.5t7.5 54.5v369h-82zM281 383h240v105h-240v-105z" />
    <glyph glyph-name="hbar" unicode="&#x127;" horiz-adv-x="652" 
d="M-1 593v51h87q-1 23 -7.5 31.5t-25.5 17.5l-38 19v35l223 19l14 -10q-8 -47 -8 -112h162v-51h-162v-31l-6 -98h4q101 68 197 68q136 0 136 -133v-296q0 -32 6.5 -41.5t30.5 -15.5l27 -7v-39h-282v39l27 6q22 6 27 14.5t5 43.5v251q0 46 -17 65t-56 19t-99 -19v-316
q0 -35 5 -43.5t27 -14.5l27 -6v-39h-283v39l29 7q25 7 31 16t6 41v490h-87z" />
    <glyph glyph-name="Itilde" unicode="&#x128;" horiz-adv-x="390" 
d="M27 0v40l38 7q25 6 32.5 17.5t7.5 54.5v455q0 44 -7 55t-33 17l-38 8v39h338v-39l-40 -8q-26 -6 -33 -17t-7 -55v-455q0 -43 7 -55t33 -17l40 -7v-40h-338zM50 759l-39 18q23 71 48.5 106t59.5 35q29 0 88 -24.5t75 -24.5q10 0 17.5 3.5t16 15.5t12 17.5t15.5 26.5
l38 -17q-24 -73 -47 -107t-58 -34q-29 0 -89 24.5t-76 24.5q-23 0 -46 -37q-1 -3 -15 -27z" />
    <glyph glyph-name="itilde" unicode="&#x129;" horiz-adv-x="326" 
d="M20 0v33l29 10q27 7 32 19t5 62v250q0 42 -5 52.5t-29 26.5l-35 24v32l220 23l15 -8l-6 -62q-2 -34 -2 -75v-263q0 -50 5.5 -62.5t30.5 -18.5l29 -10v-33h-289zM25 584l-39 18q23 71 48.5 106t59.5 35q29 0 80.5 -19.5t67.5 -19.5q10 0 17.5 3.5t16 15.5t12 17.5
t15.5 26.5l38 -17q-24 -73 -47 -107t-58 -34q-29 0 -81.5 19.5t-68.5 19.5q-23 0 -46 -37q-1 -3 -15 -27z" />
    <glyph glyph-name="Imacron" unicode="&#x12a;" horiz-adv-x="390" 
d="M27 0v40l38 7q25 6 32.5 17.5t7.5 54.5v455q0 44 -7 55t-33 17l-38 8v39h338v-39l-40 -8q-26 -6 -33 -17t-7 -55v-455q0 -43 7 -55t33 -17l40 -7v-40h-338zM43 777v79h306v-79h-306z" />
    <glyph glyph-name="imacron" unicode="&#x12b;" horiz-adv-x="326" 
d="M15 622v79h266v-79h-266zM20 0v33l29 10q27 7 32 19t5 62v250q0 42 -5 52.5t-29 26.5l-35 24v32l220 23l15 -8l-6 -62q-2 -34 -2 -75v-263q0 -50 5.5 -62.5t30.5 -18.5l29 -10v-33h-289z" />
    <glyph glyph-name="Ibreve" unicode="&#x12c;" horiz-adv-x="390" 
d="M27 0v40l38 7q25 6 32.5 17.5t7.5 54.5v455q0 44 -7 55t-33 17l-38 8v39h338v-39l-40 -8q-26 -6 -33 -17t-7 -55v-455q0 -43 7 -55t33 -17l40 -7v-40h-338zM197 754q-64 0 -107.5 41t-54.5 107l43 12q28 -63 119 -63q89 0 118 63l42 -12q-10 -67 -52.5 -107.5
t-107.5 -40.5z" />
    <glyph glyph-name="ibreve" unicode="&#x12d;" horiz-adv-x="326" 
d="M20 0v33l29 10q27 7 32 19t5 62v250q0 42 -5 52.5t-29 26.5l-35 24v32l220 23l15 -8l-6 -62q-2 -34 -2 -75v-263q0 -50 5.5 -62.5t30.5 -18.5l29 -10v-33h-289zM164 593q-61 0 -101 45t-51 119l43 12q16 -39 40.5 -59.5t68.5 -20.5q75 0 108 80l42 -12
q-10 -74 -49.5 -119t-100.5 -45z" />
    <glyph glyph-name="Iogonek" unicode="&#x12e;" horiz-adv-x="390" 
d="M27 0v40l38 7q25 6 32.5 17.5t7.5 54.5v455q0 44 -7 55t-33 17l-38 8v39h338v-39l-40 -8q-26 -6 -33 -17t-7 -55v-455q0 -43 7 -55t33 -17l40 -7v-40h-88q-30 -36 -42.5 -58.5t-12.5 -51.5q0 -34 29 -43q19 -6 69 -4v-39q-42 -30 -97 -30q-56 0 -89 24.5t-33 65.5
q0 79 110 136h-184z" />
    <glyph glyph-name="iogonek" unicode="&#x12f;" horiz-adv-x="326" 
d="M20 0v39l29 7q25 7 31 16t6 41v288q0 30 -5.5 39.5t-28.5 24.5l-35 22v32l221 23l14 -9q0 -1 -4 -48t-4 -95v-277q0 -33 6 -42t30 -15l29 -7v-39h-72q-30 -36 -42.5 -58.5t-12.5 -51.5q0 -34 29 -43q19 -6 69 -4v-39q-42 -30 -97 -30q-56 0 -89 24.5t-33 65.5
q0 79 111 136h-152zM161 594q-41 0 -68.5 25t-27.5 62q0 38 27.5 62.5t68.5 24.5q39 0 66 -24.5t27 -62.5q0 -37 -27.5 -62t-65.5 -25z" />
    <glyph glyph-name="Idotaccent" unicode="&#x130;" horiz-adv-x="390" 
d="M27 0v40l38 7q25 6 32.5 17.5t7.5 54.5v455q0 44 -7 55t-33 17l-38 8v39h338v-39l-40 -8q-26 -6 -33 -17t-7 -55v-455q0 -43 7 -55t33 -17l40 -7v-40h-338zM197 744q-40 0 -67.5 25t-27.5 62q0 38 27.5 62.5t67.5 24.5t67 -24.5t27 -62.5q0 -37 -27.5 -62t-66.5 -25z" />
    <glyph glyph-name="dotlessi" unicode="&#x131;" horiz-adv-x="326" 
d="M20 0v33l29 10q27 7 32 19t5 62v250q0 42 -5 52.5t-29 26.5l-35 24v32l220 23l15 -8l-6 -62q-2 -34 -2 -75v-263q0 -50 5.5 -62.5t30.5 -18.5l29 -10v-33h-289z" />
    <glyph glyph-name="IJ" unicode="&#x132;" horiz-adv-x="768" 
d="M27 0v40l38 7q25 6 32.5 17.5t7.5 54.5v455q0 44 -7 55t-33 17l-38 8v39h338v-39l-40 -8q-26 -6 -33 -17t-7 -55v-455q0 -43 7 -55t33 -17l40 -7v-40h-338zM421 -195q-74 0 -114 29t-40 73q0 32 19.5 50.5t53.5 18.5q40 0 58.5 -20.5t28.5 -76.5q3 -16 7.5 -21.5
t14.5 -5.5q23 0 33 16t10 60v646q0 44 -7 55t-33 17l-38 8v39h334v-39l-36 -8q-27 -6 -34 -17.5t-7 -54.5v-522q0 -111 -66 -179t-184 -68z" />
    <glyph glyph-name="ij" unicode="&#x133;" horiz-adv-x="640" 
d="M161 594q-41 0 -68.5 25t-27.5 62q0 38 27.5 62.5t68.5 24.5q39 0 66 -24.5t27 -62.5q0 -37 -27.5 -62t-65.5 -25zM20 0v39l29 7q25 7 31 16t6 41v288q0 30 -5.5 39.5t-28.5 24.5l-35 22v32l221 23l14 -9q0 -1 -4 -48t-4 -95v-277q0 -33 6 -42t30 -15l29 -7v-39h-289z
M486 594q-40 0 -67.5 25t-27.5 62q0 38 27 62.5t68 24.5q39 0 66 -24.5t27 -62.5q0 -37 -27 -62t-66 -25zM350 -226q-64 0 -100 27t-36 67q0 30 18 46t51 16q35 0 51 -17.5t20 -63.5q2 -17 6.5 -22.5t12.5 -5.5q19 0 29 15t10 38v517q0 30 -5.5 39.5t-28.5 24.5l-35 22v32
l221 23l14 -9q0 -9 -2.5 -30t-4 -52t-1.5 -69v-380q0 -104 -61 -161t-159 -57z" />
    <glyph glyph-name="Jcircumflex" unicode="&#x134;" horiz-adv-x="378" 
d="M31 -195q-74 0 -114 29t-40 73q0 32 19.5 50.5t53.5 18.5q40 0 58.5 -20.5t28.5 -76.5q3 -16 7.5 -21.5t14.5 -5.5q23 0 33 16t10 60v646q0 44 -7 55t-33 17l-38 8v39h334v-39l-36 -8q-27 -6 -34 -17.5t-7 -54.5v-522q0 -111 -66 -179t-184 -68zM224 901l133 -127
l-19 -31l-148 54l-148 -54l-19 31l132 127h69z" />
    <glyph glyph-name="jcircumflex" unicode="&#x135;" horiz-adv-x="314" 
d="M24 -226q-64 0 -100 27t-36 67q0 30 18 46t51 16q35 0 51 -17.5t20 -63.5q2 -17 6.5 -22.5t12.5 -5.5q19 0 29 15t10 38v517q0 30 -5.5 39.5t-28.5 24.5l-35 22v32l221 23l14 -9q0 -9 -2.5 -30t-4 -52t-1.5 -69v-380q0 -104 -61 -161t-159 -57zM192 766l131 -152l-22 -31
l-143 79l-143 -79l-22 31l130 152h69z" />
    <glyph glyph-name="Kcommaaccent" unicode="&#x136;" horiz-adv-x="749" 
d="M513 0q-121 157 -205 330v17l156 176q52 56 52 89q0 11 -10.5 20.5t-25.5 13.5l-31 8v39h258v-39l-12 -4q-28 -7 -48 -23t-65 -64l-137 -147q95 -184 217 -343q17 -19 34 -24l43 -9v-40h-226zM27 0v40l35 7q25 6 32.5 17.5t7.5 54.5v455q0 43 -7.5 54.5t-32.5 17.5l-35 8
v39h330v-39l-35 -8q-27 -7 -34 -17.5t-7 -54.5v-455q0 -43 7 -54.5t34 -17.5l35 -7v-40h-330zM304 -284l-7 28q55 12 76.5 33t19.5 50q-14 -7 -28 -7q-28 0 -45 16t-17 42q0 27 22.5 46t56.5 19q38 0 64 -24t26 -65q0 -53 -41.5 -92.5t-126.5 -45.5z" />
    <glyph glyph-name="kcommaaccent" unicode="&#x137;" horiz-adv-x="621" 
d="M20 0v39l29 7q25 7 31 16t6 41v524q0 35 -5.5 45t-27.5 21l-38 19v35l223 19l14 -10q-8 -48 -8 -115v-538q0 -34 5 -43t26 -15l26 -6v-39h-281zM421 0q-76 96 -162 246v24l101 102q50 54 50 74q0 23 -33 31l-16 4v38h228v-39l-23 -6q-23 -6 -43.5 -18.5t-52.5 -43.5
l-88 -87q107 -182 164 -250q15 -21 37 -28l25 -8v-39h-187zM235 -284l-7 28q55 12 76.5 33t19.5 50q-14 -7 -28 -7q-28 0 -45 16t-17 42q0 27 22.5 46t56.5 19q38 0 64 -24t26 -65q0 -53 -41.5 -92.5t-126.5 -45.5z" />
    <glyph glyph-name="Lacute" unicode="&#x139;" horiz-adv-x="640" 
d="M27 0v40l35 7q25 6 32.5 17.5t7.5 54.5v455q0 43 -7.5 54.5t-32.5 17.5l-35 8v39h337v-39l-42 -9q-27 -5 -34 -16t-7 -55v-429q0 -65 13.5 -78.5t79.5 -13.5q60 0 85 11.5t48 47.5q3 4 10.5 15.5t11 18l10.5 19l12.5 23t12.5 26.5t13 33h45l-17 -247h-578zM102 745
l-12 28l140 112q30 23 53 23t38 -18t15 -41q0 -44 -45 -55z" />
    <glyph glyph-name="lacute" unicode="&#x13a;" horiz-adv-x="330" 
d="M20 0v39l29 7q26 7 32.5 16t6.5 41v524q0 35 -5.5 45t-29.5 21l-38 19v35l224 19l15 -10q-8 -48 -8 -115v-538q0 -33 5.5 -41.5t31.5 -15.5l29 -7v-39h-292zM78 805l-12 28l140 112q30 23 53 23t38 -18t15 -41q0 -44 -45 -55z" />
    <glyph glyph-name="Lcommaaccent" unicode="&#x13b;" horiz-adv-x="640" 
d="M27 0v40l35 7q25 6 32.5 17.5t7.5 54.5v455q0 43 -7.5 54.5t-32.5 17.5l-35 8v39h337v-39l-42 -9q-27 -5 -34 -16t-7 -55v-429q0 -65 13.5 -78.5t79.5 -13.5q60 0 85 11.5t48 47.5q3 4 10.5 15.5t11 18l10.5 19l12.5 23t12.5 26.5t13 33h45l-17 -247h-578zM257 -284
l-7 28q55 12 76.5 33t19.5 50q-14 -7 -28 -7q-28 0 -45 16t-17 42q0 27 22.5 46t56.5 19q38 0 64 -24t26 -65q0 -53 -41.5 -92.5t-126.5 -45.5z" />
    <glyph glyph-name="lcommaaccent" unicode="&#x13c;" horiz-adv-x="330" 
d="M20 0v39l29 7q26 7 32.5 16t6.5 41v524q0 35 -5.5 45t-29.5 21l-38 19v35l224 19l15 -10q-8 -48 -8 -115v-538q0 -33 5.5 -41.5t31.5 -15.5l29 -7v-39h-292zM81 -284l-7 28q55 12 76.5 33t19.5 50q-14 -7 -28 -7q-28 0 -45 16t-17 42q0 27 22.5 46t56.5 19q38 0 64 -24
t26 -65q0 -53 -41.5 -92.5t-126.5 -45.5z" />
    <glyph glyph-name="Lcaron" unicode="&#x13d;" horiz-adv-x="640" 
d="M453 489l-25 6l11 165q3 53 52 53q24 0 41 -14t17 -35q0 -17 -14 -40zM27 0v40l35 7q25 6 32.5 17.5t7.5 54.5v455q0 43 -7.5 54.5t-32.5 17.5l-35 8v39h337v-39l-42 -9q-27 -5 -34 -16t-7 -55v-429q0 -65 13.5 -78.5t79.5 -13.5q60 0 85 11.5t48 47.5q3 4 10.5 15.5
t11 18l10.5 19l12.5 23t12.5 26.5t13 33h45l-17 -247h-578z" />
    <glyph glyph-name="lcaron" unicode="&#x13e;" horiz-adv-x="330" 
d="M20 0v39l29 7q26 7 32.5 16t6.5 41v524q0 35 -5.5 45t-29.5 21l-38 19v35l224 19l15 -10q-8 -48 -8 -115v-538q0 -33 5.5 -41.5t31.5 -15.5l29 -7v-39h-292zM333 569l-25 6l7 137q3 53 50 53q24 0 40.5 -14t16.5 -35q0 -18 -15 -40z" />
    <glyph glyph-name="Ldot" unicode="&#x13f;" horiz-adv-x="584" 
d="M27 0v40l35 7q25 6 32.5 17.5t7.5 54.5v455q0 43 -7.5 54.5t-32.5 17.5l-35 8v39h337v-39l-42 -9q-27 -5 -34 -16t-7 -55v-429q0 -65 13.5 -78.5t79.5 -13.5q60 0 85 11.5t48 47.5q3 4 10.5 15.5t11 18l10.5 19l12.5 23t12.5 26.5t13 33h45l-17 -247h-578zM506 313
q-36 0 -61.5 25t-25.5 61q0 35 25.5 60t61.5 25q37 0 62 -25t25 -60q0 -36 -25 -61t-62 -25z" />
    <glyph glyph-name="ldot" unicode="&#x140;" horiz-adv-x="412" 
d="M20 0v39l29 7q26 7 32.5 16t6.5 41v524q0 35 -5.5 45t-29.5 21l-38 19v35l224 19l15 -10q-8 -48 -8 -115v-538q0 -33 5.5 -41.5t31.5 -15.5l29 -7v-39h-292zM373 294q-34 0 -57.5 23t-23.5 56t24 56.5t57 23.5q34 0 57.5 -23.5t23.5 -56.5t-23.5 -56t-57.5 -23z" />
    <glyph glyph-name="Lslash" unicode="&#x141;" horiz-adv-x="627" 
d="M15 230v56l87 29v259q0 43 -7.5 54.5t-32.5 17.5l-35 8v39h337v-39l-42 -9q-27 -5 -34 -16t-7 -55v-197l202 69v-56l-202 -69v-176q0 -65 13.5 -78.5t79.5 -13.5q60 0 85 11.5t48 47.5q3 4 10.5 15.5t11 18l10.5 19l12.5 23t12.5 26.5t13 33h45l-17 -247h-578v40l35 7
q25 6 32.5 17.5t7.5 54.5v140z" />
    <glyph glyph-name="lslash" unicode="&#x142;" horiz-adv-x="330" 
d="M13 264v58l75 38v269q0 35 -5.5 45t-29.5 22l-38 18v35l224 20l14 -11q-7 -48 -7 -115v-204l74 38v-58l-74 -38v-278q0 -33 5.5 -41.5t31.5 -15.5l29 -7v-39h-292v39l29 7q26 7 32.5 16t6.5 41v199z" />
    <glyph glyph-name="Nacute" unicode="&#x143;" horiz-adv-x="740" 
d="M558 -2l-387 577h-4v-441q0 -54 8 -67.5t41 -19.5l36 -7v-40h-225v40l31 7q27 6 35.5 19.5t8.5 62.5v445q0 43 -7.5 54.5t-32.5 17.5l-35 8v39h274l270 -407h4v274q0 53 -7.5 66t-40.5 20l-41 8v39h229v-39l-30 -7q-28 -7 -36.5 -20t-8.5 -63v-566h-82zM323 745l-12 28
l140 112q30 23 53 23t38 -18t15 -41q0 -44 -45 -55z" />
    <glyph glyph-name="nacute" unicode="&#x144;" horiz-adv-x="658" 
d="M20 0v39l29 7q25 7 31 16t6 41v288q0 30 -5.5 39.5t-28.5 24.5l-35 22v32l211 23l14 -9l-7 -61h5q102 70 199 70q136 0 136 -133v-296q0 -32 6.5 -41.5t30.5 -15.5l27 -7v-39h-282v39l27 6q22 6 27 14.5t5 43.5v251q0 46 -17 65t-56 19t-99 -19v-316q0 -35 5 -43.5
t27 -14.5l27 -6v-39h-283zM250 590l-12 28l140 112q30 23 53 23t38 -18t15 -41q0 -44 -45 -55z" />
    <glyph glyph-name="Ncommaaccent" unicode="&#x145;" horiz-adv-x="740" 
d="M558 -2l-387 577h-4v-441q0 -54 8 -67.5t41 -19.5l36 -7v-40h-225v40l31 7q27 6 35.5 19.5t8.5 62.5v445q0 43 -7.5 54.5t-32.5 17.5l-35 8v39h274l270 -407h4v274q0 53 -7.5 66t-40.5 20l-41 8v39h229v-39l-30 -7q-28 -7 -36.5 -20t-8.5 -63v-566h-82zM284 -284l-7 28
q55 12 76.5 33t19.5 50q-14 -7 -28 -7q-28 0 -45 16t-17 42q0 27 22.5 46t56.5 19q38 0 64 -24t26 -65q0 -53 -41.5 -92.5t-126.5 -45.5z" />
    <glyph glyph-name="ncommaaccent" unicode="&#x146;" horiz-adv-x="658" 
d="M20 0v39l29 7q25 7 31 16t6 41v288q0 30 -5.5 39.5t-28.5 24.5l-35 22v32l211 23l14 -9l-7 -61h5q102 70 199 70q136 0 136 -133v-296q0 -32 6.5 -41.5t30.5 -15.5l27 -7v-39h-282v39l27 6q22 6 27 14.5t5 43.5v251q0 46 -17 65t-56 19t-99 -19v-316q0 -35 5 -43.5
t27 -14.5l27 -6v-39h-283zM252 -284l-7 28q55 12 76.5 33t19.5 50q-14 -7 -28 -7q-28 0 -45 16t-17 42q0 27 22.5 46t56.5 19q38 0 64 -24t26 -65q0 -53 -41.5 -92.5t-126.5 -45.5z" />
    <glyph glyph-name="Ncaron" unicode="&#x147;" horiz-adv-x="740" 
d="M558 -2l-387 577h-4v-441q0 -54 8 -67.5t41 -19.5l36 -7v-40h-225v40l31 7q27 6 35.5 19.5t8.5 62.5v445q0 43 -7.5 54.5t-32.5 17.5l-35 8v39h274l270 -407h4v274q0 53 -7.5 66t-40.5 20l-41 8v39h229v-39l-30 -7q-28 -7 -36.5 -20t-8.5 -63v-566h-82zM374 756l-133 127
l19 31l148 -54l148 54l19 -31l-132 -127h-69z" />
    <glyph glyph-name="ncaron" unicode="&#x148;" horiz-adv-x="658" 
d="M20 0v39l29 7q25 7 31 16t6 41v288q0 30 -5.5 39.5t-28.5 24.5l-35 22v32l211 23l14 -9l-7 -61h5q102 70 199 70q136 0 136 -133v-296q0 -32 6.5 -41.5t30.5 -15.5l27 -7v-39h-282v39l27 6q22 6 27 14.5t5 43.5v251q0 46 -17 65t-56 19t-99 -19v-316q0 -35 5 -43.5
t27 -14.5l27 -6v-39h-283zM300 591l-131 151l22 32l143 -80l143 80l22 -32l-130 -151h-69z" />
    <glyph glyph-name="napostrophe" unicode="&#x149;" horiz-adv-x="768" 
d="M-91 383l-13 36q57 26 89 64t30 76q-11 -9 -34 -9q-32 0 -51.5 21.5t-19.5 55.5q0 35 25.5 56.5t63.5 21.5q43 0 74.5 -30.5t31.5 -81.5q0 -74 -53 -132t-143 -78zM130 0v39l29 7q25 7 31 16t6 41v288q0 30 -5.5 39.5t-28.5 24.5l-35 22v32l211 23l14 -9l-7 -61h5
q102 70 199 70q136 0 136 -133v-296q0 -32 6.5 -41.5t30.5 -15.5l27 -7v-39h-282v39l27 6q22 6 27 14.5t5 43.5v251q0 46 -17 65t-56 19t-99 -19v-316q0 -35 5 -43.5t27 -14.5l27 -6v-39h-283z" />
    <glyph glyph-name="Eng" unicode="&#x14a;" horiz-adv-x="740" 
d="M493 -182q36 0 59 33.5t23 107.5v14l-404 602h-4v-441q0 -54 8 -67.5t41 -19.5l36 -7v-40h-225v40l31 7q27 6 35.5 19.5t8.5 62.5v445q0 43 -7.5 54.5t-32.5 17.5l-35 8v39h274l270 -407h4v274q0 53 -7.5 66t-40.5 20l-41 8v39h229v-39l-30 -7q-28 -7 -36.5 -20t-8.5 -63
v-595q0 -86 -43 -142t-131 -56q-76 0 -116.5 29t-40.5 73q0 32 19.5 50.5t53.5 18.5q40 0 58.5 -21t28.5 -77q3 -15 8 -20.5t16 -5.5z" />
    <glyph glyph-name="eng" unicode="&#x14b;" horiz-adv-x="638" 
d="M416 -119v473q0 46 -17 65t-56 19t-99 -19v-316q0 -35 5 -43.5t27 -14.5l27 -6v-39h-283v39l29 7q25 7 31 16t6 41v288q0 30 -5.5 39.5t-28.5 24.5l-35 22v32l211 23l14 -9l-7 -61h5q102 70 199 70q136 0 136 -133v-391q0 -111 -61.5 -172.5t-159.5 -61.5q-64 0 -100 27
t-36 67q0 30 18 46t51 16q35 0 51 -17.5t20 -63.5q2 -17 6.5 -22.5t12.5 -5.5q39 0 39 60z" />
    <glyph glyph-name="Omacron" unicode="&#x14c;" horiz-adv-x="763" 
d="M378 -12q-93 0 -168.5 36.5t-124.5 117.5t-49 196q0 94 31 167.5t82 115.5t111 63t125 21q145 0 243.5 -89t98.5 -263q0 -95 -31 -168t-82.5 -114.5t-111 -62t-124.5 -20.5zM383 42q57 0 89.5 23.5t50 87.5t17.5 179q0 173 -36 246t-125 73q-55 0 -87.5 -23.5
t-50.5 -88.5t-18 -180q0 -172 35.5 -244.5t124.5 -72.5zM228 777v79h306v-79h-306z" />
    <glyph glyph-name="omacron" unicode="&#x14d;" horiz-adv-x="612" 
d="M307 -12q-120 0 -199 70t-79 201q0 91 41 154.5t102.5 91.5t134.5 28q118 0 197 -69.5t79 -200.5q0 -134 -80.5 -204.5t-195.5 -70.5zM310 39q53 0 79.5 46t26.5 174q0 90 -14 140t-37 66t-63 16q-54 0 -80 -45.5t-26 -166.5q0 -135 26 -182.5t88 -47.5zM158 622v79h296
v-79h-296z" />
    <glyph glyph-name="Obreve" unicode="&#x14e;" horiz-adv-x="763" 
d="M378 -12q-93 0 -168.5 36.5t-124.5 117.5t-49 196q0 94 31 167.5t82 115.5t111 63t125 21q145 0 243.5 -89t98.5 -263q0 -95 -31 -168t-82.5 -114.5t-111 -62t-124.5 -20.5zM383 42q57 0 89.5 23.5t50 87.5t17.5 179q0 173 -36 246t-125 73q-55 0 -87.5 -23.5
t-50.5 -88.5t-18 -180q0 -172 35.5 -244.5t124.5 -72.5zM382 754q-64 0 -107.5 41t-54.5 107l43 12q15 -33 42 -48t77 -15q89 0 118 63l42 -12q-10 -67 -52.5 -107.5t-107.5 -40.5z" />
    <glyph glyph-name="obreve" unicode="&#x14f;" horiz-adv-x="612" 
d="M307 -12q-120 0 -199 70t-79 201q0 91 41 154.5t102.5 91.5t134.5 28q118 0 197 -69.5t79 -200.5q0 -134 -80.5 -204.5t-195.5 -70.5zM310 39q53 0 79.5 46t26.5 174q0 90 -14 140t-37 66t-63 16q-54 0 -80 -45.5t-26 -166.5q0 -135 26 -182.5t88 -47.5zM307 593
q-61 0 -101 45t-51 119l43 12q16 -39 40.5 -59.5t68.5 -20.5q75 0 108 80l42 -12q-10 -74 -49.5 -119t-100.5 -45z" />
    <glyph glyph-name="Ohungarumlaut" unicode="&#x150;" horiz-adv-x="763" 
d="M378 -12q-93 0 -168.5 36.5t-124.5 117.5t-49 196q0 94 31 167.5t82 115.5t111 63t125 21q145 0 243.5 -89t98.5 -263q0 -95 -31 -168t-82.5 -114.5t-111 -62t-124.5 -20.5zM383 42q57 0 89.5 23.5t50 87.5t17.5 179q0 173 -36 246t-125 73q-55 0 -87.5 -23.5
t-50.5 -88.5t-18 -180q0 -172 35.5 -244.5t124.5 -72.5zM469 759l-20 22l69 114q22 37 49 37q20 0 39 -17.5t19 -37.5q0 -30 -39 -52zM283 759l-20 22l68 114q22 37 50 37q18 0 37 -16.5t19 -37.5q0 -34 -43 -58z" />
    <glyph glyph-name="ohungarumlaut" unicode="&#x151;" horiz-adv-x="612" 
d="M307 -12q-120 0 -199 70t-79 201q0 91 41 154.5t102.5 91.5t134.5 28q118 0 197 -69.5t79 -200.5q0 -134 -80.5 -204.5t-195.5 -70.5zM310 39q53 0 79.5 46t26.5 174q0 90 -14 140t-37 66t-63 16q-54 0 -80 -45.5t-26 -166.5q0 -135 26 -182.5t88 -47.5zM388 587l-20 22
l78 123q21 38 49 38q20 0 39 -16.5t19 -36.5q0 -33 -37 -53zM202 587l-20 22l77 123q19 38 50 38q19 0 37.5 -15.5t18.5 -36.5q0 -35 -41 -59z" />
    <glyph glyph-name="OE" unicode="&#x152;" horiz-adv-x="1025" 
d="M385 644q-89 0 -125.5 -62.5t-36.5 -220.5q0 -179 37 -245.5t132 -66.5q45 0 66.5 17t21.5 71v415q0 52 -19 72t-76 20zM385 0q-71 0 -131 18t-110.5 56.5t-79 106t-28.5 158.5q0 89 29.5 158.5t80 111.5t113 63t133.5 21h568l12 -200h-44q-29 65 -57 106
q-23 29 -45.5 34.5t-83.5 5.5q-45 0 -83 -9v-243h3q54 0 74 6t30 23q23 39 31 68h43v-253h-43q-6 23 -31 72q-10 19 -27.5 24t-77.5 5h-2v-188q0 -67 13 -78.5t79 -11.5q65 0 87.5 8t46.5 41q24 31 67 133h44l-14 -236h-597z" />
    <glyph glyph-name="oe" unicode="&#x153;" horiz-adv-x="932" 
d="M672 -12q-130 0 -187 86q-68 -86 -186 -86q-116 0 -193 70t-77 201q0 134 80 204t195 70q124 0 189 -92q69 92 185 92q221 0 225 -261h-341q5 -106 48.5 -150.5t124.5 -44.5q75 0 153 38v-45q-31 -33 -88 -57.5t-128 -24.5zM306 39q26 0 43.5 8.5t31.5 31t21 65.5t7 109
q0 94 -13 144.5t-35.5 67t-61.5 16.5q-54 0 -78.5 -44.5t-24.5 -161.5q0 -96 12 -147.5t34.5 -70t63.5 -18.5zM664 483q-95 0 -102 -161l182 9q0 90 -16.5 121t-63.5 31z" />
    <glyph glyph-name="Racute" unicode="&#x154;" horiz-adv-x="735" 
d="M27 0v40l35 7q25 6 32.5 17.5t7.5 54.5v455q0 43 -7.5 54.5t-32.5 17.5l-35 8v39h333q148 0 216 -45.5t68 -137.5q0 -130 -140 -170v-4q76 -152 158 -266q3 -4 5.5 -6.5t4.5 -4t7.5 -3.5t7.5 -3t11 -4t14 -4l19 -5v-40h-218q-88 115 -165 295q-4 0 -36 0.5t-34 0.5v-177
q0 -42 8 -54t33 -18l37 -7v-40h-329zM330 348q70 0 101 33.5t31 115.5q0 85 -23.5 114t-86.5 29q-44 0 -74 -7v-281q20 -4 52 -4zM260 745l-12 28l140 112q30 23 53 23t38 -18t15 -41q0 -44 -45 -55z" />
    <glyph glyph-name="racute" unicode="&#x155;" horiz-adv-x="487" 
d="M20 0v39l29 7q25 7 31 16t6 41v288q0 30 -5.5 39.5t-28.5 24.5l-35 22v32l211 23l14 -10l-7 -66h5q27 29 70 52.5t84 23.5q36 0 56.5 -19.5t20.5 -54.5t-18.5 -55.5t-50.5 -20.5q-34 0 -48.5 8t-30.5 33q-9 14 -27 14q-20 0 -52 -30v-304q0 -35 5.5 -44t27.5 -13l36 -7
v-39h-293zM190 590l-12 28l140 112q30 23 53 23t38 -18t15 -41q0 -44 -45 -55z" />
    <glyph glyph-name="Rcommaaccent" unicode="&#x156;" horiz-adv-x="735" 
d="M27 0v40l35 7q25 6 32.5 17.5t7.5 54.5v455q0 43 -7.5 54.5t-32.5 17.5l-35 8v39h333q148 0 216 -45.5t68 -137.5q0 -130 -140 -170v-4q76 -152 158 -266q3 -4 5.5 -6.5t4.5 -4t7.5 -3.5t7.5 -3t11 -4t14 -4l19 -5v-40h-218q-88 115 -165 295q-4 0 -36 0.5t-34 0.5v-177
q0 -42 8 -54t33 -18l37 -7v-40h-329zM330 348q70 0 101 33.5t31 115.5q0 85 -23.5 114t-86.5 29q-44 0 -74 -7v-281q20 -4 52 -4zM295 -284l-7 28q55 12 76.5 33t19.5 50q-14 -7 -28 -7q-28 0 -45 16t-17 42q0 27 22.5 46t56.5 19q38 0 64 -24t26 -65q0 -53 -41.5 -92.5
t-126.5 -45.5z" />
    <glyph glyph-name="rcommaaccent" unicode="&#x157;" horiz-adv-x="487" 
d="M20 0v39l29 7q25 7 31 16t6 41v288q0 30 -5.5 39.5t-28.5 24.5l-35 22v32l211 23l14 -10l-7 -66h5q27 29 70 52.5t84 23.5q36 0 56.5 -19.5t20.5 -54.5t-18.5 -55.5t-50.5 -20.5q-34 0 -48.5 8t-30.5 33q-9 14 -27 14q-20 0 -52 -30v-304q0 -35 5.5 -44t27.5 -13l36 -7
v-39h-293zM77 -284l-7 28q55 12 76.5 33t19.5 50q-14 -7 -28 -7q-28 0 -45 16t-17 42q0 27 22.5 46t56.5 19q38 0 64 -24t26 -65q0 -53 -41.5 -92.5t-126.5 -45.5z" />
    <glyph glyph-name="Rcaron" unicode="&#x158;" horiz-adv-x="735" 
d="M27 0v40l35 7q25 6 32.5 17.5t7.5 54.5v455q0 43 -7.5 54.5t-32.5 17.5l-35 8v39h333q148 0 216 -45.5t68 -137.5q0 -130 -140 -170v-4q76 -152 158 -266q3 -4 5.5 -6.5t4.5 -4t7.5 -3.5t7.5 -3t11 -4t14 -4l19 -5v-40h-218q-88 115 -165 295q-4 0 -36 0.5t-34 0.5v-177
q0 -42 8 -54t33 -18l37 -7v-40h-329zM330 348q70 0 101 33.5t31 115.5q0 85 -23.5 114t-86.5 29q-44 0 -74 -7v-281q20 -4 52 -4zM311 756l-133 127l19 31l148 -54l148 54l19 -31l-132 -127h-69z" />
    <glyph glyph-name="rcaron" unicode="&#x159;" horiz-adv-x="487" 
d="M20 0v39l29 7q25 7 31 16t6 41v288q0 30 -5.5 39.5t-28.5 24.5l-35 22v32l211 23l14 -10l-7 -66h5q27 29 70 52.5t84 23.5q36 0 56.5 -19.5t20.5 -54.5t-18.5 -55.5t-50.5 -20.5q-34 0 -48.5 8t-30.5 33q-9 14 -27 14q-20 0 -52 -30v-304q0 -35 5.5 -44t27.5 -13l36 -7
v-39h-293zM240 591l-131 151l22 32l143 -80l143 80l22 -32l-130 -151h-69z" />
    <glyph glyph-name="Sacute" unicode="&#x15a;" horiz-adv-x="558" 
d="M256 -12q-114 0 -210 30l-12 194h43q42 -80 74 -120q41 -51 111 -51q54 0 89 29.5t35 70.5q0 43 -33 73.5t-122 64.5q-107 40 -149 90.5t-42 128.5q0 91 69.5 149t182.5 58q117 0 179 -20l12 -174h-43q-39 75 -68 107q-31 34 -91 34q-51 0 -83 -27t-32 -68
q0 -37 27.5 -61t112.5 -57q119 -45 168.5 -95t49.5 -124q0 -100 -71.5 -166t-196.5 -66zM202 745l-12 28l140 112q30 23 53 23t38 -18t15 -41q0 -44 -45 -55z" />
    <glyph glyph-name="sacute" unicode="&#x15b;" horiz-adv-x="459" 
d="M202 -12q-84 0 -162 19l-9 153h40q29 -54 58 -87q32 -34 92 -34q87 0 87 66q0 33 -26.5 52t-98.5 46q-74 27 -111.5 65t-37.5 97q0 74 57.5 121t158.5 47q90 0 141 -18l5 -136h-37q-24 39 -58 78q-25 25 -68 25q-83 0 -83 -66q0 -25 24 -43t88 -41q90 -32 130 -70t40 -96
q0 -80 -61 -129t-169 -49zM153 590l-12 28l140 112q30 23 53 23t38 -18t15 -41q0 -44 -45 -55z" />
    <glyph glyph-name="Scircumflex" unicode="&#x15c;" horiz-adv-x="558" 
d="M256 -12q-114 0 -210 30l-12 194h43q42 -80 74 -120q41 -51 111 -51q54 0 89 29.5t35 70.5q0 43 -33 73.5t-122 64.5q-107 40 -149 90.5t-42 128.5q0 91 69.5 149t182.5 58q117 0 179 -20l12 -174h-43q-39 75 -68 107q-31 34 -91 34q-51 0 -83 -27t-32 -68
q0 -37 27.5 -61t112.5 -57q119 -45 168.5 -95t49.5 -124q0 -100 -71.5 -166t-196.5 -66zM321 901l133 -127l-19 -31l-148 54l-148 -54l-19 31l132 127h69z" />
    <glyph glyph-name="scircumflex" unicode="&#x15d;" horiz-adv-x="459" 
d="M202 -12q-84 0 -162 19l-9 153h40q29 -54 58 -87q32 -34 92 -34q87 0 87 66q0 33 -26.5 52t-98.5 46q-74 27 -111.5 65t-37.5 97q0 74 57.5 121t158.5 47q90 0 141 -18l5 -136h-37q-24 39 -58 78q-25 25 -68 25q-83 0 -83 -66q0 -25 24 -43t88 -41q90 -32 130 -70t40 -96
q0 -80 -61 -129t-169 -49zM271 766l131 -152l-22 -31l-143 79l-143 -79l-22 31l130 152h69z" />
    <glyph glyph-name="Scedilla" unicode="&#x15e;" horiz-adv-x="558" 
d="M145 -260v33q118 27 118 73q0 34 -74 38l-9 10l47 95q-104 4 -181 29l-12 194h43q42 -80 74 -120q41 -51 111 -51q54 0 89 29.5t35 70.5q0 43 -33 73.5t-122 64.5q-107 40 -149 90.5t-42 128.5q0 91 69.5 149t182.5 58q117 0 179 -20l12 -174h-43q-39 75 -68 107
q-31 34 -91 34q-51 0 -83 -27t-32 -68q0 -37 27.5 -61t112.5 -57q119 -45 168.5 -95t49.5 -124q0 -95 -65 -159.5t-180 -71.5l-32 -44q56 -4 84 -25.5t28 -53.5q0 -45 -55.5 -80t-158.5 -46z" />
    <glyph glyph-name="scedilla" unicode="&#x15f;" horiz-adv-x="459" 
d="M93 -260v33q118 27 118 73q0 34 -74 38l-9 10l47 95q-68 3 -135 18l-9 153h40q29 -54 58 -87q32 -34 92 -34q87 0 87 66q0 33 -26.5 52t-98.5 46q-74 27 -111.5 65t-37.5 97q0 74 57.5 121t158.5 47q90 0 141 -18l5 -136h-37q-24 39 -58 78q-25 25 -68 25q-83 0 -83 -66
q0 -25 24 -43t88 -41q90 -32 130 -70t40 -96q0 -75 -54 -123t-151 -54l-32 -44q56 -4 84 -25.5t28 -53.5q0 -45 -55.5 -80t-158.5 -46z" />
    <glyph glyph-name="Scaron" unicode="&#x160;" horiz-adv-x="558" 
d="M256 -12q-114 0 -210 30l-12 194h43q42 -80 74 -120q41 -51 111 -51q54 0 89 29.5t35 70.5q0 43 -33 73.5t-122 64.5q-107 40 -149 90.5t-42 128.5q0 91 69.5 149t182.5 58q117 0 179 -20l12 -174h-43q-39 75 -68 107q-31 34 -91 34q-51 0 -83 -27t-32 -68
q0 -37 27.5 -61t112.5 -57q119 -45 168.5 -95t49.5 -124q0 -100 -71.5 -166t-196.5 -66zM253 756l-133 127l19 31l148 -54l148 54l19 -31l-132 -127h-69z" />
    <glyph glyph-name="scaron" unicode="&#x161;" horiz-adv-x="459" 
d="M202 -12q-84 0 -162 19l-9 153h40q29 -54 58 -87q32 -34 92 -34q87 0 87 66q0 33 -26.5 52t-98.5 46q-74 27 -111.5 65t-37.5 97q0 74 57.5 121t158.5 47q90 0 141 -18l5 -136h-37q-24 39 -58 78q-25 25 -68 25q-83 0 -83 -66q0 -25 24 -43t88 -41q90 -32 130 -70t40 -96
q0 -80 -61 -129t-169 -49zM203 591l-131 151l22 32l143 -80l143 80l22 -32l-130 -151h-69z" />
    <glyph glyph-name="Tcommaaccent" unicode="&#x162;" horiz-adv-x="668" 
d="M163 0v40l39 7q29 6 36 17t7 55v521q-50 0 -71 -8t-41 -36q-9 -12 -17.5 -28t-14 -28.5l-17 -40l-18.5 -44.5h-45l10 238h606l10 -238h-45q-4 9 -12.5 30.5l-11.5 29t-9.5 22.5t-10.5 23t-10 18t-12 18q-22 30 -41 37t-71 7v-521q0 -44 6.5 -55t35.5 -17l39 -7v-40h-342z
M252 -284l-7 28q55 12 76.5 33t19.5 50q-14 -7 -28 -7q-28 0 -45 16t-17 42q0 27 22.5 46t56.5 19q38 0 64 -24t26 -65q0 -53 -41.5 -92.5t-126.5 -45.5z" />
    <glyph glyph-name="tcommaaccent" unicode="&#x163;" horiz-adv-x="388" 
d="M215 -12q-142 0 -142 136v324h-65v36q109 37 155 171h69v-136h140l-17 -71h-123v-310q0 -37 15 -53t53 -16q24 0 74 11v-40q-48 -52 -159 -52zM116 -284l-7 28q55 12 76.5 33t19.5 50q-14 -7 -28 -7q-28 0 -45 16t-17 42q0 27 22.5 46t56.5 19q38 0 64 -24t26 -65
q0 -53 -41.5 -92.5t-126.5 -45.5z" />
    <glyph glyph-name="Tcaron" unicode="&#x164;" horiz-adv-x="668" 
d="M163 0v40l39 7q29 6 36 17t7 55v521q-50 0 -71 -8t-41 -36q-9 -12 -17.5 -28t-14 -28.5l-17 -40l-18.5 -44.5h-45l10 238h606l10 -238h-45q-4 9 -12.5 30.5l-11.5 29t-9.5 22.5t-10.5 23t-10 18t-12 18q-22 30 -41 37t-71 7v-521q0 -44 6.5 -55t35.5 -17l39 -7v-40h-342z
M300 756l-133 127l19 31l148 -54l148 54l19 -31l-132 -127h-69z" />
    <glyph glyph-name="tcaron" unicode="&#x165;" horiz-adv-x="388" 
d="M215 -12q-142 0 -142 136v324h-65v36q109 37 155 171h69v-136h140l-17 -71h-123v-310q0 -37 15 -53t53 -16q24 0 74 11v-40q-48 -52 -159 -52zM322 569l-25 6l7 137q3 53 50 53q24 0 40.5 -14t16.5 -35q0 -18 -15 -40z" />
    <glyph glyph-name="Tbar" unicode="&#x166;" horiz-adv-x="668" 
d="M102 349v53h143v238q-50 0 -71 -8t-41 -36q-9 -12 -17.5 -28t-14 -28.5l-17 -40l-18.5 -44.5h-45l10 238h606l10 -238h-45q-4 9 -12.5 30.5l-11.5 29t-9.5 22.5t-10.5 23t-10 18t-12 18q-22 30 -41 37t-71 7v-238h143v-53h-143v-230q0 -44 6.5 -55t35.5 -17l39 -7v-40
h-342v40l39 7q29 6 36 17t7 55v230h-143z" />
    <glyph glyph-name="tbar" unicode="&#x167;" horiz-adv-x="388" 
d="M8 305v51h65v92h-65v36q109 37 155 171h69v-136h140l-17 -71h-123v-92h134v-51h-134v-167q0 -37 15 -53t53 -16q24 0 74 11v-40q-48 -52 -159 -52q-142 0 -142 136v181h-65z" />
    <glyph glyph-name="Utilde" unicode="&#x168;" horiz-adv-x="739" 
d="M390 -12q-295 0 -295 235v351q0 43 -7.5 54.5t-32.5 17.5l-37 8v39h331v-39l-34 -8q-27 -6 -34 -17t-7 -55v-371q0 -77 35 -109t123 -32q149 0 149 155v343q0 53 -8 66t-41 20l-42 8v39h229v-39l-30 -7q-27 -7 -35.5 -20t-8.5 -63v-355q0 -98 -64 -159.5t-191 -61.5z
M269 759l-39 18q23 71 48.5 106t59.5 35q29 0 88 -24.5t75 -24.5q10 0 17.5 3.5t16 15.5t12 17.5t15.5 26.5l38 -17q-24 -73 -47 -107t-58 -34q-29 0 -89 24.5t-76 24.5q-23 0 -46 -37q-1 -3 -15 -27z" />
    <glyph glyph-name="utilde" unicode="&#x169;" horiz-adv-x="656" 
d="M219 -12q-63 0 -99 34t-36 99v275q0 31 -4.5 40t-27.5 22l-37 20v32l210 22l17 -11v-360q0 -43 17 -62t54 -19t102 25v291q0 31 -5 40.5t-28 21.5l-35 20v32l210 22l16 -11v-390q0 -37 5.5 -47t28.5 -19l29 -13v-35l-205 -29l-14 10l6 65h-4q-106 -75 -200 -75zM193 584
l-39 18q23 71 48.5 106t59.5 35q29 0 80.5 -19.5t67.5 -19.5q10 0 17.5 3.5t16 15.5t12 17.5t15.5 26.5l38 -17q-24 -73 -47 -107t-58 -34q-29 0 -81.5 19.5t-68.5 19.5q-23 0 -46 -37q-1 -3 -15 -27z" />
    <glyph glyph-name="Umacron" unicode="&#x16a;" horiz-adv-x="739" 
d="M390 -12q-295 0 -295 235v351q0 43 -7.5 54.5t-32.5 17.5l-37 8v39h331v-39l-34 -8q-27 -6 -34 -17t-7 -55v-371q0 -77 35 -109t123 -32q149 0 149 155v343q0 53 -8 66t-41 20l-42 8v39h229v-39l-30 -7q-27 -7 -35.5 -20t-8.5 -63v-355q0 -98 -64 -159.5t-191 -61.5z
M262 777v79h306v-79h-306z" />
    <glyph glyph-name="umacron" unicode="&#x16b;" horiz-adv-x="656" 
d="M219 -12q-63 0 -99 34t-36 99v275q0 31 -4.5 40t-27.5 22l-37 20v32l210 22l17 -11v-360q0 -43 17 -62t54 -19t102 25v291q0 31 -5 40.5t-28 21.5l-35 20v32l210 22l16 -11v-390q0 -37 5.5 -47t28.5 -19l29 -13v-35l-205 -29l-14 10l6 65h-4q-106 -75 -200 -75zM183 622
v79h296v-79h-296z" />
    <glyph glyph-name="Ubreve" unicode="&#x16c;" horiz-adv-x="739" 
d="M390 -12q-295 0 -295 235v351q0 43 -7.5 54.5t-32.5 17.5l-37 8v39h331v-39l-34 -8q-27 -6 -34 -17t-7 -55v-371q0 -77 35 -109t123 -32q149 0 149 155v343q0 53 -8 66t-41 20l-42 8v39h229v-39l-30 -7q-27 -7 -35.5 -20t-8.5 -63v-355q0 -98 -64 -159.5t-191 -61.5z
M416 754q-64 0 -107.5 41t-54.5 107l43 12q15 -33 42 -48t77 -15q89 0 118 63l42 -12q-10 -67 -52.5 -107.5t-107.5 -40.5z" />
    <glyph glyph-name="ubreve" unicode="&#x16d;" horiz-adv-x="656" 
d="M219 -12q-63 0 -99 34t-36 99v275q0 31 -4.5 40t-27.5 22l-37 20v32l210 22l17 -11v-360q0 -43 17 -62t54 -19t102 25v291q0 31 -5 40.5t-28 21.5l-35 20v32l210 22l16 -11v-390q0 -37 5.5 -47t28.5 -19l29 -13v-35l-205 -29l-14 10l6 65h-4q-106 -75 -200 -75zM332 593
q-61 0 -101 45t-51 119l43 12q16 -39 40.5 -59.5t68.5 -20.5q75 0 108 80l42 -12q-10 -74 -49.5 -119t-100.5 -45z" />
    <glyph glyph-name="Uring" unicode="&#x16e;" horiz-adv-x="739" 
d="M390 -12q-295 0 -295 235v351q0 43 -7.5 54.5t-32.5 17.5l-37 8v39h331v-39l-34 -8q-27 -6 -34 -17t-7 -55v-371q0 -77 35 -109t123 -32q149 0 149 155v343q0 53 -8 66t-41 20l-42 8v39h229v-39l-30 -7q-27 -7 -35.5 -20t-8.5 -63v-355q0 -98 -64 -159.5t-191 -61.5z
M420 711q-51 0 -83 30.5t-32 76.5t33.5 77.5t81.5 31.5q49 0 82 -30.5t33 -78.5q0 -46 -33 -76.5t-82 -30.5zM420 756q26 0 41.5 17.5t15.5 44.5t-15.5 45t-41.5 18t-41.5 -18t-15.5 -45t15.5 -44.5t41.5 -17.5z" />
    <glyph glyph-name="uring" unicode="&#x16f;" horiz-adv-x="656" 
d="M219 -12q-63 0 -99 34t-36 99v275q0 31 -4.5 40t-27.5 22l-37 20v32l210 22l17 -11v-360q0 -43 17 -62t54 -19t102 25v291q0 31 -5 40.5t-28 21.5l-35 20v32l210 22l16 -11v-390q0 -37 5.5 -47t28.5 -19l29 -13v-35l-205 -29l-14 10l6 65h-4q-106 -75 -200 -75zM331 585
q-51 0 -83 30.5t-32 76.5t33.5 77.5t81.5 31.5q49 0 82 -30.5t33 -78.5q0 -46 -33 -76.5t-82 -30.5zM331 630q26 0 41.5 17.5t15.5 44.5t-15.5 45t-41.5 18t-41.5 -18t-15.5 -45t15.5 -44.5t41.5 -17.5z" />
    <glyph glyph-name="Uhungarumlaut" unicode="&#x170;" horiz-adv-x="739" 
d="M390 -12q-295 0 -295 235v351q0 43 -7.5 54.5t-32.5 17.5l-37 8v39h331v-39l-34 -8q-27 -6 -34 -17t-7 -55v-371q0 -77 35 -109t123 -32q149 0 149 155v343q0 53 -8 66t-41 20l-42 8v39h229v-39l-30 -7q-27 -7 -35.5 -20t-8.5 -63v-355q0 -98 -64 -159.5t-191 -61.5z
M503 759l-20 22l69 114q22 37 49 37q20 0 39 -17.5t19 -37.5q0 -30 -39 -52zM317 759l-20 22l68 114q22 37 50 37q18 0 37 -16.5t19 -37.5q0 -34 -43 -58z" />
    <glyph glyph-name="uhungarumlaut" unicode="&#x171;" horiz-adv-x="656" 
d="M219 -12q-63 0 -99 34t-36 99v275q0 31 -4.5 40t-27.5 22l-37 20v32l210 22l17 -11v-360q0 -43 17 -62t54 -19t102 25v291q0 31 -5 40.5t-28 21.5l-35 20v32l210 22l16 -11v-390q0 -37 5.5 -47t28.5 -19l29 -13v-35l-205 -29l-14 10l6 65h-4q-106 -75 -200 -75zM413 587
l-20 22l78 123q21 38 49 38q20 0 39 -16.5t19 -36.5q0 -33 -37 -53zM227 587l-20 22l77 123q19 38 50 38q19 0 37.5 -15.5t18.5 -36.5q0 -35 -41 -59z" />
    <glyph glyph-name="Uogonek" unicode="&#x172;" horiz-adv-x="739" 
d="M426 -226q-56 0 -89 24.5t-33 65.5q0 73 106 125q-7 -1 -20 -1q-295 0 -295 235v351q0 43 -7.5 54.5t-32.5 17.5l-37 8v39h331v-39l-34 -8q-27 -6 -34 -17t-7 -55v-371q0 -77 35 -109t123 -32q149 0 149 155v343q0 53 -8 66t-41 20l-42 8v39h229v-39l-30 -7
q-27 -7 -35.5 -20t-8.5 -63v-355q0 -121 -90 -179l-36 -21t-37.5 -23.5t-27.5 -23.5t-22.5 -32.5t-6.5 -39.5q0 -34 29 -43q19 -6 69 -4v-39q-42 -30 -97 -30z" />
    <glyph glyph-name="uogonek" unicode="&#x173;" horiz-adv-x="656" 
d="M421 -226q-56 0 -89 24.5t-33 65.5q0 76 117 130l7 69h-4q-106 -75 -200 -75q-63 0 -99 34t-36 99v275q0 31 -4.5 40t-27.5 22l-37 20v32l210 22l17 -11v-360q0 -43 17 -62t54 -19t102 25v291q0 31 -5 40.5t-28 21.5l-35 20v32l210 22l16 -11v-390q0 -37 5.5 -47
t28.5 -19l29 -13v-35l-49 -7q-86 -12 -126.5 -46t-40.5 -74q0 -34 29 -43q19 -6 69 -4v-39q-42 -30 -97 -30z" />
    <glyph glyph-name="Wcircumflex" unicode="&#x174;" horiz-adv-x="1059" 
d="M284 0l-181 558q-20 52 -31 68.5t-32 21.5l-26 6v39h324v-39l-28 -7q-33 -8 -33 -38q0 -22 17 -75l103 -344h5l107 298l-26 83q-14 39 -26 54.5t-35 21.5l-22 7v39h318v-39l-36 -8q-34 -5 -34 -40q0 -25 15 -72l112 -344h5l99 345q13 48 13 71q0 34 -36 41l-33 7v39h222
v-39l-25 -6q-24 -6 -38 -29t-33 -84l-169 -535h-111l-123 397h-6l-139 -397h-117zM592 901l133 -127l-19 -31l-148 54l-148 -54l-19 31l132 127h69z" />
    <glyph glyph-name="wcircumflex" unicode="&#x175;" horiz-adv-x="877" 
d="M233 0l-147 396q-16 43 -28 57.5t-33 20.5l-20 6v39h280v-39l-22 -6q-27 -6 -27 -31q0 -10 17 -63l73 -223h7l79 220l-6 19q-13 40 -25 56.5t-29 21.5l-20 6v39h278v-39l-29 -7q-28 -7 -28 -38q0 -21 12 -55l76 -223h6l71 223q12 37 12 56q0 30 -30 37l-29 7v39h201v-39
l-20 -6q-21 -6 -33 -23t-30 -65l-143 -386h-97l-105 302h-3l-111 -302h-97zM504 766l131 -152l-22 -31l-143 79l-143 -79l-22 31l130 152h69z" />
    <glyph glyph-name="Ycircumflex" unicode="&#x176;" horiz-adv-x="685" 
d="M178 0v40l39 7q27 6 34 17t7 55v165l-151 277q-27 47 -42 63.5t-36 22.5l-21 7v39h342v-39l-28 -7q-40 -8 -40 -40q0 -11 22 -57l93 -192h5l95 185q19 42 19 65q0 28 -38 39l-29 7v39h229v-39l-20 -7q-24 -8 -43 -29t-43 -68l-135 -260v-171q0 -44 7 -55t35 -17l40 -7
v-40h-341zM423 901l133 -127l-19 -31l-148 54l-148 -54l-19 31l132 127h69z" />
    <glyph glyph-name="ycircumflex" unicode="&#x177;" horiz-adv-x="589" 
d="M132 -222q-49 0 -76.5 22.5t-27.5 57.5q0 29 16 47t44 18q30 0 44.5 -11.5t24.5 -37.5q9 -23 17 -23q38 0 81 96l16 38l-190 411q-23 48 -32 60.5t-26 17.5l-19 6v39h296v-39l-27 -7q-33 -8 -33 -38q0 -23 16 -55l93 -215h4l83 215q11 29 11 59q0 27 -31 34l-29 7v39h205
v-39l-23 -7q-19 -6 -28.5 -20.5t-31.5 -66.5l-194 -449q-36 -83 -78.5 -121t-104.5 -38zM369 766l131 -152l-22 -31l-143 79l-143 -79l-22 31l130 152h69z" />
    <glyph glyph-name="Ydieresis" unicode="&#x178;" horiz-adv-x="685" 
d="M178 0v40l39 7q27 6 34 17t7 55v165l-151 277q-27 47 -42 63.5t-36 22.5l-21 7v39h342v-39l-28 -7q-40 -8 -40 -40q0 -11 22 -57l93 -192h5l95 185q19 42 19 65q0 28 -38 39l-29 7v39h229v-39l-20 -7q-24 -8 -43 -29t-43 -68l-135 -260v-171q0 -44 7 -55t35 -17l40 -7
v-40h-341zM271 748q-36 0 -61 23.5t-25 57.5t25 57.5t61 23.5t61 -23.5t25 -57.5t-25 -57.5t-61 -23.5zM508 748q-36 0 -61 23.5t-25 57.5t25 57.5t61 23.5q35 0 60 -23.5t25 -57.5t-25 -57.5t-60 -23.5z" />
    <glyph glyph-name="Zacute" unicode="&#x179;" horiz-adv-x="611" 
d="M21 0v56l359 584v4h-41q-105 0 -136.5 -7.5t-53.5 -37.5q-38 -53 -74 -129h-40l12 223h520v-55l-357 -583v-4h34q111 0 145.5 8.5t60.5 42.5q39 52 77 141h41l-16 -243h-531zM218 745l-12 28l140 112q30 23 53 23t38 -18t15 -41q0 -44 -45 -55z" />
    <glyph glyph-name="zacute" unicode="&#x17a;" horiz-adv-x="517" 
d="M21 0v51l299 413v4h-44q-58 0 -81 -6t-40 -25q-20 -24 -68 -107h-38l10 189h435v-49l-299 -415v-4h45q70 0 97 8.5t47 32.5q32 39 66 103h41l-17 -195h-453zM188 590l-12 28l140 112q30 23 53 23t38 -18t15 -41q0 -44 -45 -55z" />
    <glyph glyph-name="Zdotaccent" unicode="&#x17b;" horiz-adv-x="611" 
d="M21 0v56l359 584v4h-41q-105 0 -136.5 -7.5t-53.5 -37.5q-38 -53 -74 -129h-40l12 223h520v-55l-357 -583v-4h34q111 0 145.5 8.5t60.5 42.5q39 52 77 141h41l-16 -243h-531zM304 744q-40 0 -67.5 25t-27.5 62q0 38 27.5 62.5t67.5 24.5t67 -24.5t27 -62.5
q0 -37 -27.5 -62t-66.5 -25z" />
    <glyph glyph-name="zdotaccent" unicode="&#x17c;" horiz-adv-x="517" 
d="M21 0v51l299 413v4h-44q-58 0 -81 -6t-40 -25q-20 -24 -68 -107h-38l10 189h435v-49l-299 -415v-4h45q70 0 97 8.5t47 32.5q32 39 66 103h41l-17 -195h-453zM273 594q-40 0 -67.5 25t-27.5 62q0 38 27.5 62.5t67.5 24.5t67 -24.5t27 -62.5q0 -37 -27.5 -62t-66.5 -25z
" />
    <glyph glyph-name="Zcaron" unicode="&#x17d;" horiz-adv-x="611" 
d="M21 0v56l359 584v4h-41q-105 0 -136.5 -7.5t-53.5 -37.5q-38 -53 -74 -129h-40l12 223h520v-55l-357 -583v-4h34q111 0 145.5 8.5t60.5 42.5q39 52 77 141h41l-16 -243h-531zM269 756l-133 127l19 31l148 -54l148 54l19 -31l-132 -127h-69z" />
    <glyph glyph-name="zcaron" unicode="&#x17e;" horiz-adv-x="517" 
d="M21 0v51l299 413v4h-44q-58 0 -81 -6t-40 -25q-20 -24 -68 -107h-38l10 189h435v-49l-299 -415v-4h45q70 0 97 8.5t47 32.5q32 39 66 103h41l-17 -195h-453zM238 591l-131 151l22 32l143 -80l143 80l22 -32l-130 -151h-69z" />
    <glyph glyph-name="florin" unicode="&#x192;" horiz-adv-x="522" 
d="M56 349v58h94l10 65q33 232 253 232q62 0 99 -25.5t37 -65.5q0 -29 -17.5 -44t-45.5 -15q-32 0 -48 17t-22 60q-2 16 -7 22t-20 6q-46 0 -60 -95l-24 -157h118v-58h-127l-46 -298q-19 -133 -75 -191t-153 -58q-64 0 -95 23.5t-31 57.5q0 58 61 58q28 0 41.5 -14.5
t20.5 -54.5q1 -25 18 -25q16 0 25 14.5t15 57.5l64 430h-85z" />
    <glyph glyph-name="Aringacute" unicode="&#x1fa;" horiz-adv-x="726" 
d="M5 0v40l27 7q24 6 37 21.5t33 66.5l206 558h102l214 -562q19 -49 32 -64t36 -22l24 -5v-40h-327v40l28 7q21 5 29 12.5t8 21.5q0 13 -18 65l-23 63h-217l-22 -63q-16 -50 -16 -61q0 -17 9.5 -24t34.5 -14l29 -7v-40h-226zM301 511l-86 -247h179l-88 247h-5zM359 736
q-51 0 -83 30.5t-32 76.5t33.5 77.5t81.5 31.5q49 0 82 -30.5t33 -78.5q0 -46 -33 -76.5t-82 -30.5zM359 781q26 0 41.5 17.5t15.5 44.5t-15.5 45t-41.5 18t-41.5 -18t-15.5 -45t15.5 -44.5t41.5 -17.5zM274 965l-12 28l140 112q30 23 53 23t38 -18t15 -41q0 -44 -45 -55z
" />
    <glyph glyph-name="aringacute" unicode="&#x1fb;" horiz-adv-x="561" 
d="M180 -12q-72 0 -113.5 35.5t-41.5 98.5q0 66 46.5 105t164.5 67l81 18v75q0 60 -15.5 79t-61.5 19q-23 0 -30.5 -7t-9.5 -30q-4 -47 -23.5 -68t-59.5 -21q-68 0 -68 63q0 50 61 80.5t164 30.5q201 0 201 -137v-267q0 -28 5 -41t20 -20q13 -8 48 -10v-36q-49 -34 -118 -34
q-87 0 -105 61h-5q-48 -61 -140 -61zM251 65q48 0 66 30v157l-50 -5q-47 -3 -67.5 -26t-20.5 -76q0 -45 19 -62.5t53 -17.5zM271 585q-51 0 -83 30.5t-32 76.5t33.5 77.5t81.5 31.5q49 0 82 -30.5t33 -78.5q0 -46 -33 -76.5t-82 -30.5zM271 630q26 0 41.5 17.5t15.5 44.5
t-15.5 45t-41.5 18t-41.5 -18t-15.5 -45t15.5 -44.5t41.5 -17.5zM186 825l-12 28l140 112q30 23 53 23t38 -18t15 -41q0 -44 -45 -55z" />
    <glyph glyph-name="AEacute" unicode="&#x1fc;" horiz-adv-x="988" 
d="M367 0v40l35 7q25 6 34 18t9 54v79h-225l-22 -39q-34 -60 -34 -79q0 -23 33 -33l32 -7v-40h-225v40l19 7q26 6 44 24t53 77l292 494l-16 3l-47 9v39h576l11 -200h-43q-28 64 -56 106q-22 28 -44.5 34t-79.5 6q-62 0 -96 -8v-244h7q55 0 74.5 5.5t30.5 23.5q21 36 30 68
h43v-253h-43q-8 27 -30 72q-10 19 -28.5 24t-76.5 5h-7v-188q0 -24 0.5 -38t6.5 -25.5t9.5 -16t19.5 -7.5t27 -3h40q63 0 85 8t46 41q23 32 66 133h43l-15 -236h-578zM442 583l-191 -331h194v313q0 12 -1 18h-2zM571 745l-12 28l140 112q30 23 53 23t38 -18t15 -41
q0 -44 -45 -55z" />
    <glyph glyph-name="aeacute" unicode="&#x1fd;" horiz-adv-x="825" 
d="M569 -12q-143 0 -207 88q-32 -48 -74.5 -68t-102.5 -20q-76 0 -118 35t-42 102q0 64 46 100.5t136 58.5l108 24v79q0 57 -15 77.5t-58 20.5q-24 0 -32.5 -7.5t-10.5 -29.5q-4 -47 -23.5 -68t-59.5 -21q-67 0 -67 64q0 49 61 79.5t156 30.5q116 0 155 -62q64 62 153 62
q105 0 164 -66.5t59 -201.5h-332q6 -101 48.5 -144.5t116.5 -43.5q76 0 152 38v-45q-30 -32 -87 -57t-126 -25zM564 483q-41 0 -69 -41t-31 -127l179 10q0 88 -16.5 123t-62.5 35zM254 65q52 0 83 59q-21 54 -22 123l-48 -5q-46 -3 -66 -21.5t-20 -72.5q0 -49 18.5 -66
t54.5 -17zM347 590l-12 28l140 112q30 23 53 23t38 -18t15 -41q0 -44 -45 -55z" />
    <glyph glyph-name="Oslashacute" unicode="&#x1fe;" horiz-adv-x="763" 
d="M73 -64l84 124q-121 96 -121 278q0 94 31 167.5t82 115.5t111 63t125 21q99 0 177 -42l45 67h66l-66 -98q120 -95 120 -279q0 -95 -31 -168t-82.5 -114.5t-111 -62t-124.5 -20.5q-98 0 -176 42l-64 -94h-65zM222 359q0 -122 12 -183l272 404q-36 71 -127 71
q-83 0 -120 -62t-37 -230zM383 42q57 0 90 23.5t50.5 87.5t17.5 179q0 116 -13 182l-272 -404q33 -68 127 -68zM296 745l-12 28l140 112q30 23 53 23t38 -18t15 -41q0 -44 -45 -55z" />
    <glyph glyph-name="oslashacute" unicode="&#x1ff;" horiz-adv-x="612" 
d="M52 -64l74 107q-97 72 -97 216q0 91 41 154.5t102.5 91.5t134.5 28q78 0 139 -31l55 79h60l-73 -105q95 -72 95 -213q0 -134 -80.5 -204.5t-195.5 -70.5q-76 0 -139 29l-56 -81h-60zM191 249q0 -60 5 -105l204 292q-13 27 -35 36t-63 9q-54 0 -83 -52t-28 -180zM310 39
q54 0 83 52.5t28 185.5q0 53 -5 96l-203 -291q13 -25 35.5 -34t61.5 -9zM222 590l-12 28l140 112q30 23 53 23t38 -18t15 -41q0 -44 -45 -55z" />
    <glyph glyph-name="Scommaaccent" unicode="&#x218;" horiz-adv-x="558" 
d="M256 -12q-114 0 -210 30l-12 194h43q42 -80 74 -120q41 -51 111 -51q54 0 89 29.5t35 70.5q0 43 -33 73.5t-122 64.5q-107 40 -149 90.5t-42 128.5q0 91 69.5 149t182.5 58q117 0 179 -20l12 -174h-43q-39 75 -68 107q-31 34 -91 34q-51 0 -83 -27t-32 -68
q0 -37 27.5 -61t112.5 -57q119 -45 168.5 -95t49.5 -124q0 -100 -71.5 -166t-196.5 -66zM186 -284l-7 28q55 12 76.5 33t19.5 50q-14 -7 -28 -7q-28 0 -45 16t-17 42q0 27 22.5 46t56.5 19q38 0 64 -24t26 -65q0 -53 -41.5 -92.5t-126.5 -45.5z" />
    <glyph glyph-name="scommaaccent" unicode="&#x219;" horiz-adv-x="459" 
d="M202 -12q-84 0 -162 19l-9 153h40q29 -54 58 -87q32 -34 92 -34q87 0 87 66q0 33 -26.5 52t-98.5 46q-74 27 -111.5 65t-37.5 97q0 74 57.5 121t158.5 47q90 0 141 -18l5 -136h-37q-24 39 -58 78q-25 25 -68 25q-83 0 -83 -66q0 -25 24 -43t88 -41q90 -32 130 -70t40 -96
q0 -80 -61 -129t-169 -49zM132 -284l-7 28q55 12 76.5 33t19.5 50q-14 -7 -28 -7q-28 0 -45 16t-17 42q0 27 22.5 46t56.5 19q38 0 64 -24t26 -65q0 -53 -41.5 -92.5t-126.5 -45.5z" />
    <glyph glyph-name="uni0237" unicode="&#x237;" horiz-adv-x="314" 
d="M24 -226q-64 0 -100 27t-36 67q0 30 18 46t51 16q35 0 51 -17.5t20 -63.5q2 -17 6.5 -22.5t12.5 -5.5q19 0 29 15t10 38v517q0 30 -5.5 39.5t-28.5 24.5l-35 22v32l221 23l14 -9q0 -9 -2.5 -30t-4 -52t-1.5 -69v-380q0 -104 -61 -161t-159 -57z" />
    <glyph glyph-name="circumflex" unicode="&#x2c6;" horiz-adv-x="516" 
d="M292 766l131 -152l-22 -31l-143 79l-143 -79l-22 31l130 152h69z" />
    <glyph glyph-name="caron" unicode="&#x2c7;" horiz-adv-x="516" 
d="M224 591l-131 151l22 32l143 -80l143 80l22 -32l-130 -151h-69z" />
    <glyph glyph-name="breve" unicode="&#x2d8;" horiz-adv-x="516" 
d="M259 593q-61 0 -101 45t-51 119l43 12q16 -39 40.5 -59.5t68.5 -20.5q75 0 108 80l42 -12q-10 -74 -49.5 -119t-100.5 -45z" />
    <glyph glyph-name="dotaccent" unicode="&#x2d9;" horiz-adv-x="412" 
d="M206 594q-40 0 -67.5 25t-27.5 62q0 38 27.5 62.5t67.5 24.5t67 -24.5t27 -62.5q0 -37 -27.5 -62t-66.5 -25z" />
    <glyph glyph-name="ring" unicode="&#x2da;" horiz-adv-x="516" 
d="M258 585q-51 0 -83 30.5t-32 76.5t33.5 77.5t81.5 31.5q49 0 82 -30.5t33 -78.5q0 -46 -33 -76.5t-82 -30.5zM258 630q26 0 41.5 17.5t15.5 44.5t-15.5 45t-41.5 18t-41.5 -18t-15.5 -45t15.5 -44.5t41.5 -17.5z" />
    <glyph glyph-name="ogonek" unicode="&#x2db;" horiz-adv-x="429" 
d="M204 -226q-56 0 -89 24.5t-33 65.5q0 81 132 136h58q-35 -30 -52 -55.5t-17 -54.5q0 -34 29 -43q19 -6 69 -4v-39q-43 -30 -97 -30z" />
    <glyph glyph-name="tilde" unicode="&#x2dc;" horiz-adv-x="516" 
d="M117 584l-39 18q23 71 48.5 106t59.5 35q29 0 80.5 -19.5t67.5 -19.5q10 0 17.5 3.5t16 15.5t12 17.5t15.5 26.5l38 -17q-24 -73 -47 -107t-58 -34q-29 0 -81.5 19.5t-68.5 19.5q-23 0 -46 -37q-1 -3 -15 -27z" />
    <glyph glyph-name="hungarumlaut" unicode="&#x2dd;" horiz-adv-x="516" 
d="M315 587l-20 22l78 123q21 38 49 38q20 0 39 -16.5t19 -36.5q0 -33 -37 -53zM129 587l-20 22l77 123q19 38 50 38q19 0 37.5 -15.5t18.5 -36.5q0 -35 -41 -59z" />
    <glyph glyph-name="Wgrave" unicode="&#x1e80;" horiz-adv-x="1059" 
d="M284 0l-181 558q-20 52 -31 68.5t-32 21.5l-26 6v39h324v-39l-28 -7q-33 -8 -33 -38q0 -22 17 -75l103 -344h5l107 298l-26 83q-14 39 -26 54.5t-35 21.5l-22 7v39h318v-39l-36 -8q-34 -5 -34 -40q0 -25 15 -72l112 -344h5l99 345q13 48 13 71q0 34 -36 41l-33 7v39h222
v-39l-25 -6q-24 -6 -38 -29t-33 -84l-169 -535h-111l-123 397h-6l-139 -397h-117zM652 745l-188 49q-23 6 -34.5 21.5t-11.5 33.5q0 23 15.5 41t37.5 18q24 0 54 -23l140 -112z" />
    <glyph glyph-name="wgrave" unicode="&#x1e81;" horiz-adv-x="877" 
d="M233 0l-147 396q-16 43 -28 57.5t-33 20.5l-20 6v39h280v-39l-22 -6q-27 -6 -27 -31q0 -10 17 -63l73 -223h7l79 220l-6 19q-13 40 -25 56.5t-29 21.5l-20 6v39h278v-39l-29 -7q-28 -7 -28 -38q0 -21 12 -55l76 -223h6l71 223q12 37 12 56q0 30 -30 37l-29 7v39h201v-39
l-20 -6q-21 -6 -33 -23t-30 -65l-143 -386h-97l-105 302h-3l-111 -302h-97zM562 590l-188 49q-23 6 -34.5 21.5t-11.5 33.5q0 23 15.5 41t37.5 18q24 0 54 -23l140 -112z" />
    <glyph glyph-name="Wacute" unicode="&#x1e82;" horiz-adv-x="1059" 
d="M284 0l-181 558q-20 52 -31 68.5t-32 21.5l-26 6v39h324v-39l-28 -7q-33 -8 -33 -38q0 -22 17 -75l103 -344h5l107 298l-26 83q-14 39 -26 54.5t-35 21.5l-22 7v39h318v-39l-36 -8q-34 -5 -34 -40q0 -25 15 -72l112 -344h5l99 345q13 48 13 71q0 34 -36 41l-33 7v39h222
v-39l-25 -6q-24 -6 -38 -29t-33 -84l-169 -535h-111l-123 397h-6l-139 -397h-117zM473 745l-12 28l140 112q30 23 53 23t38 -18t15 -41q0 -44 -45 -55z" />
    <glyph glyph-name="wacute" unicode="&#x1e83;" horiz-adv-x="877" 
d="M233 0l-147 396q-16 43 -28 57.5t-33 20.5l-20 6v39h280v-39l-22 -6q-27 -6 -27 -31q0 -10 17 -63l73 -223h7l79 220l-6 19q-13 40 -25 56.5t-29 21.5l-20 6v39h278v-39l-29 -7q-28 -7 -28 -38q0 -21 12 -55l76 -223h6l71 223q12 37 12 56q0 30 -30 37l-29 7v39h201v-39
l-20 -6q-21 -6 -33 -23t-30 -65l-143 -386h-97l-105 302h-3l-111 -302h-97zM386 590l-12 28l140 112q30 23 53 23t38 -18t15 -41q0 -44 -45 -55z" />
    <glyph glyph-name="Wdieresis" unicode="&#x1e84;" horiz-adv-x="1059" 
d="M284 0l-181 558q-20 52 -31 68.5t-32 21.5l-26 6v39h324v-39l-28 -7q-33 -8 -33 -38q0 -22 17 -75l103 -344h5l107 298l-26 83q-14 39 -26 54.5t-35 21.5l-22 7v39h318v-39l-36 -8q-34 -5 -34 -40q0 -25 15 -72l112 -344h5l99 345q13 48 13 71q0 34 -36 41l-33 7v39h222
v-39l-25 -6q-24 -6 -38 -29t-33 -84l-169 -535h-111l-123 397h-6l-139 -397h-117zM440 748q-36 0 -61 23.5t-25 57.5t25 57.5t61 23.5t61 -23.5t25 -57.5t-25 -57.5t-61 -23.5zM677 748q-36 0 -61 23.5t-25 57.5t25 57.5t61 23.5q35 0 60 -23.5t25 -57.5t-25 -57.5
t-60 -23.5z" />
    <glyph glyph-name="wdieresis" unicode="&#x1e85;" horiz-adv-x="877" 
d="M233 0l-147 396q-16 43 -28 57.5t-33 20.5l-20 6v39h280v-39l-22 -6q-27 -6 -27 -31q0 -10 17 -63l73 -223h7l79 220l-6 19q-13 40 -25 56.5t-29 21.5l-20 6v39h278v-39l-29 -7q-28 -7 -28 -38q0 -21 12 -55l76 -223h6l71 223q12 37 12 56q0 30 -30 37l-29 7v39h201v-39
l-20 -6q-21 -6 -33 -23t-30 -65l-143 -386h-97l-105 302h-3l-111 -302h-97zM356 598q-36 0 -61 23.5t-25 57.5t25 57.5t61 23.5t61 -23.5t25 -57.5t-25 -57.5t-61 -23.5zM585 598q-36 0 -61 23.5t-25 57.5t25 57.5t61 23.5q35 0 60 -23.5t25 -57.5t-25 -57.5t-60 -23.5z" />
    <glyph glyph-name="Ygrave" unicode="&#x1ef2;" horiz-adv-x="685" 
d="M178 0v40l39 7q27 6 34 17t7 55v165l-151 277q-27 47 -42 63.5t-36 22.5l-21 7v39h342v-39l-28 -7q-40 -8 -40 -40q0 -11 22 -57l93 -192h5l95 185q19 42 19 65q0 28 -38 39l-29 7v39h229v-39l-20 -7q-24 -8 -43 -29t-43 -68l-135 -260v-171q0 -44 7 -55t35 -17l40 -7
v-40h-341zM483 745l-188 49q-23 6 -34.5 21.5t-11.5 33.5q0 23 15.5 41t37.5 18q24 0 54 -23l140 -112z" />
    <glyph glyph-name="ygrave" unicode="&#x1ef3;" horiz-adv-x="589" 
d="M132 -222q-49 0 -76.5 22.5t-27.5 57.5q0 29 16 47t44 18q30 0 44.5 -11.5t24.5 -37.5q9 -23 17 -23q38 0 81 96l16 38l-190 411q-23 48 -32 60.5t-26 17.5l-19 6v39h296v-39l-27 -7q-33 -8 -33 -38q0 -23 16 -55l93 -215h4l83 215q11 29 11 59q0 27 -31 34l-29 7v39h205
v-39l-23 -7q-19 -6 -28.5 -20.5t-31.5 -66.5l-194 -449q-36 -83 -78.5 -121t-104.5 -38zM427 590l-188 49q-23 6 -34.5 21.5t-11.5 33.5q0 23 15.5 41t37.5 18q24 0 54 -23l140 -112z" />
    <glyph glyph-name="uni2009" unicode="&#x2009;" horiz-adv-x="125" 
 />
    <glyph glyph-name="endash" unicode="&#x2013;" horiz-adv-x="449" 
d="M49 259v62h351v-62h-351z" />
    <glyph glyph-name="emdash" unicode="&#x2014;" horiz-adv-x="720" 
d="M49 259v62h622v-62h-622z" />
    <glyph glyph-name="quoteleft" unicode="&#x2018;" horiz-adv-x="323" 
d="M260 709l12 -35q-57 -26 -89 -64.5t-30 -76.5q11 9 34 9q32 0 51.5 -21.5t19.5 -55.5q0 -35 -25.5 -56.5t-63.5 -21.5q-43 0 -74.5 30.5t-31.5 81.5q0 74 53 132t144 78z" />
    <glyph glyph-name="quoteright" unicode="&#x2019;" horiz-adv-x="322" 
d="M64 383l-13 36q57 26 89 64t30 76q-11 -9 -34 -9q-32 0 -51.5 21.5t-19.5 55.5q0 35 25.5 56.5t63.5 21.5q43 0 74.5 -30.5t31.5 -81.5q0 -74 -53 -132t-143 -78z" />
    <glyph glyph-name="quotesinglbase" unicode="&#x201a;" horiz-adv-x="322" 
d="M64 -145l-13 35q57 26 89 64.5t30 76.5q-11 -9 -34 -9q-32 0 -51.5 21.5t-19.5 55.5q0 35 25.5 56.5t63.5 21.5q43 0 74.5 -30.5t31.5 -81.5q0 -74 -53 -132t-143 -78z" />
    <glyph glyph-name="quotedblleft" unicode="&#x201c;" horiz-adv-x="574" 
d="M260 709l12 -35q-57 -26 -89 -64.5t-30 -76.5q11 9 34 9q32 0 51.5 -21.5t19.5 -55.5q0 -35 -25.5 -56.5t-63.5 -21.5q-43 0 -74.5 30.5t-31.5 81.5q0 74 53 132t144 78zM511 709l12 -35q-57 -26 -88.5 -64.5t-30.5 -76.5q11 9 35 9q31 0 50.5 -21t19.5 -56t-25 -56.5
t-63 -21.5q-44 0 -75.5 30.5t-31.5 81.5q0 74 53.5 132t143.5 78z" />
    <glyph glyph-name="quotedblright" unicode="&#x201d;" horiz-adv-x="574" 
d="M315 383l-13 36q57 26 89 64t31 76q-11 -9 -35 -9q-32 0 -51.5 21.5t-19.5 55.5q0 35 25.5 56.5t63.5 21.5q43 0 74.5 -30.5t31.5 -81.5q0 -74 -53 -132t-143 -78zM64 383l-13 36q57 26 89 64t30 76q-11 -9 -34 -9q-32 0 -51.5 21.5t-19.5 55.5q0 35 25.5 56.5t63.5 21.5
q43 0 74.5 -30.5t31.5 -81.5q0 -74 -53 -132t-143 -78z" />
    <glyph glyph-name="quotedblbase" unicode="&#x201e;" horiz-adv-x="574" 
d="M315 -145l-13 35q57 26 89 64.5t31 76.5q-11 -9 -35 -9q-32 0 -51.5 21.5t-19.5 55.5q0 35 25.5 56.5t63.5 21.5q43 0 74.5 -30.5t31.5 -81.5q0 -74 -53 -132t-143 -78zM64 -145l-13 35q57 26 89 64.5t30 76.5q-11 -9 -34 -9q-32 0 -51.5 21.5t-19.5 55.5q0 35 25.5 56.5
t63.5 21.5q43 0 74.5 -30.5t31.5 -81.5q0 -74 -53 -132t-143 -78z" />
    <glyph glyph-name="dagger" unicode="&#x2020;" horiz-adv-x="444" 
d="M200 474q-24 -3 -61 -21t-56 -18q-26 0 -42.5 17.5t-16.5 41.5q0 25 16.5 42.5t42.5 17.5q19 0 56 -18.5t61 -21.5q-3 27 -26 69t-23 58q0 25 20.5 43t48.5 18q29 0 49 -17.5t20 -43.5q0 -16 -22 -58t-25 -69q25 3 61.5 21.5t55.5 18.5q27 0 43.5 -17.5t16.5 -42.5
q0 -24 -16.5 -41.5t-43.5 -17.5q-19 0 -55.5 18t-61.5 21q4 -54 48 -112l-49 -429h-40l-49 429q45 54 48 112z" />
    <glyph glyph-name="daggerdbl" unicode="&#x2021;" horiz-adv-x="444" 
d="M203 313l-49 91q39 25 46 81q-24 -3 -61 -21t-56 -18q-26 0 -42.5 17.5t-16.5 41.5q0 25 16.5 42.5t42.5 17.5q19 0 56 -18.5t61 -21.5q-3 22 -25.5 62.5t-22.5 58.5q0 24 20 40t48 16q30 0 49.5 -15.5t19.5 -40.5q0 -17 -22 -57.5t-25 -63.5q25 3 61.5 21.5t55.5 18.5
q27 0 43.5 -17.5t16.5 -42.5q0 -24 -16.5 -41.5t-43.5 -17.5q-19 0 -55 18t-62 21q7 -55 46 -81l-49 -91h-36zM203 280h36l49 -92q-39 -26 -46 -81q26 3 62 21t55 18q27 0 43.5 -17.5t16.5 -41.5q0 -25 -16.5 -42.5t-43.5 -17.5q-19 0 -55.5 18.5t-61.5 21.5q3 -23 25 -62
t22 -57q0 -24 -20 -41t-49 -17q-28 0 -48 17t-20 41q0 18 22.5 57.5t25.5 61.5q-24 -3 -61 -21.5t-56 -18.5q-26 0 -42.5 17.5t-16.5 42.5q0 24 16.5 41.5t42.5 17.5q19 0 56 -18t61 -21q-7 56 -46 81z" />
    <glyph glyph-name="bullet" unicode="&#x2022;" horiz-adv-x="442" 
d="M221 171q-69 0 -118 48.5t-49 115.5q0 69 48.5 116.5t118.5 47.5q68 0 118 -47.5t50 -116.5q0 -66 -50.5 -115t-117.5 -49z" />
    <glyph glyph-name="ellipsis" unicode="&#x2026;" horiz-adv-x="913" 
d="M759 -8q-40 0 -69 28t-29 67q0 40 28.5 68.5t69.5 28.5t70 -28.5t29 -68.5q0 -39 -29 -67t-70 -28zM456 -8q-40 0 -69 28t-29 67q0 40 28.5 68.5t69.5 28.5t70 -28.5t29 -68.5q0 -39 -29 -67t-70 -28zM153 -8q-40 0 -69 28t-29 67q0 40 28.5 68.5t69.5 28.5t70 -28.5
t29 -68.5q0 -39 -29 -67t-70 -28z" />
    <glyph glyph-name="perthousand" unicode="&#x2030;" horiz-adv-x="1287" 
d="M214 344q-76 0 -129 45.5t-53 130.5q0 90 59 137t126 47q72 0 127.5 -46.5t55.5 -130.5q0 -88 -57.5 -135.5t-128.5 -47.5zM124 -50l528 764h75l-530 -764h-73zM652 -13q-75 0 -128 45.5t-53 129.5q0 90 58.5 137.5t125.5 47.5q72 0 127.5 -47t55.5 -131
q0 -88 -57.5 -135t-128.5 -47zM216 387q36 0 51.5 30.5t15.5 101.5q0 79 -16 110.5t-51 31.5q-33 0 -50 -30t-17 -103q0 -78 15.5 -109.5t51.5 -31.5zM654 30q37 0 51.5 30t14.5 102q0 80 -15.5 111t-50.5 31q-33 0 -49.5 -30.5t-16.5 -103.5q0 -77 15.5 -108.5t50.5 -31.5z
M1069 -13q-76 0 -129 45.5t-53 129.5q0 90 59 137.5t126 47.5q72 0 127 -47t55 -131q0 -88 -57 -135t-128 -47zM1070 30q37 0 52 30t15 102q0 80 -15.5 111t-51.5 31q-32 0 -48.5 -30.5t-16.5 -103.5q0 -77 15 -108.5t50 -31.5z" />
    <glyph glyph-name="uni2032" unicode="&#x2032;" horiz-adv-x="248" 
d="M87 408l-29 202q-7 50 14.5 73.5t58.5 23.5q39 0 55 -27.5t1 -73.5l-66 -198h-34z" />
    <glyph glyph-name="uni2033" unicode="&#x2033;" horiz-adv-x="438" 
d="M276 408l-29 202q-7 50 14 73.5t59 23.5q39 0 55 -27.5t1 -73.5l-66 -198h-34zM87 408l-29 202q-7 50 14 73.5t59 23.5q39 0 55 -27.5t1 -73.5l-66 -198h-34z" />
    <glyph glyph-name="guilsinglleft" unicode="&#x2039;" horiz-adv-x="292" 
d="M202 45l-166 193v29l166 193h48l-88 -206l88 -209h-48z" />
    <glyph glyph-name="guilsinglright" unicode="&#x203a;" horiz-adv-x="292" 
d="M38 46l88 208l-88 207h47l166 -193v-29l-166 -193h-47z" />
    <glyph glyph-name="fraction" unicode="&#x2044;" horiz-adv-x="354" 
d="M-112 -50l503 764h76l-504 -764h-75z" />
    <glyph glyph-name="Euro" unicode="&#x20ac;" horiz-adv-x="655" 
d="M8 390v58h110q27 128 114 192.5t201 64.5q86 0 141.5 -30.5t55.5 -87.5q0 -31 -17 -50.5t-54 -19.5q-41 0 -60.5 22.5t-26.5 73.5q-4 28 -15.5 36.5t-39.5 8.5q-118 0 -135 -210h218l-11 -58h-210v-25q0 -44 1 -63h194l-10 -58h-178q14 -95 58 -134.5t128 -39.5
q72 0 150 43v-46q-30 -32 -86.5 -55.5t-134.5 -23.5q-118 0 -192 64t-94 192h-107v58h101q-1 12 -1 39q0 33 2 49h-102z" />
    <glyph glyph-name="trademark" unicode="&#x2122;" horiz-adv-x="950" 
d="M416 339v35l26 5q14 3 19 13t5 36v191q0 19 -4 24.5t-19 9.5l-21 6v34h176l69 -193h2l64 193h180v-33l-24 -5q-14 -4 -18 -9.5t-4 -25.5v-203q0 -22 4 -29t18 -9l25 -5v-35h-196v35l27 7q12 2 15 8t3 28v231h-3l-98 -301h-40l-106 301h-3v-219q0 -29 5 -38.5t22 -11.5
l25 -5v-35h-149zM110 341v34l30 6q14 3 17 8.5t3 27.5v239h-5q-21 0 -29.5 -4.5t-17.5 -18.5q-13 -21 -35 -79h-33l7 139h331l7 -139h-32q-22 57 -35 79q-9 14 -18 18.5t-30 4.5h-5v-239q0 -21 3.5 -27.5t17.5 -8.5l30 -6v-34h-206z" />
    <glyph glyph-name="onethird" unicode="&#x2153;" horiz-adv-x="877" 
d="M25 261v35l27 5q22 5 27 12t5 37v225l-59 6v37q103 18 164 87l27 -8v-347q0 -29 6.5 -38t26.5 -11l25 -5v-35h-249zM651 -112q-75 0 -113.5 21t-38.5 59q0 23 14 37t35 14q52 0 62 -61q5 -20 11.5 -25.5t28.5 -5.5q69 0 69 87q0 51 -21.5 67t-66.5 16h-31v48h27
q43 0 62 17t19 62q0 73 -54 73q-18 0 -24.5 -5.5t-8.5 -22.5q-4 -28 -15.5 -40.5t-40.5 -12.5q-22 0 -35.5 11.5t-13.5 32.5q0 35 41.5 55.5t109.5 20.5q75 0 117 -26.5t42 -76.5q0 -37 -29.5 -65t-89.5 -39v-2q137 -11 137 -111q0 -128 -193 -128zM151 -50l503 764h76
l-504 -764h-75z" />
    <glyph glyph-name="twothirds" unicode="&#x2154;" horiz-adv-x="915" 
d="M23 261v59q84 60 141 121q72 70 72 148q0 42 -16 57t-46 15q-18 0 -24 -6.5t-9 -25.5q-5 -34 -18 -48.5t-43 -14.5q-24 0 -38.5 14t-14.5 35q0 36 44 61t116 25q81 0 126.5 -32t45.5 -94q0 -109 -231 -222v-3h139q23 0 32.5 9.5t23.5 44.5h34l-9 -143h-325zM689 -112
q-75 0 -113.5 21t-38.5 59q0 23 14 37t35 14q52 0 62 -61q5 -20 11.5 -25.5t28.5 -5.5q69 0 69 87q0 51 -21.5 67t-66.5 16h-31v48h27q43 0 62 17t19 62q0 73 -54 73q-18 0 -24.5 -5.5t-8.5 -22.5q-4 -28 -15.5 -40.5t-40.5 -12.5q-22 0 -35.5 11.5t-13.5 32.5
q0 35 41.5 55.5t109.5 20.5q75 0 117 -26.5t42 -76.5q0 -37 -29.5 -65t-89.5 -39v-2q137 -11 137 -111q0 -128 -193 -128zM199 -50l503 764h76l-504 -764h-75z" />
    <glyph glyph-name="oneeighth" unicode="&#x215b;" horiz-adv-x="871" 
d="M25 261v35l27 5q22 5 27 12t5 37v225l-59 6v37q103 18 164 87l27 -8v-347q0 -29 6.5 -38t26.5 -11l25 -5v-35h-249zM661 -112q-84 0 -134.5 28t-50.5 77q0 33 25.5 62t69.5 45v3q-73 34 -73 103q0 60 49.5 95t118.5 35q67 0 114 -25.5t47 -72.5q0 -28 -24.5 -54
t-59.5 -38v-3q54 -23 78 -50.5t24 -69.5q0 -57 -52 -96t-132 -39zM704 162q29 36 29 69q0 68 -73 68q-31 0 -49 -15.5t-18 -39.5t23.5 -41t87.5 -41zM668 -75q35 0 57 15.5t22 44.5q0 27 -27 44.5t-113 51.5q-29 -37 -29 -71q0 -45 22 -65t68 -20zM149 -50l503 764h76
l-504 -764h-75z" />
    <glyph glyph-name="threeeighths" unicode="&#x215c;" horiz-adv-x="883" 
d="M173 253q-75 0 -113.5 21t-38.5 59q0 22 14 36.5t35 14.5q52 0 62 -61q5 -20 11.5 -25.5t28.5 -5.5q69 0 69 87q0 51 -21.5 67t-66.5 16h-31v48h27q43 0 62 17t19 62q0 73 -54 73q-18 0 -24.5 -5.5t-8.5 -22.5q-4 -28 -16 -41t-40 -13q-22 0 -35.5 12t-13.5 33
q0 35 41.5 55.5t109.5 20.5q75 0 117 -26.5t42 -76.5q0 -37 -30 -65.5t-89 -38.5v-2q137 -11 137 -112q0 -59 -46.5 -93t-146.5 -34zM673 -112q-84 0 -134.5 28t-50.5 77q0 33 25.5 62t69.5 45v3q-73 34 -73 103q0 60 49.5 95t118.5 35q67 0 114 -25.5t47 -72.5
q0 -28 -24.5 -54t-59.5 -38v-3q54 -23 78 -50.5t24 -69.5q0 -57 -52 -96t-132 -39zM716 162q29 36 29 69q0 68 -73 68q-31 0 -49 -15.5t-18 -39.5t23.5 -41t87.5 -41zM680 -75q35 0 57 15.5t22 44.5q0 27 -27 44.5t-113 51.5q-29 -37 -29 -71q0 -45 22 -65t68 -20zM177 -50
l503 764h76l-504 -764h-75z" />
    <glyph glyph-name="fiveeighths" unicode="&#x215d;" horiz-adv-x="871" 
d="M156 253q-67 0 -102.5 21.5t-35.5 55.5q0 44 50 44q28 0 41 -12.5t18 -42.5q4 -18 10.5 -22t28.5 -4q77 0 77 70q0 42 -30.5 63.5t-81.5 21.5q-41 0 -71 -12l-11 6l29 251l182 -1q17 0 24 6.5t20 31.5h33l-14 -121l-207 1l-10 -76q34 9 73 9q80 0 127 -35t47 -103
q0 -64 -53 -108t-144 -44zM661 -112q-84 0 -134.5 28t-50.5 77q0 33 25.5 62t69.5 45v3q-73 34 -73 103q0 60 49.5 95t118.5 35q67 0 114 -25.5t47 -72.5q0 -28 -24.5 -54t-59.5 -38v-3q54 -23 78 -50.5t24 -69.5q0 -57 -52 -96t-132 -39zM704 162q29 36 29 69q0 68 -73 68
q-31 0 -49 -15.5t-18 -39.5t23.5 -41t87.5 -41zM668 -75q35 0 57 15.5t22 44.5q0 27 -27 44.5t-113 51.5q-29 -37 -29 -71q0 -45 22 -65t68 -20zM159 -50l503 764h76l-504 -764h-75z" />
    <glyph glyph-name="seveneighths" unicode="&#x215e;" horiz-adv-x="867" 
d="M657 -112q-84 0 -134.5 28t-50.5 77q0 33 25.5 62t69.5 45v3q-73 34 -73 103q0 60 49.5 95t118.5 35q67 0 114 -25.5t47 -72.5q0 -28 -24.5 -54t-59.5 -38v-3q54 -23 78 -50.5t24 -69.5q0 -57 -52 -96t-132 -39zM700 162q29 36 29 69q0 68 -73 68q-31 0 -49 -15.5
t-18 -39.5t23.5 -41t87.5 -41zM664 -75q35 0 57 15.5t22 44.5q0 27 -27 44.5t-113 51.5q-29 -37 -29 -71q0 -45 22 -65t68 -20zM84 261q42 184 205 345h-170q-22 0 -30.5 -8.5t-22.5 -45.5h-37l14 141h316v-56q-66 -85 -96 -174.5t-37 -201.5h-142zM136 -50l503 764h76
l-504 -764h-75z" />
    <glyph glyph-name="arrowleft" unicode="&#x2190;" horiz-adv-x="818" 
d="M697 250l-339 16l80 -66q58 -48 38 -107q-15 -44 -59 -61q-56 -20 -103 26l-286 282v14l287 283q49 48 106 23q45 -19 57 -65q14 -56 -40 -101l-80 -66l339 16q65 3 91 -52q22 -49 -3 -96q-27 -49 -88 -46z" />
    <glyph glyph-name="arrowright" unicode="&#x2192;" horiz-adv-x="818" 
d="M460 266l-339 -16q-65 -3 -91 52q-22 49 3 96q27 49 88 46l339 -16l-80 66q-58 48 -38 108q16 44 60 60q55 20 101 -25l287 -283v-14l-286 -282q-50 -49 -108 -24q-44 20 -56 65q-14 56 40 101z" />
    <glyph glyph-name="minus" unicode="&#x2212;" horiz-adv-x="503" 
d="M46 303v68h411v-68h-411z" />
    <glyph glyph-name="approxequal" unicode="&#x2248;" horiz-adv-x="560" 
d="M455 507l55 -26q-25 -56 -53.5 -83.5t-75.5 -27.5q-32 0 -108.5 23t-101.5 23q-42 0 -68 -68l-53 30q39 106 125 106q31 0 107 -23t103 -23q23 0 39 18t31 51zM455 340l55 -26q-25 -56 -53.5 -83.5t-75.5 -27.5q-32 0 -108.5 23t-101.5 23q-42 0 -68 -68l-53 30
q39 106 125 106q31 0 107 -23t103 -23q23 0 39 18t31 51z" />
    <glyph glyph-name="notequal" unicode="&#x2260;" horiz-adv-x="552" 
d="M46 391v65h261l77 134h67l-77 -134h132v-65h-169l-62 -108h231v-65h-268l-74 -129h-67l74 129h-125v65h162l62 108h-224z" />
    <glyph glyph-name="lessequal" unicode="&#x2264;" horiz-adv-x="503" 
d="M452 132l-402 166v79l402 166v-76l-332 -129l332 -129v-77zM50 0v68h402v-68h-402z" />
    <glyph glyph-name="greaterequal" unicode="&#x2265;" horiz-adv-x="503" 
d="M453 68v-68h-402v68h402zM453 298l-402 -166v77l332 129l-332 129v76l402 -166v-79z" />
    <glyph glyph-name="uni24C5" unicode="&#x24c5;" horiz-adv-x="814" 
d="M406 -14q-153 0 -257 104.5t-104 253.5t104 252.5t257 103.5q152 0 257.5 -104t105.5 -252t-105.5 -253t-257.5 -105zM406 26q136 0 226 92.5t90 225.5t-90 224.5t-226 91.5q-137 0 -225 -91.5t-88 -224.5q0 -134 88 -226t225 -92zM387 492v-263q0 -24 4 -30.5t18 -8.5
l27 -5v-28h-207v28l18 4q14 3 18 9.5t4 30.5v232q0 24 -4 30t-18 9l-18 5v27h207q165 0 165 -116q0 -57 -34 -88.5t-93 -31.5q-42 0 -62 10v23q38 0 53 18.5t15 64.5q0 45 -13.5 65t-46.5 20q-18 0 -33 -5z" />
    <glyph glyph-name="square" unicode="&#x25a0;" horiz-adv-x="926" 
d="M116 0v693h694v-693h-694z" />
    <glyph glyph-name="squareopen" unicode="&#x25a1;" horiz-adv-x="926" 
d="M116 0v693h694v-693h-694zM175 57h577v582h-577v-582z" />
    <glyph glyph-name="triangleup" unicode="&#x25b2;" horiz-adv-x="829" 
d="M779 0h-729v14l354 710h20l355 -710v-14z" />
    <glyph glyph-name="triangleupopen" unicode="&#x25b3;" horiz-adv-x="829" 
d="M779 0h-729v14l359 710h10l360 -710v-14zM693 54l-279 564l-280 -564h559z" />
    <glyph glyph-name="triangleright" unicode="&#x25b6;" horiz-adv-x="860" 
d="M116 -18v729h14l680 -359v-10l-680 -360h-14z" />
    <glyph glyph-name="trianglerightopen" unicode="&#x25b7;" horiz-adv-x="860" 
d="M116 -18v729h14l680 -359v-10l-680 -360h-14zM175 70l539 277l-539 278v-555z" />
    <glyph glyph-name="triangledown" unicode="&#x25bc;" horiz-adv-x="829" 
d="M50 693h729v-14l-354 -710h-20l-355 710v14z" />
    <glyph glyph-name="triangledownopen" unicode="&#x25bd;" horiz-adv-x="829" 
d="M50 693h729v-14l-359 -710h-10l-360 710v14zM136 639l279 -564l280 564h-559z" />
    <glyph glyph-name="triangleleft" unicode="&#x25c0;" horiz-adv-x="860" 
d="M744 711v-729h-14l-680 360v10l680 359h14z" />
    <glyph glyph-name="triangleleftopen" unicode="&#x25c1;" horiz-adv-x="860" 
d="M744 711v-729h-14l-680 360v10l680 359h14zM147 347l539 -277v555z" />
    <glyph glyph-name="circle" unicode="&#x25cb;" horiz-adv-x="806" 
d="M402 -15q-150 0 -255.5 106t-105.5 256t105.5 255.5t255.5 105.5t256.5 -105.5t106.5 -255.5q0 -149 -107 -255.5t-256 -106.5z" />
    <glyph glyph-name="circleopen" unicode="&#x25cf;" horiz-adv-x="806" 
d="M402 -15q-150 0 -255.5 106t-105.5 256t105.5 255.5t255.5 105.5t256.5 -105.5t106.5 -255.5q0 -149 -107 -255.5t-256 -106.5zM402 40q126 0 215 90t89 217q0 128 -88.5 217.5t-215.5 89.5q-126 0 -213.5 -89.5t-87.5 -217.5q0 -127 87.5 -217t213.5 -90z" />
    <glyph glyph-name="star" unicode="&#x2605;" horiz-adv-x="832" 
d="M169 -34l-7 4l96 291l-244 174v8h304l94 291h8l95 -291h303v-8l-243 -174l95 -289l-7 -4l-247 176z" />
    <glyph glyph-name="staropen" unicode="&#x2606;" horiz-adv-x="832" 
d="M169 -34l-7 4l96 291l-244 174v8h304l94 291h8l95 -291h303v-8l-243 -174l95 -289l-7 -4l-247 176zM247 80l170 127l169 -127l-68 202l172 118h-208l-66 200l-66 -200h-206l170 -118z" />
    <glyph glyph-name="space_uni0326" horiz-adv-x="510" 
d="M171 -284l-7 28q55 12 76.5 33t19.5 50q-14 -7 -28 -7q-28 0 -45 16t-17 42q0 27 22.5 46t56.5 19q38 0 64 -24t26 -65q0 -53 -41.5 -92.5t-126.5 -45.5z" />
    <glyph glyph-name="caron.alt" horiz-adv-x="510" 
d="M263 569l-25 6l7 137q3 53 50 53q24 0 40.5 -14t16.5 -35q0 -18 -15 -40z" />
    <glyph glyph-name="space_uni0326.alt" horiz-adv-x="510" 
d="M331 822l7 -28q-55 -12 -76.5 -33t-19.5 -50q14 7 28 7q28 0 45 -16t17 -42q0 -27 -22.5 -46t-56.5 -19q-38 0 -64 24t-26 65q0 53 41.5 92.5t126.5 45.5z" />
    <glyph glyph-name="acute.pl" horiz-adv-x="510" 
d="M216 575l-21 20l65 139q22 47 54 47q25 0 46 -19t21 -42q0 -27 -30 -49z" />
    <glyph glyph-name="grave.uc" horiz-adv-x="511" 
d="M364 745l-188 49q-23 6 -34.5 21.5t-11.5 33.5q0 23 15.5 41t37.5 18q24 0 54 -23l140 -112z" />
    <glyph glyph-name="dieresis.uc" horiz-adv-x="516" 
d="M140 748q-36 0 -61 23.5t-25 57.5t25 57.5t61 23.5t61 -23.5t25 -57.5t-25 -57.5t-61 -23.5zM377 748q-36 0 -61 23.5t-25 57.5t25 57.5t61 23.5q35 0 60 -23.5t25 -57.5t-25 -57.5t-60 -23.5z" />
    <glyph glyph-name="macron.uc" horiz-adv-x="516" 
d="M105 777v79h306v-79h-306z" />
    <glyph glyph-name="acute.uc" horiz-adv-x="516" 
d="M149 745l-12 28l140 112q30 23 53 23t38 -18t15 -41q0 -44 -45 -55z" />
    <glyph glyph-name="circumflex.uc" horiz-adv-x="516" 
d="M291 901l133 -127l-19 -31l-148 54l-148 -54l-19 31l132 127h69z" />
    <glyph glyph-name="caron.uc" horiz-adv-x="516" 
d="M223 756l-133 127l19 31l148 -54l148 54l19 -31l-132 -127h-69z" />
    <glyph glyph-name="breve.uc" horiz-adv-x="516" 
d="M259 754q-64 0 -107.5 41t-54.5 107l43 12q28 -63 119 -63q89 0 118 63l42 -12q-10 -67 -52.5 -107.5t-107.5 -40.5z" />
    <glyph glyph-name="dotaccent.uc" horiz-adv-x="412" 
d="M206 744q-40 0 -67.5 25t-27.5 62q0 38 27.5 62.5t67.5 24.5t67 -24.5t27 -62.5q0 -37 -27.5 -62t-66.5 -25z" />
    <glyph glyph-name="ring.uc" horiz-adv-x="516" 
d="M258 736q-51 0 -83 30.5t-32 76.5t33.5 77.5t81.5 31.5q49 0 82 -30.5t33 -78.5q0 -46 -33 -76.5t-82 -30.5zM258 781q26 0 41.5 17.5t15.5 44.5t-15.5 45t-41.5 18t-41.5 -18t-15.5 -45t15.5 -44.5t41.5 -17.5z" />
    <glyph glyph-name="tilde.uc" horiz-adv-x="516" 
d="M107 759l-39 18q23 71 48.5 106t59.5 35q29 0 88 -24.5t75 -24.5q10 0 17.5 3.5t16 15.5t12 17.5t15.5 26.5l38 -17q-24 -73 -47 -107t-58 -34q-29 0 -89 24.5t-76 24.5q-23 0 -46 -37q-1 -3 -15 -27z" />
    <glyph glyph-name="hungarumlaut.uc" horiz-adv-x="516" 
d="M315 759l-20 22l69 114q22 37 49 37q20 0 39 -17.5t19 -37.5q0 -30 -39 -52zM129 759l-20 22l68 114q22 37 50 37q18 0 37 -16.5t19 -37.5q0 -34 -43 -58z" />
    <glyph glyph-name="acute.ucpl" horiz-adv-x="510" 
d="M216 747l-21 20l54 125q20 47 54 47q25 0 46 -19t21 -42q0 -30 -30 -49z" />
    <glyph glyph-name="Cacute.pl" horiz-adv-x="657" 
d="M396 -12q-165 0 -262.5 90t-97.5 263q0 94 30 165.5t82.5 114t118.5 63.5t143 21q110 0 194 -23l11 -207h-42q-54 108 -80 141q-20 25 -37.5 31.5t-58.5 6.5q-94 0 -133 -65.5t-39 -227.5q0 -187 39.5 -254.5t131.5 -67.5q45 0 68 13t48 46q39 56 69 130h41l-11 -199
q-100 -41 -215 -41zM363 747l-21 20l54 125q20 47 54 47q25 0 46 -19t21 -42q0 -30 -30 -49z" />
    <glyph glyph-name="Nacute.pl" horiz-adv-x="740" 
d="M558 -2l-387 577h-4v-441q0 -54 8 -67.5t41 -19.5l36 -7v-40h-225v40l31 7q27 6 35.5 19.5t8.5 62.5v445q0 43 -7.5 54.5t-32.5 17.5l-35 8v39h274l270 -407h4v274q0 53 -7.5 66t-40.5 20l-41 8v39h229v-39l-30 -7q-28 -7 -36.5 -20t-8.5 -63v-566h-82zM382 747l-21 20
l54 125q20 47 54 47q25 0 46 -19t21 -42q0 -30 -30 -49z" />
    <glyph glyph-name="Oacute.pl" horiz-adv-x="763" 
d="M378 -12q-93 0 -168.5 36.5t-124.5 117.5t-49 196q0 94 31 167.5t82 115.5t111 63t125 21q145 0 243.5 -89t98.5 -263q0 -95 -31 -168t-82.5 -114.5t-111 -62t-124.5 -20.5zM383 42q57 0 89.5 23.5t50 87.5t17.5 179q0 173 -36 246t-125 73q-55 0 -87.5 -23.5
t-50.5 -88.5t-18 -180q0 -172 35.5 -244.5t124.5 -72.5zM355 747l-21 20l54 125q20 47 54 47q25 0 46 -19t21 -42q0 -30 -30 -49z" />
    <glyph glyph-name="Sacute.pl" horiz-adv-x="558" 
d="M256 -12q-114 0 -210 30l-12 194h43q42 -80 74 -120q41 -51 111 -51q54 0 89 29.5t35 70.5q0 43 -33 73.5t-122 64.5q-107 40 -149 90.5t-42 128.5q0 91 69.5 149t182.5 58q117 0 179 -20l12 -174h-43q-39 75 -68 107q-31 34 -91 34q-51 0 -83 -27t-32 -68
q0 -37 27.5 -61t112.5 -57q119 -45 168.5 -95t49.5 -124q0 -100 -71.5 -166t-196.5 -66zM261 747l-21 20l54 125q20 47 54 47q25 0 46 -19t21 -42q0 -30 -30 -49z" />
    <glyph glyph-name="Zacute.pl" horiz-adv-x="611" 
d="M21 0v56l359 584v4h-41q-105 0 -136.5 -7.5t-53.5 -37.5q-38 -53 -74 -129h-40l12 223h520v-55l-357 -583v-4h34q111 0 145.5 8.5t60.5 42.5q39 52 77 141h41l-16 -243h-531zM278 747l-21 20l54 125q20 47 54 47q25 0 46 -19t21 -42q0 -30 -30 -49z" />
    <glyph glyph-name="cacute.pl" horiz-adv-x="524" 
d="M285 -12q-122 0 -189 71.5t-67 195.5q0 75 28 131t74.5 87t99 45.5t108.5 14.5q77 0 119.5 -24t42.5 -69q0 -32 -20 -56t-51 -24q-65 0 -72 76q-4 29 -12.5 37t-33.5 8q-124 0 -124 -181q0 -223 169 -223q65 0 143 39v-45q-27 -32 -83.5 -57.5t-131.5 -25.5zM279 575
l-21 20l65 139q22 47 54 47q25 0 46 -19t21 -42q0 -27 -30 -49z" />
    <glyph glyph-name="idotaccent" horiz-adv-x="326" 
d="M161 594q-41 0 -68.5 25t-27.5 62q0 38 27.5 62.5t68.5 24.5q39 0 66 -24.5t27 -62.5q0 -37 -27.5 -62t-65.5 -25zM20 0v39l29 7q25 7 31 16t6 41v288q0 30 -5.5 39.5t-28.5 24.5l-35 22v32l221 23l14 -9q0 -1 -4 -48t-4 -95v-277q0 -33 6 -42t30 -15l29 -7v-39h-289z
" />
    <glyph glyph-name="nacute.pl" horiz-adv-x="658" 
d="M20 0v39l29 7q25 7 31 16t6 41v288q0 30 -5.5 39.5t-28.5 24.5l-35 22v32l211 23l14 -9l-7 -61h5q102 70 199 70q136 0 136 -133v-296q0 -32 6.5 -41.5t30.5 -15.5l27 -7v-39h-282v39l27 6q22 6 27 14.5t5 43.5v251q0 46 -17 65t-56 19t-99 -19v-316q0 -35 5 -43.5
t27 -14.5l27 -6v-39h-283zM305 575l-21 20l65 139q22 47 54 47q25 0 46 -19t21 -42q0 -27 -30 -49z" />
    <glyph glyph-name="oacute.pl" horiz-adv-x="612" 
d="M307 -12q-120 0 -199 70t-79 201q0 91 41 154.5t102.5 91.5t134.5 28q118 0 197 -69.5t79 -200.5q0 -134 -80.5 -204.5t-195.5 -70.5zM310 39q53 0 79.5 46t26.5 174q0 90 -14 140t-37 66t-63 16q-54 0 -80 -45.5t-26 -166.5q0 -135 26 -182.5t88 -47.5zM277 575l-21 20
l65 139q22 47 54 47q25 0 46 -19t21 -42q0 -27 -30 -49z" />
    <glyph glyph-name="sacute.pl" horiz-adv-x="459" 
d="M202 -12q-84 0 -162 19l-9 153h40q29 -54 58 -87q32 -34 92 -34q87 0 87 66q0 33 -26.5 52t-98.5 46q-74 27 -111.5 65t-37.5 97q0 74 57.5 121t158.5 47q90 0 141 -18l5 -136h-37q-24 39 -58 78q-25 25 -68 25q-83 0 -83 -66q0 -25 24 -43t88 -41q90 -32 130 -70t40 -96
q0 -80 -61 -129t-169 -49zM208 575l-21 20l65 139q22 47 54 47q25 0 46 -19t21 -42q0 -27 -30 -49z" />
    <glyph glyph-name="zacute.pl" horiz-adv-x="517" 
d="M21 0v51l299 413v4h-44q-58 0 -81 -6t-40 -25q-20 -24 -68 -107h-38l10 189h435v-49l-299 -415v-4h45q70 0 97 8.5t47 32.5q32 39 66 103h41l-17 -195h-453zM251 575l-21 20l65 139q22 47 54 47q25 0 46 -19t21 -42q0 -27 -30 -49z" />
    <glyph glyph-name="dollar.old" horiz-adv-x="526" 
d="M226 -114v103q-208 6 -208 121q0 29 17.5 46.5t46.5 17.5q32 0 50 -19t25 -68q4 -27 17 -38t52 -13v234q-104 39 -147 89t-43 117q0 76 54.5 128t144.5 62v88h53v-85q92 -3 144 -36.5t52 -80.5q0 -30 -18 -47.5t-46 -17.5q-69 0 -76 90q-2 24 -14 33t-42 11v-216
q113 -45 159 -94.5t46 -122.5q0 -76 -59.5 -132.5t-153.5 -65.5v-104h-54zM370 135q0 38 -21 65t-69 49v-212q44 7 67 32.5t23 65.5zM149 535q0 -37 19 -60.5t67 -46.5v192q-41 -5 -63.5 -27.5t-22.5 -57.5z" />
    <glyph glyph-name="Euro.old" horiz-adv-x="622" 
d="M9 370v55h103q26 122 108.5 183.5t189.5 61.5q81 0 133.5 -29t52.5 -83q0 -66 -66 -66q-38 0 -56.5 20.5t-24.5 67.5q-3 26 -14.5 34.5t-39.5 8.5q-115 0 -133 -198h211l-11 -55h-203v-24q0 -42 1 -60h188l-9 -56h-173q14 -89 57 -126.5t123 -37.5q69 0 143 41v-45
q-72 -74 -208 -74q-111 0 -181.5 60.5t-89.5 181.5h-101v56h95q0 6 -0.5 18.5t-0.5 19.5q0 31 2 46h-96z" />
    <glyph glyph-name="sterling.old" horiz-adv-x="543" 
d="M43 314v55h58q-18 65 -18 105q0 87 63.5 141.5t179.5 54.5q86 0 135.5 -28.5t49.5 -75.5q0 -31 -17.5 -49t-48.5 -18q-34 0 -51 20t-27 63q-5 25 -14.5 34t-28.5 9q-39 0 -59.5 -26t-20.5 -87q0 -18 10 -143h151v-55h-148v-13q0 -59 -32 -103t-95 -81v-5h267
q29 0 44 13.5t34 60.5h36l-21 -186h-464v86q57 35 81.5 65.5t24.5 78.5q0 27 -16 84h-73z" />
    <glyph glyph-name="yen.old" horiz-adv-x="630" 
d="M66 283v55h153l-110 194q-25 44 -39 60t-35 22l-19 6v38h316v-38l-27 -5q-21 -5 -28.5 -14t-7.5 -24q0 -21 18 -55l82 -159h5l72 153q19 41 19 62q0 14 -9 22t-31 14l-20 6v38h205v-38l-18 -6q-24 -7 -37.5 -24t-39.5 -69l-93 -183h152v-55h-175v-82h175v-55h-175v-33
q0 -41 6 -51.5t31 -16.5l38 -6v-39h-304v39l37 6q26 6 33 17t7 51v33h-181v55h181v82h-181z" />
    <glyph glyph-name="zero.old" horiz-adv-x="644" 
d="M318 -12q-55 0 -103.5 16.5t-88.5 50.5t-63 91.5t-23 132.5q0 64 18 117t47.5 88t67.5 59.5t76 35.5t75 11q114 0 197 -74.5t83 -220.5q0 -78 -25.5 -139t-68 -96.5t-91.5 -53.5t-101 -18zM322 38q64 0 90.5 56t26.5 185q0 141 -27 200.5t-90 59.5q-60 0 -89 -57.5
t-29 -186.5q0 -140 27 -198.5t91 -58.5z" />
    <glyph glyph-name="one.old" horiz-adv-x="384" 
d="M29 0v39l45 6q25 3 32.5 12t7.5 40v339l-84 6v42q142 33 212 100l32 -4v-483q0 -31 6.5 -39.5t31.5 -12.5l42 -6v-39h-325z" />
    <glyph glyph-name="two.old" horiz-adv-x="524" 
d="M484 103l-15 -103h-443v69q121 88 191 156q108 105 108 203q0 63 -24 88.5t-67 25.5q-27 0 -37 -9t-12 -32q-2 -45 -21 -65t-57 -20q-32 0 -50 18t-18 49q0 44 51.5 75.5t150.5 31.5q112 0 177.5 -44.5t65.5 -122.5q0 -86 -82 -162t-251 -155v-3h333z" />
    <glyph glyph-name="three.old" horiz-adv-x="557" 
d="M237 -124q-103 0 -157 31t-54 85q0 28 17 45t48 17q32 0 49.5 -16t25.5 -55t20.5 -50.5t51.5 -11.5q58 0 90 41t32 122q0 74 -32.5 105t-103.5 31h-52v54h43q69 0 99 31t30 106q0 131 -103 131q-28 0 -38.5 -10.5t-12.5 -34.5q-4 -45 -21 -63t-52 -18q-32 0 -49 17
t-17 45q0 50 57.5 81t151.5 31q109 0 171.5 -45.5t62.5 -122.5q0 -59 -42.5 -103.5t-131.5 -62.5v-3q96 -8 147.5 -51.5t51.5 -122.5q0 -88 -72.5 -145.5t-209.5 -57.5z" />
    <glyph glyph-name="four.old" horiz-adv-x="586" 
d="M464 -112h-152v188h-296v57l356 445h92v-426h108l-12 -76h-96v-188zM103 152h209v261h-3l-206 -257v-4z" />
    <glyph glyph-name="five.old" horiz-adv-x="542" 
d="M485 578l-13 -116h-318l-15 -139q50 13 105 13q113 0 186.5 -56t73.5 -161q0 -106 -80 -174.5t-203 -68.5q-89 0 -143 32.5t-54 82.5q0 26 16.5 43.5t48.5 17.5q33 0 49.5 -17.5t23.5 -62.5q4 -29 18.5 -40t48.5 -11q66 0 105 39.5t39 108.5q0 72 -48 106.5t-128 34.5
q-76 0 -117 -16l-9 8l41 376h373z" />
    <glyph glyph-name="six.old" horiz-adv-x="609" 
d="M311 -12q-119 0 -195 81.5t-76 238.5q0 103 29.5 181.5t80 124.5t111 68.5t127.5 22.5q82 0 126.5 -26.5t44.5 -69.5q0 -66 -68 -66q-34 0 -51 18.5t-23 60.5q-2 19 -13.5 26t-37.5 7q-64 0 -111 -68.5t-53 -216.5q71 51 154 51q99 0 159.5 -54t60.5 -152
q0 -100 -75 -163.5t-190 -63.5zM313 38q54 0 79 38.5t25 127.5q0 82 -28 118t-85 36q-52 0 -103 -32v-19q0 -142 24.5 -205.5t87.5 -63.5z" />
    <glyph glyph-name="seven.old" horiz-adv-x="537" 
d="M125 -112q35 169 112 300.5t196 265.5h-294q-31 0 -42.5 -12.5t-32.5 -65.5h-36l19 202h470v-74q-100 -137 -149.5 -279.5t-72.5 -336.5h-170z" />
    <glyph glyph-name="eight.old" horiz-adv-x="581" 
d="M285 -12q-109 0 -181 46t-72 128q0 53 42.5 97.5t111.5 74.5v3q-125 66 -125 168q0 87 70 143.5t167 56.5q99 0 161.5 -44t62.5 -116q0 -95 -134 -155v-4q84 -42 122.5 -85t38.5 -109q0 -86 -73.5 -145t-190.5 -59zM294 38q61 0 99 29t38 76q0 54 -63 95q-29 19 -147 75
q-22 -22 -34.5 -36t-25.5 -43t-13 -61q0 -66 38 -100.5t108 -34.5zM347 412q65 65 65 128q0 114 -121 114q-54 0 -85.5 -27t-31.5 -68q0 -43 40.5 -74t132.5 -73z" />
    <glyph glyph-name="nine.old" horiz-adv-x="609" 
d="M292 590q122 0 199.5 -81t77.5 -238q0 -198 -95 -296.5t-248 -98.5q-78 0 -126 26.5t-48 71.5q0 29 18 46.5t51 17.5q32 0 49 -17.5t24 -60.5q7 -38 54 -38q72 0 112 65.5t47 219.5q-77 -51 -160 -51q-98 0 -156 55.5t-58 158.5q0 95 68.5 157.5t190.5 62.5zM290 540
q-51 0 -74.5 -38.5t-23.5 -121.5q0 -84 27.5 -122t82.5 -38q48 0 106 32v21q0 142 -25.5 204.5t-92.5 62.5z" />
    <glyph glyph-name="percent.old" horiz-adv-x="830" 
d="M205 326q-71 0 -122 43.5t-51 123.5q0 59 30 101t68 58.5t78 16.5q68 0 120.5 -44.5t52.5 -124.5q0 -84 -54.5 -129t-121.5 -45zM119 -48l504 726h69l-505 -726h-68zM622 -12q-72 0 -122 43t-50 124q0 85 55.5 130.5t119.5 45.5q67 0 119.5 -44.5t52.5 -124.5
q0 -84 -54 -129t-121 -45zM207 367q34 0 49 29t15 96q0 74 -15.5 104.5t-48.5 30.5q-32 0 -48.5 -29t-16.5 -98q0 -72 15.5 -102.5t49.5 -30.5zM624 30q34 0 48.5 29t14.5 95q0 75 -15 105.5t-48 30.5q-65 0 -65 -127q0 -72 15.5 -102.5t49.5 -30.5z" />
    <glyph glyph-name="perthousand.old" horiz-adv-x="1225" 
d="M205 326q-71 0 -122 43.5t-51 123.5q0 59 30 101t68 58.5t78 16.5q68 0 120.5 -44.5t52.5 -124.5q0 -84 -54.5 -129t-121.5 -45zM119 -48l504 726h69l-505 -726h-68zM622 -12q-72 0 -122 43t-50 124q0 85 55.5 130.5t119.5 45.5q67 0 119.5 -44.5t52.5 -124.5
q0 -84 -54 -129t-121 -45zM207 367q34 0 49 29t15 96q0 74 -15.5 104.5t-48.5 30.5q-32 0 -48.5 -29t-16.5 -98q0 -72 15.5 -102.5t49.5 -30.5zM624 30q34 0 48.5 29t14.5 95q0 75 -15 105.5t-48 30.5q-65 0 -65 -127q0 -72 15.5 -102.5t49.5 -30.5zM1017 -12
q-72 0 -122.5 43t-50.5 124q0 85 56 130.5t120 45.5q67 0 119.5 -44.5t52.5 -124.5q0 -84 -54 -129t-121 -45zM1018 30q35 0 50 29t15 95q0 75 -15.5 105.5t-49.5 30.5q-64 0 -64 -127q0 -73 15 -103t49 -30z" />
    <glyph glyph-name="plus.old" horiz-adv-x="502" 
d="M213 86v174h-167v68h167v174h77v-174h166v-68h-166v-174h-77z" />
    <glyph glyph-name="minus.old" horiz-adv-x="502" 
d="M46 260v68h410v-68h-410z" />
    <glyph glyph-name="multiply.old" horiz-adv-x="470" 
d="M94 101l-50 46l143 146l-138 142l52 48l134 -141l138 141l49 -46l-139 -143l143 -146l-51 -47l-142 144z" />
    <glyph glyph-name="divide.old" horiz-adv-x="502" 
d="M252 403q-31 0 -54 22.5t-23 53.5t22.5 53.5t54.5 22.5t55 -22.5t23 -53.5t-23 -53.5t-55 -22.5zM46 260v68h410v-68h-410zM252 32q-31 0 -54 23t-23 54t22.5 53.5t54.5 22.5t55 -22.5t23 -53.5t-23 -54t-55 -23z" />
    <glyph glyph-name="equal.old" horiz-adv-x="552" 
d="M46 347v68h460v-68h-460zM46 173v68h460v-68h-460z" />
    <glyph glyph-name="less.old" horiz-adv-x="502" 
d="M452 73l-402 176v79l402 176v-76l-332 -139l332 -139v-77z" />
    <glyph glyph-name="greater.old" horiz-adv-x="502" 
d="M452 249l-402 -176v77l332 139l-332 139v76l402 -176v-79z" />
    <glyph glyph-name="plusminus.old" horiz-adv-x="502" 
d="M46 0v68h410v-68h-410zM213 156v164h-167v68h167v164h77v-164h166v-68h-166v-164h-77z" />
    <glyph glyph-name="notequal.old" horiz-adv-x="552" 
d="M46 348v65h262l76 132h67l-76 -132h131v-65h-168l-62 -108h230v-65h-267l-75 -131h-67l75 131h-126v65h163l62 108h-225z" />
    <glyph glyph-name="approxequal.old" horiz-adv-x="560" 
d="M455 458l55 -26q-25 -56 -53.5 -83.5t-75.5 -27.5q-32 0 -108.5 23t-101.5 23q-42 0 -68 -68l-53 30q39 106 125 106q31 0 107 -23t103 -23q23 0 39 18t31 51zM455 291l55 -26q-25 -56 -53.5 -83.5t-75.5 -27.5q-32 0 -108.5 23t-101.5 23q-42 0 -68 -68l-53 30
q39 106 125 106q31 0 107 -23t103 -23q23 0 39 18t31 51z" />
    <glyph glyph-name="lessequal.old" horiz-adv-x="502" 
d="M452 132l-402 156v79l402 156v-76l-332 -119l332 -119v-77zM50 0v68h402v-68h-402z" />
    <glyph glyph-name="greaterequal.old" horiz-adv-x="502" 
d="M452 288l-402 -156v77l332 119l-332 119v76l402 -156v-79zM452 68v-68h-402v68h402z" />
    <glyph glyph-name="numbersign.old" horiz-adv-x="540" 
d="M88 0l36 172h-86l17 98h87l23 121h-82l17 98h87l33 169h62l-34 -169h107l34 169h62l-33 -169h85l-17 -98h-88l-26 -121h87l-17 -98h-88l-35 -172h-61l34 172h-109l-32 -172h-63zM204 270h107l24 121h-107z" />
    <glyph glyph-name="dollar.tab" 
d="M261 -158v147q-108 4 -162.5 39.5t-54.5 91.5q0 32 20 48t50 16q36 0 52 -18.5t22 -75.5q3 -30 17.5 -42t55.5 -14v247q-108 43 -152 95t-44 124q0 80 56.5 134.5t148.5 65.5v99h57v-97q101 -3 151 -37t50 -81q0 -29 -19.5 -50t-47.5 -21q-41 0 -56 20.5t-20 75.5
q-3 25 -16 35.5t-42 12.5v-228q119 -48 165.5 -99.5t46.5 -131.5q0 -81 -61.5 -141t-160.5 -68v-147h-56zM407 139q0 40 -20.5 68.5t-69.5 51.5v-224q90 12 90 104zM185 565q0 -38 18.5 -63t66.5 -49v203q-85 -12 -85 -91z" />
    <glyph glyph-name="Euro.tab" 
d="M25 387v57h73q26 130 109 195.5t191 65.5q82 0 129.5 -30t47.5 -87q0 -29 -18.5 -49.5t-50.5 -20.5q-39 0 -58 22.5t-24 71.5q-2 27 -10.5 36.5t-31.5 9.5q-54 0 -84 -49.5t-37 -164.5h185l-11 -57h-176v-22q0 -47 1 -67h159l-10 -57h-144q11 -96 48 -133.5t111 -37.5
q68 0 141 40v-45q-79 -77 -207 -77q-108 0 -176 63t-86 190h-71v57h65q-1 14 -1 43q0 31 1 46h-65z" />
    <glyph glyph-name="sterling.tab" 
d="M58 331v57h60q-19 72 -19 111q0 92 70 149t190 57q94 0 144 -29.5t50 -79.5q0 -34 -20 -53t-51 -19q-39 0 -56.5 21.5t-28.5 68.5q-6 30 -13 37.5t-30 7.5q-39 0 -58.5 -26t-19.5 -92q0 -24 4 -83.5t5 -69.5h154v-57h-151v-11q0 -118 -136 -195v-5h278q32 0 48 13.5
t35 64.5h38l-21 -198h-489v91q59 36 85 68t26 83q0 27 -17 89h-77z" />
    <glyph glyph-name="yen.tab" 
d="M51 298v57h158l-111 206q-26 48 -38.5 64t-30.5 22l-19 7v39h319v-39l-23 -5q-39 -9 -39 -41q0 -19 18 -58l77 -172h4l72 165q19 45 19 66q0 16 -8.5 24.5t-30.5 14.5l-19 6v39h193v-39l-16 -6q-24 -7 -37 -25t-39 -73l-92 -195h152v-57h-172v-89h172v-57h-172v-33
q0 -44 6.5 -55t34.5 -17l39 -7v-40h-316v40l39 7q29 6 36 17t7 55v33h-183v57h183v89h-183z" />
    <glyph glyph-name="zero.tab" 
d="M296 -12q-108 0 -186 89.5t-78 259.5q0 77 17.5 140.5t45.5 104.5t64 69.5t72 41t70 12.5q49 0 95 -22t85.5 -63.5t63 -111.5t23.5 -157q0 -92 -25 -164t-65.5 -114t-87 -63.5t-94.5 -21.5zM299 39q58 0 78 65t20 232q0 125 -9 192.5t-30 96.5t-59 29q-54 0 -75.5 -64.5
t-21.5 -236.5q0 -179 20.5 -246.5t76.5 -67.5z" />
    <glyph glyph-name="one.tab" 
d="M104 0v40l66 9q30 5 38.5 17.5t8.5 56.5v401l-111 9v43q75 14 139 47t105 79l37 -8v-571q0 -45 8.5 -57t37.5 -17l64 -9v-40h-393z" />
    <glyph glyph-name="two.tab" 
d="M46 0v82q124 97 211 191q56 63 81 117.5t25 133.5q0 75 -22.5 105t-67.5 30q-32 0 -43 -10.5t-13 -38.5q-3 -56 -23 -78t-64 -22q-35 0 -53.5 19t-18.5 53q0 52 60 87.5t171 35.5q114 0 183 -51.5t69 -149.5q0 -175 -361 -374v-5h231q38 0 52.5 12.5t39.5 66.5h38
l-15 -204h-480z" />
    <glyph glyph-name="three.tab" 
d="M252 -12q-106 0 -161.5 30.5t-55.5 86.5q0 31 19 50t52 19q38 0 57 -17t26 -66q7 -37 16.5 -47t43.5 -10q107 0 107 162q0 78 -29.5 107.5t-98.5 29.5h-51v55h42q67 0 95.5 31.5t28.5 107.5q0 132 -87 132q-24 0 -32.5 -7.5t-10.5 -31.5q-6 -53 -22.5 -72t-58.5 -19
q-35 0 -52 17.5t-17 46.5q0 52 59 82t153 30q110 0 174 -44.5t64 -121.5q0 -60 -45.5 -105t-140.5 -63v-4q99 -7 156 -51t57 -125q0 -89 -73.5 -146t-214.5 -57z" />
    <glyph glyph-name="four.tab" 
d="M222 0v40l38 7q26 6 34 17.5t8 54.5v70h-263v59l323 445h102v-428h98l-11 -76h-87v-70q0 -44 7.5 -55.5t35.5 -16.5l38 -7v-40h-323zM122 265h180v252h-3l-177 -248v-4z" />
    <glyph glyph-name="five.tab" 
d="M255 -12q-95 0 -149 32t-54 84q0 28 19 47t53 19q40 0 59 -18.5t23 -71.5q3 -28 14 -37t44 -9q130 0 130 139q0 144 -169 144q-76 0 -115 -16l-11 8l42 384h284q23 0 33 9t29 44h39l-19 -176h-318l-16 -132q48 13 108 13q119 0 191 -57.5t72 -165.5q0 -104 -79.5 -172
t-209.5 -68z" />
    <glyph glyph-name="six.tab" 
d="M308 -12q-118 0 -193.5 81.5t-75.5 241.5q0 102 29 180.5t78 123.5t107 67.5t122 22.5q83 0 130.5 -25.5t47.5 -71.5q0 -64 -73 -64q-39 0 -57 17.5t-23 59.5q-2 22 -11.5 30t-35.5 8q-128 0 -137 -285q60 46 143 46q90 0 146.5 -53.5t56.5 -151.5q0 -103 -66.5 -165
t-187.5 -62zM310 39q51 0 67 34.5t16 131.5q0 83 -21 116.5t-69 33.5q-50 0 -88 -25v-22q0 -160 16.5 -214.5t78.5 -54.5z" />
    <glyph glyph-name="seven.tab" 
d="M145 0q38 171 118.5 307t201.5 262h-292q-31 0 -43 -12.5t-34 -67.5h-39l19 204h474v-79q-102 -137 -150.5 -280.5t-65.5 -333.5h-189z" />
    <glyph glyph-name="eight.tab" 
d="M295 -12q-112 0 -182.5 45t-70.5 127q0 105 148 169v4q-120 63 -120 174q0 88 70.5 143t166.5 55q92 0 157.5 -42t65.5 -120q0 -45 -36 -83.5t-92 -64.5v-4q81 -41 118 -85t37 -108q0 -87 -75.5 -148.5t-186.5 -61.5zM360 416q52 58 52 124q0 112 -112 112
q-49 0 -78.5 -24.5t-29.5 -65.5q0 -44 39 -75.5t129 -70.5zM304 41q57 0 91.5 27t34.5 74q0 50 -41 80t-163 88q-59 -63 -59 -138q0 -131 137 -131z" />
    <glyph glyph-name="nine.tab" 
d="M295 704q122 0 194.5 -79.5t72.5 -239.5q0 -104 -27.5 -182.5t-75 -124.5t-106 -68.5t-125.5 -22.5q-83 0 -131 26t-48 72q0 30 19 48.5t55 18.5q39 0 57 -18t23 -63q2 -22 11.5 -30t35.5 -8q68 0 99.5 61t35.5 221q-61 -46 -142 -46q-90 0 -147 53.5t-57 152.5
q0 103 68 166t188 63zM293 653q-50 0 -67.5 -36.5t-17.5 -129.5q0 -82 21.5 -117t69.5 -35q47 0 87 25q1 11 1 24q0 158 -16 213.5t-78 55.5z" />
    <glyph glyph-name="cent.tab" 
d="M317 -12q-119 0 -188 69t-69 189q0 125 73.5 195t184.5 87v80h56v-75h9q81 0 126.5 -24.5t45.5 -69.5q0 -33 -18 -57.5t-50 -24.5q-34 0 -46.5 16.5t-16.5 54.5q-3 26 -14 38t-36 14v-405h4q77 0 159 41v-45q-58 -62 -163 -78v-151h-56v146h-1zM217 290q0 -175 101 -207
v393q-101 -25 -101 -186z" />
    <glyph glyph-name="percent.tab" horiz-adv-x="800" 
d="M206 344q-70 0 -119.5 45.5t-49.5 130.5q0 90 54.5 137t117.5 47q66 0 118 -47t52 -130q0 -88 -53.5 -135.5t-119.5 -47.5zM98 -50l515 764h71l-517 -764h-69zM590 -13q-69 0 -118.5 45.5t-49.5 129.5q0 90 54.5 137.5t117.5 47.5q66 0 117.5 -47t51.5 -131
q0 -87 -53.5 -134.5t-119.5 -47.5zM208 387q34 0 47.5 28.5t13.5 103.5q0 83 -14 112.5t-47 29.5q-32 0 -47 -28t-15 -105q0 -81 14 -111t48 -30zM592 30q34 0 47.5 28.5t13.5 103.5q0 83 -13.5 112.5t-47.5 29.5q-32 0 -47 -28.5t-15 -105.5q0 -80 14.5 -110t47.5 -30z" />
    <glyph glyph-name="perthousand.tab" horiz-adv-x="1100" 
d="M189 344q-65 0 -111 45.5t-46 130.5q0 90 51 137t110 47q61 0 109 -47t48 -130q0 -88 -49.5 -135.5t-111.5 -47.5zM68 -50l521 764h71l-522 -764h-70zM548 -13q-65 0 -111.5 45.5t-46.5 129.5q0 90 51 137.5t110 47.5q62 0 109.5 -47t47.5 -131q0 -87 -49.5 -134.5
t-110.5 -47.5zM191 386q31 0 43.5 30.5t12.5 102.5q0 81 -13 112t-43 31q-29 0 -43 -30t-14 -104q0 -78 13.5 -110t43.5 -32zM550 29q30 0 42.5 30.5t12.5 102.5q0 80 -12.5 111.5t-42.5 31.5q-29 0 -43 -30t-14 -105q0 -78 13.5 -109.5t43.5 -31.5zM907 -13
q-65 0 -111 45.5t-46 129.5q0 90 51 137.5t110 47.5q62 0 109.5 -47t47.5 -131q0 -87 -49.5 -134.5t-111.5 -47.5zM909 29q31 0 43.5 30.5t12.5 102.5q0 80 -13 111.5t-43 31.5q-29 0 -43 -30t-14 -105q0 -77 13.5 -109t43.5 -32z" />
    <glyph glyph-name="plus.tab" 
d="M262 119v184h-177v68h177v184h77v-184h176v-68h-176v-184h-77z" />
    <glyph glyph-name="minus.tab" 
d="M85 303v68h430v-68h-430z" />
    <glyph glyph-name="multiply.tab" 
d="M154 139l-50 46l148 151l-143 147l52 48l139 -146l143 146l49 -46l-144 -148l148 -151l-51 -47l-147 149z" />
    <glyph glyph-name="divide.tab" 
d="M300 448q-31 0 -54 22.5t-23 53.5t22.5 53.5t54.5 22.5t55 -22.5t23 -53.5t-23 -53.5t-55 -22.5zM75 305v68h450v-68h-450zM300 77q-31 0 -54 23t-23 54t22.5 53.5t54.5 22.5t55 -22.5t23 -53.5t-23 -54t-55 -23z" />
    <glyph glyph-name="equal.tab" 
d="M70 390v68h460v-68h-460zM70 216v68h460v-68h-460z" />
    <glyph glyph-name="less.tab" 
d="M506 112l-412 176v79l412 176v-76l-342 -139l342 -139v-77z" />
    <glyph glyph-name="greater.tab" 
d="M506 288l-412 -176v77l342 139l-342 139v76l412 -176v-79z" />
    <glyph glyph-name="florin.tab" 
d="M96 349v58h101l11 65q35 232 252 232q63 0 100 -25.5t37 -65.5q0 -29 -18 -44t-46 -15q-32 0 -48 17.5t-22 59.5q-1 16 -6.5 22t-19.5 6q-22 0 -36.5 -21t-23.5 -74l-27 -157h126v-58h-136l-50 -298q-21 -133 -76.5 -191t-152.5 -58q-64 0 -94.5 23t-30.5 58q0 58 60 58
q28 0 42 -14.5t20 -54.5q2 -14 5.5 -19.5t13.5 -5.5q16 0 25 14.5t16 57.5l70 430h-92z" />
    <glyph glyph-name="plusminus.tab" 
d="M85 0v68h430v-68h-430zM262 150v174h-177v68h177v174h77v-174h176v-68h-176v-174h-77z" />
    <glyph glyph-name="notequal.tab" 
d="M70 391v65h262l76 132h67l-76 -132h131v-65h-168l-62 -108h230v-65h-267l-75 -131h-67l75 131h-126v65h163l62 108h-225z" />
    <glyph glyph-name="approxequal.tab" 
d="M480 507l55 -26q-25 -56 -53.5 -83.5t-75.5 -27.5q-34 0 -113.5 23t-106.5 23q-42 0 -68 -68l-53 30q39 106 125 106q33 0 112 -23t108 -23q23 0 39 18t31 51zM480 340l55 -26q-25 -56 -53.5 -83.5t-75.5 -27.5q-34 0 -113.5 23t-106.5 23q-42 0 -68 -68l-53 30
q39 106 125 106q33 0 112 -23t108 -23q23 0 39 18t31 51z" />
    <glyph glyph-name="lessequal.tab" 
d="M506 132l-412 166v79l412 166v-76l-342 -129l342 -129v-77zM94 0v68h412v-68h-412z" />
    <glyph glyph-name="greaterequal.tab" 
d="M506 298l-412 -166v77l342 129l-342 129v76l412 -166v-79zM506 68v-68h-412v68h412z" />
    <glyph glyph-name="period.tab" horiz-adv-x="300" 
d="M149 -8q-41 0 -69 28t-28 67q0 41 28 69t69 28t70.5 -28.5t29.5 -68.5q0 -39 -29.5 -67t-70.5 -28z" />
    <glyph glyph-name="comma.tab" horiz-adv-x="300" 
d="M21 -171l-10 30q85 37 118 77.5t33 88.5q-14 -14 -44 -14q-35 0 -55 22.5t-20 60.5t28.5 64t71.5 26q51 0 83.5 -34.5t32.5 -95.5q0 -75 -58.5 -137.5t-179.5 -87.5z" />
    <glyph glyph-name="colon.tab" horiz-adv-x="300" 
d="M149 305q-40 0 -68.5 28t-28.5 67q0 40 28 68t69 28t70.5 -28t29.5 -68q0 -39 -29.5 -67t-70.5 -28zM149 -8q-40 0 -68.5 28t-28.5 67q0 41 28 69t69 28t70.5 -28.5t29.5 -68.5q0 -39 -29.5 -67t-70.5 -28z" />
    <glyph glyph-name="semicolon.tab" horiz-adv-x="300" 
d="M146 305q-40 0 -68.5 28t-28.5 67q0 40 28 68t69 28t70.5 -28t29.5 -68q0 -39 -29.5 -67t-70.5 -28zM25 -171l-10 30q85 37 118 77.5t33 88.5q-14 -14 -44 -14q-35 0 -55 22.5t-20 60.5t28.5 64t71.5 26q51 0 83.5 -34.5t32.5 -95.5q0 -75 -58.5 -137.5t-179.5 -87.5z
" />
    <glyph glyph-name="parenleft.tab" horiz-adv-x="400" 
d="M324 -141q-47 31 -87.5 71.5t-78 95t-59.5 127t-22 152.5q0 141 74 257.5t173 182.5l27 -29q-133 -123 -133 -394q0 -162 31 -260.5t102 -173.5z" />
    <glyph glyph-name="parenright.tab" horiz-adv-x="400" 
d="M77 745q100 -67 173.5 -183t73.5 -262q0 -148 -72.5 -260.5t-174.5 -180.5l-27 29q71 75 102.5 172.5t31.5 245.5q0 286 -134 410z" />
    <glyph glyph-name="bracketleft.tab" horiz-adv-x="400" 
d="M107 -130v864h253v-39l-72 -8q-38 -5 -48 -17t-10 -57v-622q0 -45 10 -57t48 -17l72 -8v-39h-253z" />
    <glyph glyph-name="bracketright.tab" horiz-adv-x="400" 
d="M293 734v-864h-253v39l70 8q39 5 49.5 17t10.5 57v622q0 45 -10.5 57t-49.5 17l-70 8v39h253z" />
    <glyph glyph-name="braceleft.tab" horiz-adv-x="400" 
d="M359 -129q-75 4 -124.5 14t-76 26.5t-36.5 36.5t-10 48t26.5 119.5t26.5 109.5q0 24 -25 37.5t-92 16.5v50q117 5 117 55q0 18 -26.5 108.5t-26.5 118.5q0 57 51 87t196 38v-42q-71 -10 -91.5 -24.5t-20.5 -52.5q0 -35 10.5 -105.5t10.5 -95.5q0 -45 -33.5 -71.5
t-111.5 -38.5v-4q76 -10 110.5 -37t34.5 -72q0 -25 -10.5 -97t-10.5 -107q0 -38 20.5 -52.5t91.5 -24.5v-41z" />
    <glyph glyph-name="braceright.tab" horiz-adv-x="400" 
d="M49 736q145 -8 196 -38t51 -87q0 -28 -26.5 -118t-26.5 -108q0 -51 117 -56v-50q-68 -3 -92.5 -15.5t-24.5 -36.5q0 -18 26.5 -110.5t26.5 -120.5t-10 -48t-36.5 -36.5t-76 -26.5t-124.5 -14v41q71 10 91.5 24.5t20.5 52.5q0 35 -10 108t-10 98q0 47 31 72.5t113 34.5v4
q-144 28 -144 112q0 25 10 94.5t10 104.5q0 38 -20.5 52.5t-91.5 24.5v42z" />
    <glyph glyph-name="parenleft.uctab" horiz-adv-x="400" 
d="M324 -97q-47 31 -87.5 71.5t-78 95t-59.5 127t-22 152.5q0 141 74 257.5t173 182.5l27 -29q-133 -123 -133 -394q0 -162 31 -260.5t102 -173.5z" />
    <glyph glyph-name="parenright.uctab" horiz-adv-x="400" 
d="M77 789q100 -67 173.5 -183t73.5 -262q0 -148 -72.5 -260.5t-174.5 -180.5l-27 29q71 75 102.5 172.5t31.5 245.5q0 286 -134 410z" />
    <glyph glyph-name="bracketleft.uctab" horiz-adv-x="400" 
d="M107 -86v864h253v-39l-72 -8q-38 -5 -48 -17t-10 -57v-622q0 -45 10 -57t48 -17l72 -8v-39h-253z" />
    <glyph glyph-name="bracketright.uctab" horiz-adv-x="400" 
d="M293 778v-864h-253v39l70 8q39 5 49.5 17t10.5 57v622q0 45 -10.5 57t-49.5 17l-70 8v39h253z" />
    <glyph glyph-name="braceleft.uctab" horiz-adv-x="400" 
d="M359 -85q-75 4 -124.5 14t-76 26.5t-36.5 36.5t-10 48t26.5 119.5t26.5 109.5q0 24 -25 37.5t-92 16.5v50q117 5 117 55q0 18 -26.5 108.5t-26.5 118.5q0 57 51 87t196 38v-42q-71 -10 -91.5 -24.5t-20.5 -52.5q0 -35 10.5 -105.5t10.5 -95.5q0 -45 -33.5 -71.5
t-111.5 -38.5v-4q76 -10 110.5 -37t34.5 -72q0 -25 -10.5 -97t-10.5 -107q0 -38 20.5 -52.5t91.5 -24.5v-41z" />
    <glyph glyph-name="braceright.uctab" horiz-adv-x="400" 
d="M49 780q145 -8 196 -38t51 -87q0 -28 -26.5 -118t-26.5 -108q0 -51 117 -56v-50q-68 -3 -92.5 -15.5t-24.5 -36.5q0 -18 26.5 -110.5t26.5 -120.5t-10 -48t-36.5 -36.5t-76 -26.5t-124.5 -14v41q71 10 91.5 24.5t20.5 52.5q0 35 -10 108t-10 98q0 47 31 72.5t113 34.5v4
q-144 28 -144 112q0 25 10 94.5t10 104.5q0 38 -20.5 52.5t-91.5 24.5v42z" />
    <glyph glyph-name="space.tab" horiz-adv-x="300" 
 />
    <glyph glyph-name="dollar.oldtab" 
d="M260 -114v103q-208 6 -208 121q0 29 17.5 46.5t46.5 17.5q32 0 50 -19t25 -68q4 -27 17 -38t52 -13v234q-104 39 -147 89t-43 117q0 76 54.5 128t144.5 62v88h53v-85q92 -3 144 -36.5t52 -80.5q0 -30 -18 -47.5t-46 -17.5q-69 0 -76 90q-2 24 -14 33t-42 11v-216
q113 -45 159 -94.5t46 -122.5q0 -76 -59.5 -132.5t-153.5 -65.5v-104h-54zM404 135q0 38 -21 65t-69 49v-212q44 7 67 32.5t23 65.5zM183 535q0 -37 19 -60.5t67 -46.5v192q-41 -5 -63.5 -27.5t-22.5 -57.5z" />
    <glyph glyph-name="Euro.oldtab" 
d="M10 370v55h84q26 121 108 183t183 62q81 0 133 -29t52 -83q0 -30 -17 -48t-50 -18q-38 0 -56 20.5t-24 67.5q-3 27 -14 35t-39 8q-50 0 -84 -49t-43 -149h205l-11 -55h-197v-24q0 -42 1 -60h182l-9 -56h-167q14 -89 57 -126.5t123 -37.5q66 0 136 41v-45
q-29 -29 -86 -51.5t-123 -22.5q-106 0 -175 60.5t-88 181.5h-81v56h75q0 6 -0.5 18.5t-0.5 19.5q0 31 2 46h-76z" />
    <glyph glyph-name="sterling.oldtab" 
d="M72 314v55h58q-18 65 -18 105q0 87 63.5 141.5t179.5 54.5q86 0 135.5 -28.5t49.5 -75.5q0 -31 -17.5 -49t-48.5 -18q-34 0 -51 20t-27 63q-5 25 -14.5 34t-28.5 9q-39 0 -59.5 -26t-20.5 -87q0 -18 10 -143h151v-55h-148v-13q0 -59 -32 -103t-95 -81v-5h267
q29 0 44 13.5t34 60.5h36l-21 -186h-464v86q57 35 81.5 65.5t24.5 78.5q0 27 -16 84h-73z" />
    <glyph glyph-name="yen.oldtab" 
d="M59 283v55h144l-106 194q-24 44 -38.5 60t-35.5 22l-19 6v38h316v-38l-27 -5q-21 -5 -28.5 -14t-7.5 -24q0 -17 18 -55l77 -153h5l67 147q19 43 19 62q0 14 -9 22t-31 14l-20 6v38h205v-38l-18 -6q-24 -7 -38 -24.5t-39 -68.5l-89 -183h143v-55h-165v-82h165v-55h-165
v-33q0 -41 6 -51.5t31 -16.5l38 -6v-39h-304v39l37 6q26 6 33 17t7 51v33h-171v55h171v82h-171z" />
    <glyph glyph-name="zero.oldtab" 
d="M297 -12q-113 0 -185.5 71t-72.5 220q0 80 23.5 142.5t62 98t83.5 53t93 17.5q113 0 186.5 -74t73.5 -221q0 -154 -75.5 -230.5t-188.5 -76.5zM300 38q48 0 72 57.5t24 183.5q0 141 -23.5 200.5t-72.5 59.5q-97 0 -97 -244q0 -140 23 -198.5t74 -58.5z" />
    <glyph glyph-name="one.oldtab" 
d="M100 0v39l73 8q28 3 40 14t12 41v336l-124 6v40q160 24 252 100l32 -4v-478q0 -30 11 -41t39 -14l70 -8v-39h-405z" />
    <glyph glyph-name="two.oldtab" 
d="M514 103l-15 -103h-443v69q121 88 191 156q108 105 108 203q0 63 -24 88.5t-67 25.5q-27 0 -37 -9t-12 -32q-2 -45 -21 -65t-57 -20q-32 0 -50 18t-18 49q0 44 51.5 75.5t150.5 31.5q112 0 177.5 -44.5t65.5 -122.5q0 -86 -82 -162t-251 -155v-3h333z" />
    <glyph glyph-name="three.oldtab" 
d="M245 -124q-103 0 -157 31t-54 85q0 28 17 45t48 17q32 0 49.5 -16t25.5 -55t20.5 -50.5t51.5 -11.5q58 0 90.5 41t32.5 122q0 74 -33 105t-104 31h-52v54h43q70 0 100 31.5t30 105.5q0 131 -104 131q-28 0 -38.5 -10.5t-12.5 -34.5q-4 -45 -21 -63t-52 -18q-32 0 -49 17
t-17 45q0 50 57.5 81t151.5 31q109 0 172 -46t63 -122q0 -59 -43 -103.5t-132 -62.5v-3q96 -8 148 -51.5t52 -122.5q0 -88 -73 -145.5t-210 -57.5z" />
    <glyph glyph-name="four.oldtab" 
d="M449 -112h-152v188h-281v57l341 445h92v-426h112l-12 -76h-100v-188zM101 152h196v259h-3l-193 -255v-4z" />
    <glyph glyph-name="five.oldtab" 
d="M505 578l-13 -116h-318l-15 -139q50 13 105 13q113 0 185.5 -56t72.5 -161t-80 -174t-201 -69q-89 0 -143 32.5t-54 82.5q0 26 16.5 43.5t48.5 17.5q33 0 49.5 -17.5t23.5 -62.5q4 -29 18.5 -40t48.5 -11q64 0 103 40t39 108q0 72 -47 106.5t-127 34.5q-76 0 -117 -16
l-9 8l41 376h373z" />
    <glyph glyph-name="six.oldtab" 
d="M298 -12q-125 0 -192.5 82.5t-67.5 238.5q0 103 29 181.5t78 124t107.5 68t123.5 22.5q82 0 126.5 -26.5t44.5 -69.5q0 -66 -68 -66q-34 0 -51 18.5t-23 60.5q-2 19 -13.5 26t-37.5 7q-60 0 -104 -68t-50 -215q60 49 150 49q93 0 148.5 -54.5t55.5 -151.5
q0 -102 -69 -164.5t-187 -62.5zM299 38q96 0 96 166q0 84 -24 119t-79 35q-42 0 -93 -32v-19q0 -140 23 -204.5t77 -64.5z" />
    <glyph glyph-name="seven.oldtab" 
d="M162 -112q35 169 112 300.5t196 265.5h-293q-31 0 -42.5 -12.5t-32.5 -65.5h-36l19 202h469v-74q-100 -137 -149.5 -279.5t-72.5 -336.5h-170z" />
    <glyph glyph-name="eight.oldtab" 
d="M293 -12q-108 0 -177 45.5t-69 128.5q0 54 40 98t108 74v3q-121 64 -121 168q0 87 68 143.5t165 56.5q99 0 159.5 -44t60.5 -116q0 -51 -31.5 -88t-98.5 -67v-4q82 -41 119 -84.5t37 -109.5q0 -86 -71.5 -145t-188.5 -59zM303 38q59 0 95.5 29t36.5 76q0 54 -61 95
q-31 21 -144 75q-67 -65 -67 -140q0 -66 36 -100.5t104 -34.5zM356 412q61 61 61 128q0 55 -31.5 84.5t-85.5 29.5q-50 0 -81.5 -27t-31.5 -68q0 -44 39.5 -75t129.5 -72z" />
    <glyph glyph-name="nine.oldtab" 
d="M295 590q123 0 195 -81t72 -244q0 -188 -92.5 -288.5t-237.5 -100.5q-86 0 -129.5 25.5t-43.5 72.5q0 28 18.5 46t50.5 18t49 -18.5t24 -59.5q4 -21 14.5 -29.5t34.5 -8.5q137 0 150 283q-63 -48 -147 -48q-94 0 -150.5 55.5t-56.5 157.5q0 93 68 156.5t181 63.5z
M292 540q-39 0 -63 -40t-24 -120q0 -84 25.5 -122t77.5 -38q46 0 93 32v21q0 141 -24 204t-85 63z" />
    <glyph glyph-name="percent.oldtab" horiz-adv-x="800" 
d="M199 326q-71 0 -120 43t-49 124q0 86 54 131t118 45q68 0 118.5 -44.5t50.5 -124.5q0 -84 -53 -129t-119 -45zM104 -48l504 726h69l-505 -726h-68zM599 -12q-71 0 -119.5 43t-48.5 124q0 59 28.5 100.5t66 58.5t76.5 17q67 0 117.5 -44.5t50.5 -124.5q0 -84 -52.5 -129
t-118.5 -45zM201 367q33 0 46.5 28.5t13.5 96.5q0 74 -14.5 104.5t-45.5 30.5q-61 0 -61 -127q0 -73 13.5 -103t47.5 -30zM601 30q32 0 45.5 29t13.5 95q0 75 -14 105.5t-45 30.5q-61 0 -61 -127q0 -72 14.5 -102.5t46.5 -30.5z" />
    <glyph glyph-name="perthousand.oldtab" horiz-adv-x="1200" 
d="M199 326q-71 0 -120 43t-49 124q0 86 54 131t118 45q68 0 118.5 -44.5t50.5 -124.5q0 -84 -53 -129t-119 -45zM108 -48l504 726h69l-505 -726h-68zM607 -12q-71 0 -119.5 43t-48.5 124q0 59 28.5 100.5t66 58.5t76.5 17q67 0 117.5 -44.5t50.5 -124.5q0 -84 -52.5 -129
t-118.5 -45zM201 367q33 0 46.5 28.5t13.5 96.5q0 74 -14.5 104.5t-45.5 30.5q-61 0 -61 -127q0 -73 13.5 -103t47.5 -30zM609 30q32 0 45.5 29t13.5 95q0 75 -14 105.5t-45 30.5q-61 0 -61 -127q0 -72 14.5 -102.5t46.5 -30.5zM999 -12q-71 0 -119.5 43t-48.5 124
q0 59 28.5 100.5t66 58.5t76.5 17q67 0 117.5 -44.5t50.5 -124.5q0 -84 -52.5 -129t-118.5 -45zM1001 30q32 0 45.5 29t13.5 95q0 75 -14 105.5t-45 30.5q-61 0 -61 -127q0 -72 14.5 -102.5t46.5 -30.5z" />
    <glyph glyph-name="plus.oldtab" 
d="M262 76v184h-177v68h177v184h77v-184h176v-68h-176v-184h-77z" />
    <glyph glyph-name="minus.oldtab" 
d="M85 260v68h430v-68h-430z" />
    <glyph glyph-name="multiply.oldtab" 
d="M154 96l-50 46l148 151l-143 147l52 48l139 -146l143 146l49 -46l-144 -148l148 -151l-51 -47l-147 149z" />
    <glyph glyph-name="divide.oldtab" 
d="M301 403q-31 0 -54 22.5t-23 53.5t22.5 53.5t54.5 22.5t55 -22.5t23 -53.5t-23 -53.5t-55 -22.5zM75 260v68h450v-68h-450zM301 32q-31 0 -54 23t-23 54t22.5 53.5t54.5 22.5t55 -22.5t23 -53.5t-23 -54t-55 -23z" />
    <glyph glyph-name="equal.oldtab" 
d="M70 347v68h460v-68h-460zM70 173v68h460v-68h-460z" />
    <glyph glyph-name="less.oldtab" 
d="M506 73l-412 176v79l412 176v-76l-342 -139l342 -139v-77z" />
    <glyph glyph-name="greater.oldtab" 
d="M506 249l-412 -176v77l342 139l-342 139v76l412 -176v-79z" />
    <glyph glyph-name="plusminus.oldtab" 
d="M85 0v68h430v-68h-430zM262 146v174h-177v68h177v174h77v-174h176v-68h-176v-174h-77z" />
    <glyph glyph-name="notequal.oldtab" 
d="M70 348v65h262l76 132h67l-76 -132h131v-65h-168l-62 -108h230v-65h-267l-75 -131h-67l75 131h-126v65h163l62 108h-225z" />
    <glyph glyph-name="approxequal.oldtab" 
d="M480 458l55 -26q-25 -56 -53.5 -83.5t-75.5 -27.5q-34 0 -113.5 23t-106.5 23q-42 0 -68 -68l-53 30q39 106 125 106q33 0 112 -23t108 -23q23 0 39 18t31 51zM480 291l55 -26q-25 -56 -53.5 -83.5t-75.5 -27.5q-34 0 -113.5 23t-106.5 23q-42 0 -68 -68l-53 30
q39 106 125 106q33 0 112 -23t108 -23q23 0 39 18t31 51z" />
    <glyph glyph-name="lessequal.oldtab" 
d="M506 132l-412 156v79l412 156v-76l-342 -119l342 -119v-77zM94 0v68h412v-68h-412z" />
    <glyph glyph-name="greaterequal.oldtab" 
d="M506 288l-412 -156v77l342 119l-342 119v76l412 -156v-79zM506 68v-68h-412v68h412z" />
    <glyph glyph-name="zero.num" horiz-adv-x="500" 
d="M249 253q-91 0 -153.5 58t-62.5 161q0 58 21.5 104t55.5 72t70.5 39.5t71.5 13.5q85 0 150 -60t65 -162q0 -108 -66.5 -167t-151.5 -59zM251 300q43 0 61.5 38t18.5 133q0 107 -19 145.5t-61 38.5q-40 0 -60.5 -37.5t-20.5 -136.5q0 -103 19 -142t62 -39z" />
    <glyph glyph-name="one.num" horiz-adv-x="299" 
d="M25 261v35l27 5q22 5 27 12t5 37v225l-59 6v37q103 18 164 87l27 -8v-347q0 -29 6.5 -38t26.5 -11l25 -5v-35h-249z" />
    <glyph glyph-name="two.num" horiz-adv-x="391" 
d="M23 261v59q84 60 141 121q72 70 72 148q0 42 -16 57t-46 15q-18 0 -24 -6.5t-9 -25.5q-5 -34 -18 -48.5t-43 -14.5q-24 0 -38.5 14t-14.5 35q0 36 44 61t116 25q81 0 126.5 -32t45.5 -94q0 -109 -231 -222v-3h139q23 0 32.5 9.5t23.5 44.5h34l-9 -143h-325z" />
    <glyph glyph-name="three.num" horiz-adv-x="399" 
d="M173 253q-75 0 -113.5 21t-38.5 59q0 22 14 36.5t35 14.5q52 0 62 -61q5 -20 11.5 -25.5t28.5 -5.5q69 0 69 87q0 51 -21.5 67t-66.5 16h-31v48h27q43 0 62 17t19 62q0 73 -54 73q-18 0 -24.5 -5.5t-8.5 -22.5q-4 -28 -16 -41t-40 -13q-22 0 -35.5 12t-13.5 33
q0 35 41.5 55.5t109.5 20.5q75 0 117 -26.5t42 -76.5q0 -37 -30 -65.5t-89 -38.5v-2q137 -11 137 -112q0 -59 -46.5 -93t-146.5 -34z" />
    <glyph glyph-name="four.num" horiz-adv-x="431" 
d="M176 261v35l23 5q21 5 26.5 12.5t5.5 36.5v8h-210v46l256 289h64v-279h69l-7 -56h-62v-8q0 -29 5.5 -37t24.5 -12l23 -5v-35h-218zM91 414h140v162h-5l-135 -157v-5z" />
    <glyph glyph-name="five.num" horiz-adv-x="381" 
d="M156 253q-67 0 -102.5 21.5t-35.5 55.5q0 44 50 44q28 0 41 -12.5t18 -42.5q4 -18 10.5 -22t28.5 -4q77 0 77 70q0 42 -30.5 63.5t-81.5 21.5q-41 0 -71 -12l-11 6l29 251l182 -1q17 0 24 6.5t20 31.5h33l-14 -121l-207 1l-10 -76q34 9 73 9q80 0 127 -35t47 -103
q0 -64 -53 -108t-144 -44z" />
    <glyph glyph-name="six.num" horiz-adv-x="442" 
d="M223 253q-84 0 -139.5 51t-55.5 157q0 63 21 110.5t56.5 75t77.5 41t89 13.5q59 0 91.5 -18t32.5 -49q0 -21 -14 -34t-38 -13q-27 0 -40 13t-19 38q-4 17 -8.5 21.5t-17.5 4.5q-94 0 -99 -159q36 20 105 20q68 0 108 -32.5t40 -95.5q0 -64 -49.5 -104t-140.5 -40z
M225 294q35 0 49.5 22.5t14.5 72.5q0 51 -18.5 68t-53.5 17q-39 0 -58 -13v-6q0 -89 13.5 -125t52.5 -36z" />
    <glyph glyph-name="seven.num" horiz-adv-x="387" 
d="M84 261q42 184 205 345h-170q-22 0 -30.5 -8.5t-22.5 -45.5h-37l14 141h316v-56q-66 -85 -96 -174.5t-37 -201.5h-142z" />
    <glyph glyph-name="eight.num" horiz-adv-x="420" 
d="M210 253q-84 0 -134.5 28t-50.5 77q0 33 25.5 62t69.5 45v2q-73 34 -73 104q0 59 50 94.5t118 35.5q67 0 114 -25.5t47 -72.5q0 -28 -24.5 -54t-59.5 -38v-3q54 -23 78 -50.5t24 -69.5q0 -57 -52 -96t-132 -39zM253 527q29 33 29 69q0 68 -73 68q-31 0 -49 -15.5
t-18 -39.5q0 -25 23.5 -42t87.5 -40zM217 290q35 0 57 15.5t22 44.5q0 26 -27.5 44t-112.5 52q-29 -39 -29 -71q0 -45 22 -65t68 -20z" />
    <glyph glyph-name="nine.num" horiz-adv-x="440" 
d="M219 701q85 0 139 -51.5t54 -156.5q0 -118 -69.5 -179t-172.5 -61q-61 0 -94 18t-33 48q0 22 14.5 35t40.5 13q44 0 56 -52q4 -16 9.5 -20.5t19.5 -4.5q46 0 70 35t28 125q-40 -20 -107 -20q-68 0 -107 32t-39 95t50.5 103.5t140.5 40.5zM215 659q-63 0 -63 -95
q0 -49 18 -66.5t55 -17.5q35 0 58 13v9q0 86 -15 121.5t-53 35.5z" />
    <glyph glyph-name="zero.den" horiz-adv-x="500" 
d="M249 -112q-91 0 -153.5 58t-62.5 161q0 58 21.5 104t55.5 72t70.5 39.5t71.5 13.5q85 0 150 -60t65 -162q0 -108 -66.5 -167t-151.5 -59zM251 -65q43 0 61.5 38t18.5 133q0 107 -19 145.5t-61 38.5q-40 0 -60.5 -37.5t-20.5 -136.5q0 -103 19 -142t62 -39z" />
    <glyph glyph-name="one.den" horiz-adv-x="299" 
d="M25 -104v35l27 5q22 6 27 13t5 36v225l-59 6v37q105 20 164 87l27 -8v-347q0 -29 6.5 -37.5t26.5 -11.5l25 -5v-35h-249z" />
    <glyph glyph-name="two.den" horiz-adv-x="391" 
d="M23 -104v59q88 64 141 121q72 70 72 148q0 42 -16 57.5t-46 15.5q-18 0 -24 -7t-9 -26q-5 -34 -18 -48.5t-43 -14.5q-24 0 -38.5 14t-14.5 35q0 36 44 61t116 25q80 0 126 -32t46 -93q0 -110 -231 -223v-3h139q23 0 32.5 9.5t23.5 45.5h34l-9 -144h-325z" />
    <glyph glyph-name="three.den" horiz-adv-x="399" 
d="M173 -112q-75 0 -113.5 21t-38.5 59q0 23 14 37t35 14q52 0 62 -61q5 -20 11.5 -25.5t28.5 -5.5q69 0 69 87q0 51 -21.5 67t-66.5 16h-31v48h27q43 0 62 17t19 62q0 73 -54 73q-18 0 -24.5 -5.5t-8.5 -22.5q-4 -28 -15.5 -40.5t-40.5 -12.5q-22 0 -35.5 11.5t-13.5 32.5
q0 35 41.5 55.5t109.5 20.5q75 0 117 -26.5t42 -76.5q0 -37 -29.5 -65t-89.5 -39v-2q137 -11 137 -111q0 -128 -193 -128z" />
    <glyph glyph-name="four.den" horiz-adv-x="431" 
d="M176 -104v35l23 5q15 4 20.5 7.5t8.5 12.5t3 29v8h-210v46l256 289h64v-278h69l-7 -57h-62v-8q0 -29 5.5 -37t24.5 -12l23 -5v-35h-218zM91 50h140v161h-5l-135 -157v-4z" />
    <glyph glyph-name="five.den" horiz-adv-x="387" 
d="M162 -112q-67 0 -102.5 21.5t-35.5 55.5q0 44 50 44q28 0 41 -12.5t18 -42.5q4 -18 10 -21.5t29 -3.5q77 0 77 69q0 42 -30.5 63.5t-81.5 21.5q-41 0 -71 -12l-11 6l29 251h182q18 0 24.5 6t19.5 31h33l-14 -121l-207 1l-10 -76q34 9 73 9q80 0 127 -34.5t47 -102.5
q0 -64 -53 -108.5t-144 -44.5z" />
    <glyph glyph-name="six.den" horiz-adv-x="442" 
d="M223 -112q-84 0 -139.5 51t-55.5 157q0 63 21 111t56.5 75t77.5 40.5t89 13.5q59 0 91.5 -18t32.5 -49q0 -21 -14 -34t-38 -13q-27 0 -40 13t-19 38q-4 17 -8.5 21.5t-17.5 4.5q-94 0 -99 -159q36 20 105 20q68 0 108 -32.5t40 -95.5q0 -64 -49.5 -104t-140.5 -40z
M225 -71q35 0 49.5 22.5t14.5 72.5q0 52 -18.5 69t-53.5 17q-40 0 -58 -14v-6q0 -89 13.5 -125t52.5 -36z" />
    <glyph glyph-name="seven.den" horiz-adv-x="387" 
d="M84 -104q42 184 205 345h-170q-22 0 -30.5 -8.5t-22.5 -45.5h-37l14 141h316v-56q-66 -85 -96 -174.5t-37 -201.5h-142z" />
    <glyph glyph-name="eight.den" horiz-adv-x="420" 
d="M210 -112q-84 0 -134.5 28t-50.5 77q0 33 25.5 62t69.5 45v3q-73 34 -73 103q0 60 49.5 95t118.5 35q67 0 114 -25.5t47 -72.5q0 -28 -24.5 -54t-59.5 -38v-3q54 -23 78 -50.5t24 -69.5q0 -57 -52 -96t-132 -39zM253 162q29 36 29 69q0 68 -73 68q-31 0 -49 -15.5
t-18 -39.5t23.5 -41t87.5 -41zM217 -75q35 0 57 15.5t22 44.5q0 27 -27 44.5t-113 51.5q-29 -37 -29 -71q0 -45 22 -65t68 -20z" />
    <glyph glyph-name="nine.den" horiz-adv-x="440" 
d="M218 336q85 0 139.5 -51.5t54.5 -157.5q0 -118 -68.5 -178.5t-173.5 -60.5q-60 0 -93 18t-33 48q0 46 54 46q24 0 35.5 -13t17.5 -39q4 -15 10.5 -19t23.5 -4q47 0 70.5 35.5t27.5 128.5q-40 -21 -109 -21t-108 32t-38 92q0 63 51 103.5t139 40.5zM215 303
q-34 -5 -48.5 -25.5t-14.5 -76.5q0 -53 18.5 -73.5t53.5 -20.5q39 0 59 16v17q-1 91 -15.5 127t-52.5 36z" />
    <glyph glyph-name="zero.sub" horiz-adv-x="500" 
d="M249 -132q-91 0 -153.5 58t-62.5 161q0 58 21.5 104t55.5 72t70.5 39.5t71.5 13.5q85 0 150 -60t65 -162q0 -108 -66.5 -167t-151.5 -59zM251 -85q43 0 61.5 38t18.5 133q0 107 -19 145.5t-61 38.5q-40 0 -60.5 -37.5t-20.5 -136.5q0 -103 19 -142t62 -39z" />
    <glyph glyph-name="one.sub" horiz-adv-x="299" 
d="M25 -124v35l27 5q22 6 27 13t5 36v225l-59 6v37q105 20 164 87l27 -8v-347q0 -29 6.5 -37.5t26.5 -11.5l25 -5v-35h-249z" />
    <glyph glyph-name="two.sub" horiz-adv-x="391" 
d="M23 -124v59q88 64 141 121q72 70 72 148q0 42 -16 57.5t-46 15.5q-18 0 -24 -7t-9 -26q-5 -34 -18 -48.5t-43 -14.5q-24 0 -38.5 14t-14.5 35q0 36 44 61t116 25q80 0 126 -32t46 -93q0 -110 -231 -223v-3h139q23 0 32.5 9.5t23.5 45.5h34l-9 -144h-325z" />
    <glyph glyph-name="three.sub" horiz-adv-x="399" 
d="M173 -132q-75 0 -113.5 21t-38.5 59q0 23 14 37t35 14q52 0 62 -61q5 -20 11.5 -25.5t28.5 -5.5q69 0 69 87q0 51 -21.5 67t-66.5 16h-31v48h27q43 0 62 17t19 62q0 73 -54 73q-18 0 -24.5 -5.5t-8.5 -22.5q-4 -28 -15.5 -40.5t-40.5 -12.5q-22 0 -35.5 11.5t-13.5 32.5
q0 35 41.5 55.5t109.5 20.5q75 0 117 -26.5t42 -76.5q0 -37 -29.5 -65t-89.5 -39v-2q137 -11 137 -111q0 -128 -193 -128z" />
    <glyph glyph-name="four.sub" horiz-adv-x="431" 
d="M176 -124v35l23 5q15 4 20.5 7.5t8.5 12.5t3 29v8h-210v46l256 289h64v-278h69l-7 -57h-62v-8q0 -29 5.5 -37t24.5 -12l23 -5v-35h-218zM91 30h140v161h-5l-135 -157v-4z" />
    <glyph glyph-name="five.sub" horiz-adv-x="387" 
d="M162 -132q-67 0 -102.5 21.5t-35.5 55.5q0 44 50 44q28 0 41 -12.5t18 -42.5q4 -18 10 -21.5t29 -3.5q77 0 77 69q0 42 -30.5 63.5t-81.5 21.5q-41 0 -71 -12l-11 6l29 251h182q18 0 24.5 6t19.5 31h33l-14 -121l-207 1l-10 -76q34 9 73 9q80 0 127 -34.5t47 -102.5
q0 -64 -53 -108.5t-144 -44.5z" />
    <glyph glyph-name="six.sub" horiz-adv-x="442" 
d="M223 -132q-84 0 -139.5 51t-55.5 157q0 63 21 111t56.5 75t77.5 40.5t89 13.5q59 0 91.5 -18t32.5 -49q0 -21 -14 -34t-38 -13q-27 0 -40 13t-19 38q-4 17 -8.5 21.5t-17.5 4.5q-94 0 -99 -159q36 20 105 20q68 0 108 -32.5t40 -95.5q0 -64 -49.5 -104t-140.5 -40z
M225 -91q35 0 49.5 22.5t14.5 72.5q0 52 -18.5 69t-53.5 17q-40 0 -58 -14v-6q0 -89 13.5 -125t52.5 -36z" />
    <glyph glyph-name="seven.sub" horiz-adv-x="387" 
d="M84 -124q42 184 205 345h-170q-22 0 -30.5 -8.5t-22.5 -45.5h-37l14 141h316v-56q-66 -85 -96 -174.5t-37 -201.5h-142z" />
    <glyph glyph-name="eight.sub" horiz-adv-x="420" 
d="M210 -132q-84 0 -134.5 28t-50.5 77q0 33 25.5 62t69.5 45v3q-73 34 -73 103q0 60 49.5 95t118.5 35q67 0 114 -25.5t47 -72.5q0 -28 -24.5 -54t-59.5 -38v-3q54 -23 78 -50.5t24 -69.5q0 -57 -52 -96t-132 -39zM253 142q29 36 29 69q0 68 -73 68q-31 0 -49 -15.5
t-18 -39.5t23.5 -41t87.5 -41zM217 -95q35 0 57 15.5t22 44.5q0 27 -27 44.5t-113 51.5q-29 -37 -29 -71q0 -45 22 -65t68 -20z" />
    <glyph glyph-name="nine.sub" horiz-adv-x="440" 
d="M218 316q85 0 139.5 -51.5t54.5 -157.5q0 -118 -68.5 -178.5t-173.5 -60.5q-60 0 -93 18t-33 48q0 46 54 46q24 0 35.5 -13t17.5 -39q4 -15 10.5 -19t23.5 -4q47 0 70.5 35.5t27.5 128.5q-40 -21 -109 -21t-108 32t-38 92q0 63 51 103.5t139 40.5zM215 283
q-34 -5 -48.5 -25.5t-14.5 -76.5q0 -53 18.5 -73.5t53.5 -20.5q39 0 59 16v17q-1 91 -15.5 127t-52.5 36z" />
    <glyph glyph-name="plus.sub" horiz-adv-x="425" 
d="M182 -79v149h-137v55h137v149h61v-149h137v-55h-137v-149h-61z" />
    <glyph glyph-name="minus.sub" horiz-adv-x="425" 
d="M45 125h335v-55h-335v55z" />
    </font>
</defs>
</svg>
